<svg version="1.1" id="Layer_1" xmlns="http://www.w3.org/2000/svg" xmlns:xlink="http://www.w3.org/1999/xlink" x="0px" y="0px"
	 width="100%" viewBox="0 0 512 512" enable-background="new 0 0 512 512" xml:space="preserve">
<path fill="#000000" opacity="1.000000" stroke="none" 
	d="
M1.000000,230.000000 
	C1.000000,153.739624 1.000000,77.479248 1.000000,1.000000 
	C77.020752,1.000000 153.041718,1.000000 229.869980,1.220818 
	C230.167068,2.023840 229.656860,2.606044 228.723160,3.098432 
	C223.284286,3.671180 218.140167,3.834335 213.277191,5.088056 
	C197.403946,9.180330 181.383636,12.943398 165.908798,18.256950 
	C155.173065,21.943251 145.242645,27.974848 134.561340,33.001732 
	C127.418732,37.013638 120.667198,40.982399 113.948959,44.964039 
	C113.982246,44.976917 113.965958,44.907413 113.602432,44.945377 
	C108.463539,48.639904 103.688164,52.296471 98.945694,55.965118 
	C98.978584,55.977200 98.971802,55.907444 98.632263,55.949879 
	C97.168114,56.976089 96.043495,57.959866 94.951035,58.962448 
	C94.983192,58.981247 94.964149,58.909225 94.694687,58.973793 
	C94.254257,59.349670 94.083282,59.660980 93.947258,59.971348 
	C93.982201,59.970402 93.962555,59.903309 93.614761,59.941772 
	C91.484200,61.636299 89.701424,63.292358 87.955170,64.952545 
	C87.991707,64.956673 87.951591,64.895050 87.613556,64.928635 
	C86.156441,65.952675 85.037369,66.943138 83.950607,67.960022 
	C83.982910,67.986443 83.954948,67.907799 83.687790,67.970688 
	C83.249855,68.341515 83.079086,68.649452 82.942772,68.967361 
	C82.977226,68.977325 82.956909,68.908531 82.689331,68.971512 
	C82.250740,69.342461 82.079720,69.650429 81.943069,69.967979 
	C81.977448,69.977562 81.957809,69.908951 81.690384,69.972298 
	C81.251610,70.343460 81.080269,70.651276 80.945938,70.971001 
	C80.982941,70.982918 80.940536,70.917740 80.623550,71.020172 
	C78.510681,73.061172 76.714806,74.999733 74.951126,76.961426 
	C74.983322,76.984543 74.958611,76.909218 74.691528,76.973206 
	C74.252640,77.344627 74.080833,77.652061 73.943329,77.968613 
	C73.977631,77.977730 73.958801,77.909286 73.691742,77.973351 
	C73.252815,78.344841 73.080948,78.652267 72.947189,78.969360 
	C72.985283,78.979034 72.937057,78.916954 72.691177,78.968765 
	C72.276886,79.295090 72.108490,79.569603 71.686188,79.935310 
	C71.262100,80.327675 71.091919,80.628845 70.950424,80.959854 
	C70.979103,80.989693 70.959930,80.909180 70.692719,80.973373 
	C70.253250,81.345085 70.080994,81.652596 69.943054,81.968788 
	C69.977379,81.977470 69.959282,81.909012 69.691887,81.972702 
	C69.252502,82.344025 69.080513,82.651665 68.942909,82.968353 
	C68.977295,82.977394 68.958305,82.908867 68.691162,82.971924 
	C68.251877,83.342392 68.079727,83.649803 67.946228,83.969910 
	C67.984879,83.982605 67.934967,83.918350 67.614830,84.023552 
	C66.499817,85.405609 65.704948,86.682457 64.944611,87.972733 
	C64.979156,87.986145 64.949532,87.918213 64.627831,88.025398 
	C62.840221,90.077400 61.374317,92.022224 59.942421,93.974243 
	C59.976433,93.981438 59.972439,93.912025 59.702435,93.974258 
	C59.257999,94.346214 59.083569,94.655930 58.944798,94.974304 
	C58.980453,94.982956 58.945213,94.918587 58.623627,95.024796 
	C57.503899,96.411957 56.705753,97.692902 55.942425,98.976151 
	C55.977242,98.978455 55.954491,98.912476 55.628090,99.023682 
	C52.504421,103.077042 49.707161,107.019196 46.944267,110.973358 
	C46.978638,110.985374 46.951180,110.917931 46.632446,111.020279 
	C45.845291,112.071243 45.376869,113.019859 44.943127,113.974510 
	C44.977806,113.980545 44.953636,113.914421 44.635078,114.018738 
	C43.847370,115.071846 43.378223,116.020645 42.943783,116.974892 
	C42.978489,116.980331 42.953480,116.914680 42.634628,117.017654 
	C41.846920,118.069405 41.378056,119.018181 40.943707,119.974670 
	C40.978222,119.982384 40.953407,119.916153 40.621986,120.030121 
	C39.496284,121.753334 38.702003,123.362564 37.942410,124.975784 
	C37.977097,124.979759 37.955395,124.913383 37.620693,125.031433 
	C35.160156,129.083389 33.034321,133.017303 30.942368,136.971405 
	C30.976246,136.991623 30.945547,136.918945 30.607967,137.040817 
	C28.575951,141.076004 26.881512,144.989319 25.102747,149.277283 
	C23.338366,153.675140 21.392172,157.610413 20.028158,161.738083 
	C15.935005,174.124405 12.069127,186.585831 7.920605,199.363861 
	C6.217289,209.513794 4.707932,219.317825 3.003671,229.470612 
	C2.205845,229.879578 1.602923,229.939789 1.000000,230.000000 
z"/>
<path fill="#000000" opacity="1.000000" stroke="none" 
	d="
M282.000000,0.999998 
	C358.926544,1.000000 435.853119,1.000000 513.000000,1.000000 
	C513.000000,76.687416 513.000000,152.375046 512.770142,228.867126 
	C511.965210,229.145447 511.390198,228.619308 510.905029,227.654083 
	C508.624176,215.149368 506.253448,203.083725 503.820068,190.662613 
	C503.170898,188.848999 502.584381,187.390839 502.083282,185.590729 
	C500.472504,179.805649 498.776337,174.362534 497.045837,168.654907 
	C496.943542,168.226044 496.875549,168.061737 496.715027,167.565765 
	C495.759186,165.460983 494.895874,163.687820 494.023010,161.644165 
	C493.941345,161.208221 493.869202,161.042816 493.836792,160.545349 
	C493.261047,159.107925 492.645538,158.002563 492.024292,156.632019 
	C491.948090,156.204651 491.877655,156.042450 491.794189,155.654388 
	C491.589935,155.178467 491.341492,155.015762 491.022156,154.658203 
	C490.936096,154.202164 490.863739,154.028290 490.778870,153.638824 
	C490.582916,153.183014 490.343079,153.033234 490.025146,152.683090 
	C489.929749,152.212509 489.855957,152.032700 489.825470,151.522141 
	C489.253967,150.084961 488.639160,148.978546 488.024841,147.624847 
	C488.025360,147.377563 487.824036,146.925842 487.761414,146.622070 
	C487.142212,145.508057 486.585663,144.697830 486.027466,143.630066 
	C485.958191,143.214706 485.890625,143.056870 485.808716,142.661591 
	C485.590668,142.168076 485.333710,141.988037 485.024048,141.628357 
	C484.957642,141.216019 484.890686,141.059296 484.809753,140.663132 
	C484.589905,140.166519 484.331390,139.983887 484.022980,139.624359 
	C483.959808,139.218811 483.893799,139.064728 483.814453,138.667694 
	C483.592621,138.164337 483.331543,137.977097 483.023376,137.617645 
	C483.028778,137.372208 482.833344,136.921783 482.818298,136.672073 
	C482.521332,136.255966 482.239349,136.089569 481.983215,135.978027 
	C482.009033,136.032898 482.119934,135.983871 482.027527,135.613907 
	C479.709595,131.030685 477.845581,126.571571 475.182922,122.655502 
	C469.697479,114.587891 463.785492,106.810295 458.040222,98.947876 
	C458.031403,98.982391 458.100677,98.965721 458.056763,98.621353 
	C456.691986,96.823494 455.371124,95.369995 454.045624,93.952499 
	C454.040985,93.988503 454.105530,93.955238 454.066406,93.605255 
	C452.035278,91.143021 450.043243,89.030762 448.066162,86.950211 
	C448.081085,86.981918 448.133148,86.934929 448.089355,86.584167 
	C442.722382,80.658417 437.453003,75.030380 432.039917,69.544144 
	C430.608826,68.093742 428.734863,67.080368 427.041138,65.892761 
	C427.018036,65.919189 427.081543,65.949203 426.976288,65.627197 
	C424.594818,63.501568 422.318634,61.697937 420.027710,59.927185 
	C420.012970,59.960064 420.084381,59.950378 419.979797,59.626938 
	C418.261139,58.169464 416.647064,57.035435 415.025757,55.936203 
	C415.018524,55.970997 415.086792,55.951225 414.977936,55.624031 
	C408.018127,50.426487 401.292297,45.365700 394.271362,40.754139 
	C389.745422,37.781364 384.786560,35.467777 379.990967,32.914764 
	C379.960266,32.970764 380.070679,33.034992 379.993896,32.796509 
	C379.637482,32.426254 379.357819,32.294491 378.851959,32.066544 
	C378.625732,31.970367 378.134247,31.981157 378.022705,31.766882 
	C377.739746,31.211439 377.468292,31.085003 376.862091,31.073893 
	C376.457397,30.975233 376.287476,30.975979 376.011322,30.765038 
	C375.738220,30.218178 375.472534,30.093399 374.867371,30.078278 
	C374.452759,29.976589 374.278809,29.975639 374.002594,29.764885 
	C373.737030,29.224293 373.475647,29.100330 372.871399,29.080929 
	C372.449768,28.975981 372.272949,28.973295 371.996460,28.761936 
	C371.735016,28.225796 371.476074,28.102709 370.874390,28.080969 
	C370.451233,27.974651 370.273712,27.971369 369.917053,27.675295 
	C368.842499,27.249430 367.947174,27.116358 366.914734,26.648392 
	C347.915222,17.501125 328.625122,9.985828 307.884003,6.857263 
	C299.864960,5.647683 291.849640,4.413111 283.438416,3.128377 
	C282.696136,2.377885 282.348083,1.688941 282.000000,0.999998 
z"/>
<path fill="#000000" opacity="1.000000" stroke="none" 
	d="
M513.000000,284.000000 
	C513.000000,360.260376 513.000000,436.520752 513.000000,513.000000 
	C436.979248,513.000000 360.958282,513.000000 284.128937,512.773071 
	C283.563721,512.062012 283.806854,511.577881 284.496094,511.066895 
	C293.756653,509.705780 302.680359,508.857452 311.356598,506.907745 
	C321.058441,504.727570 330.535919,501.548798 340.499939,498.860962 
	C343.882507,497.950775 346.982605,497.225677 349.846130,495.963654 
	C354.687347,493.830109 359.378845,491.356812 364.493439,489.027405 
	C366.935425,487.955017 369.017273,486.881653 371.402740,485.753448 
	C372.511322,485.142090 373.316284,484.585571 374.369202,484.026245 
	C374.617126,484.023438 375.074066,483.830750 375.322449,483.827332 
	C375.845703,483.617706 376.034149,483.350525 376.378052,483.023682 
	C376.619995,483.025055 377.065125,482.835449 377.317444,482.832489 
	C377.763519,482.559357 377.957275,482.289185 378.385559,482.023743 
	C378.620117,482.028503 379.051025,481.842834 379.309143,481.840515 
	C379.737579,481.549194 379.907898,481.260223 380.023560,481.003845 
	C379.968933,481.036407 380.032227,481.146820 380.411072,481.082825 
	C392.240814,473.370178 403.691650,465.721558 415.094360,458.074097 
	C415.046234,458.075287 415.057404,458.170990 415.395691,458.096405 
	C417.203491,456.706848 418.673035,455.391846 420.096375,454.080688 
	C420.050201,454.084534 420.067261,454.175629 420.411591,454.103668 
	C422.884399,452.048065 425.012878,450.064423 427.097107,448.090637 
	C427.052856,448.100525 427.082153,448.186279 427.428650,448.116821 
	C432.877747,443.189178 438.051117,438.402222 443.047150,433.436798 
	C444.968384,431.527344 446.485718,429.211517 448.143494,427.041443 
	C448.099884,427.002014 448.021667,427.089722 448.293793,427.025818 
	C448.740662,426.648834 448.915436,426.335754 449.058044,426.049438 
	C449.025879,426.076263 449.081909,426.138428 449.392761,426.004395 
	C451.194397,423.935638 452.685181,422.000916 454.130859,420.034180 
	C454.085785,420.002167 454.023315,420.093353 454.295593,420.030304 
	C454.742249,419.654358 454.916595,419.341461 455.061646,419.049438 
	C455.032379,419.070374 455.080902,419.123505 455.393951,418.997528 
	C456.527496,417.598328 457.347992,416.325104 458.119873,415.048523 
	C458.071289,415.045105 458.073059,415.142517 458.383850,415.011627 
	C459.736176,413.280273 460.777771,411.679840 461.962769,409.769806 
	C462.750122,408.332306 463.394012,407.204376 464.398743,406.038574 
	C466.229095,404.022980 467.698608,402.045349 469.127930,400.057434 
	C469.087738,400.047180 469.076263,400.129333 469.386230,400.004791 
	C470.180908,398.935425 470.665588,397.990631 471.109436,397.043427 
	C471.068634,397.041016 471.071838,397.122742 471.398743,396.989563 
	C473.203064,394.253082 474.680542,391.649780 476.113464,389.043823 
	C476.068970,389.041138 476.071655,389.130249 476.397461,388.993683 
	C478.422852,385.597382 480.122406,382.337646 481.986511,378.748932 
	C484.799225,372.964752 487.447418,367.509583 490.420227,361.883728 
	C492.361755,358.129303 494.228607,354.634094 495.536926,350.941010 
	C497.496429,345.409943 499.063507,339.739868 500.979431,333.771362 
	C506.173218,317.295074 510.220764,300.982544 511.452057,283.849304 
	C512.211121,283.778625 512.605530,283.889313 513.000000,284.000000 
z"/>
<path fill="#000000" opacity="1.000000" stroke="none" 
	d="
M226.000000,513.000000 
	C151.072479,513.000000 76.144966,513.000000 1.000000,513.000000 
	C1.000000,437.312592 1.000000,361.624939 1.230421,285.133484 
	C2.035309,284.856201 2.609777,285.382721 3.093925,286.348022 
	C3.322136,289.184662 3.475808,291.618347 3.986776,293.974487 
	C6.674001,306.365631 9.451500,318.737152 12.152803,331.494202 
	C12.433802,332.774078 12.732827,333.686035 13.089609,334.574799 
	C17.047140,344.433319 21.013651,354.288239 24.975533,364.385895 
	C24.973343,364.627655 25.168041,365.070282 25.174099,365.318054 
	C25.386003,365.839752 25.652363,366.028107 25.978527,366.378174 
	C25.977821,366.625488 26.173607,367.079742 26.179733,367.324463 
	C26.390057,367.839539 26.654198,368.024017 26.978979,368.372711 
	C27.045126,368.776093 27.110575,368.929413 27.181969,369.326416 
	C27.391474,369.839264 27.654833,370.022400 27.979208,370.371277 
	C28.045961,370.777527 28.111498,370.932037 28.182949,371.328735 
	C28.390892,371.838989 28.652948,372.020294 28.977585,372.367554 
	C29.045734,372.775391 29.111328,372.930573 29.183041,373.328888 
	C29.392735,373.840027 29.655676,374.022552 29.978792,374.369385 
	C29.979599,374.619263 30.173632,375.079773 30.179001,375.325714 
	C30.390114,375.842224 30.655064,376.028595 30.977837,376.375458 
	C30.976456,376.620087 31.168184,377.070251 31.173347,377.320343 
	C31.446611,377.762390 31.714710,377.954315 31.977684,378.383179 
	C31.972557,378.620117 32.158997,379.055878 32.162910,379.312500 
	C32.439480,379.770111 32.712128,379.971100 32.974945,380.393494 
	C32.965115,380.614899 33.146507,381.019348 33.107567,381.363403 
	C33.702637,382.176605 34.336639,382.645782 34.978210,383.370178 
	C35.051151,383.782623 35.116535,383.939819 35.187355,384.337646 
	C35.395321,384.842712 35.656158,385.022583 35.975861,385.361572 
	C35.976414,385.605225 36.163715,386.055145 36.220528,386.375488 
	C37.176289,387.840942 38.075241,388.986084 38.976997,390.371124 
	C38.979805,390.611023 39.166363,391.053101 39.208328,391.360229 
	C39.809525,392.454407 40.368759,393.241455 40.955429,394.362305 
	C41.629280,395.505890 42.275703,396.315735 42.923744,397.085388 
	C42.925365,397.045227 42.845184,397.050842 42.910915,397.402924 
	C44.294430,399.539734 45.612217,401.324463 46.911011,403.076385 
	C46.892025,403.043579 46.830151,403.087372 46.896130,403.441925 
	C49.951168,407.578339 52.940231,411.360199 55.929153,415.092896 
	C55.929012,415.043701 55.831036,415.052307 55.905964,415.385437 
	C56.961205,416.852325 57.941513,417.986084 58.945736,419.093353 
	C58.969646,419.066864 58.909252,419.028809 58.972618,419.301086 
	C59.349751,419.746704 59.663517,419.920044 59.947468,420.048157 
	C59.917652,420.002899 59.828205,420.064148 59.899094,420.406189 
	C61.619488,422.545502 63.269001,424.342773 64.908463,426.096802 
	C64.898407,426.053589 64.814766,426.083313 64.884712,426.429321 
	C71.182152,433.249512 77.372551,439.760132 83.669777,446.165741 
	C84.868317,447.384918 86.489326,448.188812 87.930725,449.144135 
	C87.946053,449.103943 87.862640,449.082825 87.996239,449.393799 
	C90.064514,451.194763 91.999191,452.684723 93.965576,454.129883 
	C93.997284,454.085052 93.906548,454.023163 93.970024,454.295349 
	C94.346405,454.741913 94.659309,454.916321 94.950806,455.061646 
	C94.929405,455.032501 94.875465,455.080597 95.001785,455.393555 
	C96.400909,456.527557 97.673706,457.348602 98.950691,458.121155 
	C98.954872,458.072632 98.857483,458.072906 98.993317,458.390015 
	C108.269852,465.129486 117.371361,471.609131 126.590927,477.916229 
	C128.081085,478.935638 130.096069,479.187927 132.201675,479.947144 
	C137.678894,482.765930 142.822891,485.432373 148.047913,488.319946 
	C148.128952,488.541107 148.476303,488.859833 148.476303,488.859833 
	C148.476303,488.859833 148.947205,488.836853 149.163483,488.933044 
	C149.379745,489.029236 149.853134,489.026703 150.033966,489.346405 
	C160.498199,495.362671 171.414307,499.356415 183.292404,501.918854 
	C194.091599,504.380371 204.500443,506.734650 215.115753,509.440033 
	C218.457977,510.203033 221.608810,510.533264 224.714935,511.105957 
	C225.241791,511.203125 225.576508,512.342285 226.000000,513.000000 
z"/>
<path fill="#E9F173" opacity="1.000000" stroke="none" 
	d="
M226.468658,513.000000 
	C225.576508,512.342285 225.241791,511.203125 224.714935,511.105957 
	C221.608810,510.533264 218.457977,510.203033 215.411407,509.207642 
	C216.307617,508.536499 217.152740,508.246765 217.916077,508.390656 
	C237.128937,512.013306 256.532654,511.244995 275.916260,510.985565 
	C278.626526,510.949249 281.338715,511.054169 284.050018,511.093750 
	C283.806854,511.577881 283.563721,512.062012 283.660278,512.773071 
	C264.979095,513.000000 245.958206,513.000000 226.468658,513.000000 
z"/>
<path fill="#E9F173" opacity="1.000000" stroke="none" 
	d="
M513.000000,283.531342 
	C512.605530,283.889313 512.211121,283.778625 511.216522,283.566589 
	C510.713135,280.308380 510.809875,277.151520 510.972412,273.536865 
	C511.280121,266.145660 511.846100,259.204498 511.679199,252.280991 
	C511.484283,244.199493 510.649414,236.133423 510.272430,228.080566 
	C510.452637,228.100464 510.815186,228.093155 510.815186,228.093155 
	C511.390198,228.619308 511.965210,229.145447 512.770142,229.335785 
	C513.000000,247.020889 513.000000,265.041779 513.000000,283.531342 
z"/>
<path fill="#E6F273" opacity="1.000000" stroke="none" 
	d="
M3.184242,285.909241 
	C2.609777,285.382721 2.035309,284.856201 1.230421,284.664856 
	C1.000000,282.958344 1.000000,280.916656 1.288119,278.584717 
	C1.384160,277.862946 1.192083,277.431458 1.000003,277.000000 
	C1.000000,263.979095 1.000000,250.958206 1.309220,237.381180 
	C1.412291,236.550034 1.206143,236.275024 0.999997,236.000000 
	C1.000000,234.285645 1.000000,232.571289 1.000000,230.428467 
	C1.602923,229.939789 2.205845,229.879578 3.156486,229.484406 
	C3.504203,229.149429 3.809203,229.115631 3.821411,229.545135 
	C3.521908,235.648621 3.210196,241.322601 2.848058,247.417389 
	C2.571411,251.964035 2.011266,256.104309 2.188403,260.212769 
	C2.558593,268.798798 3.317780,277.368011 3.734480,285.924255 
	C3.551777,285.904327 3.184239,285.909241 3.184242,285.909241 
z"/>
<path fill="#E3F171" opacity="1.000000" stroke="none" 
	d="
M281.531342,0.999998 
	C282.348083,1.688941 282.696136,2.377885 283.134857,3.311488 
	C271.126678,3.299260 259.028778,2.960319 246.928589,2.820591 
	C241.003494,2.752170 235.074097,3.053994 229.146652,3.188247 
	C229.656860,2.606044 230.167068,2.023840 230.338638,1.220818 
	C247.020889,1.000000 264.041779,1.000000 281.531342,0.999998 
z"/>
<path fill="#000000" opacity="1.000000" stroke="none" 
	d="
M1.000003,277.250000 
	C1.192083,277.431458 1.384160,277.862946 1.288119,278.147217 
	C1.000000,278.000000 1.000000,277.500000 1.000003,277.250000 
z"/>
<path fill="#000000" opacity="1.000000" stroke="none" 
	d="
M0.999997,236.250000 
	C1.206143,236.275024 1.412291,236.550034 1.309220,236.912521 
	C1.000000,237.000000 1.000000,236.500000 0.999997,236.250000 
z"/>
<path fill="#92C22E" opacity="1.000000" stroke="none" 
	d="
M228.723160,3.098431 
	C235.074097,3.053994 241.003494,2.752170 246.928589,2.820591 
	C259.028778,2.960319 271.126678,3.299260 283.529083,3.373035 
	C291.849640,4.413111 299.864960,5.647683 307.884003,6.857263 
	C328.625122,9.985828 347.915222,17.501125 367.182526,26.829788 
	C368.423645,27.553413 369.259949,27.760752 370.096222,27.968088 
	C370.273712,27.971369 370.451233,27.974651 371.034241,28.219614 
	C371.746002,28.518026 371.964813,28.687799 372.096100,28.970610 
	C372.272949,28.973295 372.449768,28.975981 373.031494,29.222404 
	C373.744507,29.523342 373.967316,29.692856 374.104889,29.974691 
	C374.278809,29.975639 374.452759,29.976589 375.027039,30.225071 
	C375.736572,30.532019 375.966644,30.700058 376.117523,30.976723 
	C376.287476,30.975979 376.457397,30.975233 377.021484,31.227711 
	C377.727234,31.544025 377.966766,31.710768 378.134247,31.981157 
	C378.134247,31.981157 378.625732,31.970367 378.993835,32.237381 
	C379.640961,32.624058 379.877197,32.800922 380.070679,33.034992 
	C380.070679,33.034992 379.960266,32.970764 380.042053,33.259018 
	C380.861511,34.188496 381.537354,34.923576 382.346344,35.456612 
	C391.784332,41.675114 401.225098,47.889946 410.715057,54.028564 
	C412.034698,54.882179 413.622925,55.320599 415.086792,55.951225 
	C415.086792,55.951225 415.018524,55.970997 415.038727,56.292267 
	C416.734100,57.725811 418.409241,58.838089 420.084381,59.950371 
	C420.084381,59.950378 420.012970,59.960064 420.017517,60.281174 
	C422.375214,62.384590 424.728394,64.166885 427.081543,65.949196 
	C427.081543,65.949203 427.018036,65.919189 426.996918,66.247780 
	C433.037354,72.888542 439.071503,79.227539 445.196899,85.477165 
	C445.919342,86.214294 447.142242,86.460922 448.133148,86.934937 
	C448.133148,86.934929 448.081085,86.981918 448.002197,87.311241 
	C449.984009,89.745461 452.044769,91.850357 454.105530,93.955246 
	C454.105530,93.955238 454.040985,93.988503 453.980347,94.314339 
	C455.313385,96.082024 456.707031,97.523872 458.100677,98.965714 
	C458.100677,98.965721 458.031403,98.982391 457.975525,99.311218 
	C458.133728,100.258621 458.233093,100.951538 458.578735,101.484833 
	C465.658142,112.407822 472.750305,123.322670 479.900818,134.199097 
	C480.397156,134.954025 481.369141,135.396240 482.119934,135.983871 
	C482.119934,135.983871 482.009033,136.032898 482.151367,136.128387 
	C482.391327,136.520187 482.571198,136.752823 482.833344,136.921783 
	C482.833344,136.921783 483.028778,137.372208 483.188141,137.772552 
	C483.415619,138.478745 483.575684,138.724655 483.827759,138.910629 
	C483.893799,139.064728 483.959808,139.218811 484.190369,139.771698 
	C484.425415,140.469528 484.581696,140.713547 484.823730,140.902557 
	C484.890686,141.059296 484.957642,141.216019 485.192200,141.771957 
	C485.431763,142.466370 485.586151,142.708984 485.823029,142.899048 
	C485.890625,143.056870 485.958191,143.214706 486.049622,144.006485 
	C486.135681,145.390930 486.197876,146.141403 485.996338,147.130600 
	C486.294098,149.857559 486.678131,152.403748 487.466064,154.818100 
	C488.287598,157.335510 489.742645,159.661880 490.409271,162.205811 
	C490.648834,163.119995 489.406586,165.386887 488.829132,165.390915 
	C485.598297,165.413452 482.361908,164.952560 479.131348,164.618698 
	C473.595184,164.046555 468.038849,162.531815 462.824219,166.227493 
	C461.635437,167.069977 459.639709,166.946152 458.011719,166.965973 
	C451.759491,167.042068 445.505524,167.025406 439.252838,166.971039 
	C437.945038,166.959671 436.182434,167.120880 435.409424,166.384171 
	C431.102264,162.279083 426.768402,164.795105 422.296844,165.765152 
	C420.252045,166.208755 417.981628,165.779785 415.835602,165.544846 
	C413.424438,165.280884 410.176270,163.601089 408.792328,164.605057 
	C403.208557,168.655838 398.180084,166.011627 392.780334,164.721420 
	C389.824463,164.015182 385.958160,163.386658 383.596680,164.696289 
	C378.557983,167.490677 373.201538,165.137100 368.235291,166.835327 
	C367.312897,167.150757 365.883484,165.882095 364.655457,165.433914 
	C363.434601,164.988358 361.732849,163.937088 360.998230,164.386795 
	C355.157379,167.962372 349.214233,164.983551 343.342133,165.012863 
	C341.850586,165.020309 340.129395,164.729202 338.906677,165.349670 
	C331.808594,168.951767 324.599884,164.327484 317.509491,165.823257 
	C317.096680,165.910370 316.533112,165.598923 316.124237,165.339661 
	C312.233429,162.872696 310.716797,165.063690 309.468689,168.397980 
	C302.633209,165.771835 296.153168,163.262527 289.343292,160.625488 
	C295.845093,151.798752 302.241943,143.113785 308.640106,134.429764 
	C309.232117,133.626251 309.851898,132.842514 310.425720,132.026367 
	C312.874023,128.544067 312.980225,125.170280 309.584320,122.276230 
	C306.537079,119.679314 302.429230,120.361031 299.622192,124.088860 
	C291.916199,134.322647 284.277557,144.609467 276.784821,154.999756 
	C275.004395,157.468750 273.155060,158.059601 270.145477,157.990143 
	C261.527893,157.791168 252.875336,157.863358 244.283386,158.480820 
	C241.338196,158.692474 239.763931,158.152069 238.122421,155.890823 
	C230.694443,145.658508 223.147552,135.512222 215.608368,125.361023 
	C212.060776,120.584305 208.220581,119.499275 204.729279,122.174255 
	C201.222214,124.861305 201.276108,128.535492 204.929626,133.507416 
	C210.643372,141.283035 216.378815,149.042694 222.089966,156.820206 
	C223.319687,158.494827 224.485092,160.216690 225.835648,162.138046 
	C220.146301,164.408646 215.079025,166.430984 209.969269,168.075882 
	C208.741730,164.248001 207.106918,163.317093 203.619339,165.582672 
	C201.763321,166.788345 198.942535,166.656982 196.535904,166.826706 
	C193.947174,167.009293 191.333344,166.849838 188.730713,166.818481 
	C181.991821,166.737259 174.627899,168.294235 168.706024,166.050217 
	C163.691650,164.150101 160.450989,165.501266 157.019302,167.299194 
	C154.252106,168.748962 152.272186,168.821747 150.400299,166.763779 
	C147.914505,164.030853 145.263779,163.743317 141.852798,164.717300 
	C138.806244,165.587204 134.813217,167.114670 132.519272,165.910614 
	C125.349030,162.147095 118.829575,165.942566 112.043594,166.214630 
	C103.678902,166.550018 95.301025,166.557098 86.928688,166.696930 
	C86.773605,166.699524 86.603554,166.610535 86.462402,166.527161 
	C80.020996,162.722443 72.903358,165.235519 66.160843,164.732574 
	C59.583668,164.241943 52.849934,166.435394 46.148254,166.834290 
	C41.227970,167.127136 36.242588,166.136002 31.296795,166.236694 
	C24.450558,166.376053 22.746576,163.647461 25.331812,157.083527 
	C26.706364,153.593521 26.990763,149.674179 27.865494,145.594086 
	C28.957680,142.466019 29.951614,139.692490 30.945549,136.918945 
	C30.945547,136.918945 30.976246,136.991623 31.303612,137.022751 
	C33.739117,133.007050 35.847256,128.960220 37.955391,124.913383 
	C37.955395,124.913383 37.977097,124.979759 38.303261,124.957581 
	C39.404083,123.262321 40.178745,121.589241 40.953407,119.916153 
	C40.953407,119.916153 40.978222,119.982384 41.309498,119.972557 
	C42.078342,118.946716 42.515911,117.930695 42.953480,116.914680 
	C42.953480,116.914680 42.978489,116.980331 43.307289,116.963844 
	C44.075272,115.936378 44.514454,114.925400 44.953636,113.914421 
	C44.953636,113.914421 44.977806,113.980545 45.307709,113.966614 
	C46.075466,112.941109 46.513325,111.929520 46.951180,110.917931 
	C46.951180,110.917931 46.978638,110.985374 47.293171,110.989998 
	C50.389965,106.967239 53.172226,102.939857 55.954491,98.912476 
	C55.954491,98.912476 55.977242,98.978455 56.300362,98.949982 
	C57.397396,97.587212 58.171307,96.252899 58.945213,94.918587 
	C58.945213,94.918587 58.980453,94.982956 59.246540,94.963486 
	C59.665897,94.600014 59.819168,94.256020 59.972439,93.912025 
	C59.972439,93.912025 59.976433,93.981438 60.296829,93.972595 
	C62.061325,91.948578 63.505432,89.933395 64.949539,87.918213 
	C64.949532,87.918213 64.979156,87.986145 65.313248,87.997063 
	C66.409889,86.644768 67.172424,85.281563 67.934967,83.918350 
	C67.934967,83.918350 67.984879,83.982605 68.257553,83.976990 
	C68.672920,83.617203 68.815613,83.263039 68.958305,82.908867 
	C68.958305,82.908867 68.977295,82.977394 69.253082,82.971649 
	C69.672340,82.613602 69.815811,82.261307 69.959290,81.909012 
	C69.959282,81.909012 69.977379,81.977470 70.252731,81.970886 
	C70.672035,81.612595 70.815979,81.260887 70.959930,80.909180 
	C70.959930,80.909180 70.979103,80.989693 71.211288,81.068741 
	C71.630913,81.128532 71.818336,81.109283 72.275322,80.899887 
	C72.675606,80.112137 72.806335,79.514549 72.937057,78.916954 
	C72.937057,78.916954 72.985283,78.979034 73.256470,78.971031 
	C73.671379,78.611778 73.815094,78.260536 73.958801,77.909286 
	C73.958801,77.909286 73.977631,77.977730 74.252762,77.970619 
	C74.671463,77.612076 74.815033,77.260651 74.958611,76.909218 
	C74.958611,76.909218 74.983322,76.984543 75.312042,77.060898 
	C77.407356,75.064079 79.173950,72.990913 80.940536,70.917740 
	C80.940536,70.917740 80.982941,70.982918 81.255646,70.973541 
	C81.671494,70.612434 81.814651,70.260689 81.957809,69.908951 
	C81.957809,69.908951 81.977448,69.977562 82.253326,69.971619 
	C82.671768,69.613297 82.814339,69.260918 82.956909,68.908531 
	C82.956909,68.908531 82.977226,68.977325 83.254089,68.972717 
	C83.672279,68.614677 83.813614,68.261238 83.954941,67.907799 
	C83.954948,67.907799 83.982910,67.986443 84.312378,68.069946 
	C85.745094,67.067314 86.848343,65.981186 87.951591,64.895050 
	C87.951591,64.895050 87.991707,64.956673 88.316406,65.022072 
	C90.414925,63.359413 92.188736,61.631359 93.962555,59.903305 
	C93.962555,59.903309 93.982201,59.970402 94.247589,59.951126 
	C94.663368,59.590977 94.813759,59.250103 94.964149,58.909225 
	C94.964149,58.909225 94.983192,58.981247 95.309967,59.045868 
	C96.748428,58.042809 97.860115,56.975124 98.971802,55.907440 
	C98.971802,55.907444 98.978584,55.977200 99.309067,56.025902 
	C104.415016,52.352203 109.190483,48.629807 113.965958,44.907410 
	C113.965958,44.907413 113.982246,44.976917 114.320511,45.031761 
	C121.423317,41.043930 128.187866,37.001259 134.952408,32.958588 
	C145.242645,27.974848 155.173065,21.943251 165.908798,18.256950 
	C181.383636,12.943398 197.403946,9.180330 213.277191,5.088056 
	C218.140167,3.834335 223.284286,3.671180 228.723160,3.098431 
z"/>
<path fill="#97C32E" opacity="1.000000" stroke="none" 
	d="
M27.767241,145.948624 
	C26.990763,149.674179 26.706364,153.593521 25.331812,157.083527 
	C22.746576,163.647461 24.450558,166.376053 31.296795,166.236694 
	C36.242588,166.136002 41.227970,167.127136 46.148254,166.834290 
	C52.849934,166.435394 59.583668,164.241943 66.160843,164.732574 
	C72.903358,165.235519 80.020996,162.722443 86.462402,166.527161 
	C86.603554,166.610535 86.773605,166.699524 86.928688,166.696930 
	C95.301025,166.557098 103.678902,166.550018 112.043594,166.214630 
	C118.829575,165.942566 125.349030,162.147095 132.519272,165.910614 
	C134.813217,167.114670 138.806244,165.587204 141.852798,164.717300 
	C145.263779,163.743317 147.914505,164.030853 150.400299,166.763779 
	C152.272186,168.821747 154.252106,168.748962 157.019302,167.299194 
	C160.450989,165.501266 163.691650,164.150101 168.706024,166.050217 
	C174.627899,168.294235 181.991821,166.737259 188.730713,166.818481 
	C191.333344,166.849838 193.947174,167.009293 196.535904,166.826706 
	C198.942535,166.656982 201.763321,166.788345 203.619339,165.582672 
	C207.106918,163.317093 208.741730,164.248001 209.736435,168.295441 
	C207.238708,169.959702 204.931320,171.026978 202.317902,172.197052 
	C201.684021,172.569901 201.356201,172.839935 201.036560,173.074493 
	C201.044724,173.039017 201.111023,173.069122 200.791260,173.116684 
	C200.019730,173.581680 199.567963,173.999115 199.187073,174.579727 
	C199.345581,174.999619 199.286636,175.216522 199.194366,175.699097 
	C199.593155,176.324203 199.878677,176.643799 200.115692,176.950592 
	C200.067169,176.937790 200.101562,176.843521 200.153107,177.184418 
	C200.676208,177.981583 201.147781,178.437851 201.864990,179.102661 
	C207.148468,188.431244 215.184097,194.294327 224.026108,199.169876 
	C234.470932,204.929184 245.855301,208.098862 257.641266,208.654144 
	C265.579926,209.028168 273.401855,206.661087 280.992767,203.940765 
	C293.990906,199.282654 304.372192,191.073868 313.728821,180.738342 
	C314.380402,179.946472 314.703857,179.315567 315.049500,178.544174 
	C315.071625,178.403687 315.291962,178.216965 315.291962,178.216965 
	C315.291962,178.216965 315.574554,178.277298 315.842804,178.042053 
	C316.391876,177.179382 316.672699,176.551941 316.974426,175.950836 
	C316.995361,175.977173 316.928101,175.974930 317.152100,175.775925 
	C317.546875,175.217560 317.717682,174.858200 317.905823,174.245178 
	C317.955933,173.658295 317.988708,173.325058 318.102020,172.817993 
	C317.750885,172.455673 317.319244,172.267197 316.919128,172.060333 
	C316.950653,172.041946 316.972260,172.111679 316.751678,171.873932 
	C316.138428,171.458084 315.745789,171.279999 315.042023,171.106812 
	C313.095337,170.246063 311.459717,169.380432 309.824127,168.514801 
	C310.716797,165.063690 312.233429,162.872696 316.124237,165.339661 
	C316.533112,165.598923 317.096680,165.910370 317.509491,165.823257 
	C324.599884,164.327484 331.808594,168.951767 338.906677,165.349670 
	C340.129395,164.729202 341.850586,165.020309 343.342133,165.012863 
	C349.214233,164.983551 355.157379,167.962372 360.998230,164.386795 
	C361.732849,163.937088 363.434601,164.988358 364.655457,165.433914 
	C365.883484,165.882095 367.312897,167.150757 368.235291,166.835327 
	C373.201538,165.137100 378.557983,167.490677 383.596680,164.696289 
	C385.958160,163.386658 389.824463,164.015182 392.780334,164.721420 
	C398.180084,166.011627 403.208557,168.655838 408.792328,164.605057 
	C410.176270,163.601089 413.424438,165.280884 415.835602,165.544846 
	C417.981628,165.779785 420.252045,166.208755 422.296844,165.765152 
	C426.768402,164.795105 431.102264,162.279083 435.409424,166.384171 
	C436.182434,167.120880 437.945038,166.959671 439.252838,166.971039 
	C445.505524,167.025406 451.759491,167.042068 458.011719,166.965973 
	C459.639709,166.946152 461.635437,167.069977 462.824219,166.227493 
	C468.038849,162.531815 473.595184,164.046555 479.131348,164.618698 
	C482.361908,164.952560 485.598297,165.413452 488.829132,165.390915 
	C489.406586,165.386887 490.648834,163.119995 490.409271,162.205811 
	C489.742645,159.661880 488.287598,157.335510 487.466064,154.818100 
	C486.678131,152.403748 486.294098,149.857559 486.255096,147.130890 
	C487.126434,146.903595 487.475220,146.914719 487.824036,146.925842 
	C487.824036,146.925842 488.025360,147.377563 488.037659,147.974167 
	C488.627380,149.664810 489.204773,150.758850 489.782166,151.852890 
	C489.855957,152.032700 489.929749,152.212509 490.200775,152.779785 
	C490.496979,153.414734 490.628113,153.643799 490.791412,153.854431 
	C490.863739,154.028290 490.936096,154.202164 491.194946,154.775879 
	C491.472900,155.441071 491.614838,155.675934 491.807220,155.880264 
	C491.877655,156.042450 491.948090,156.204651 492.041016,156.981506 
	C492.641357,158.689926 493.219238,159.783676 493.797089,160.877411 
	C493.869202,161.042816 493.941345,161.208221 494.046265,162.018387 
	C494.988525,164.407898 495.898071,166.152649 496.807587,167.897415 
	C496.875549,168.061737 496.943542,168.226044 496.864136,168.923035 
	C498.477112,174.948029 500.237518,180.440353 501.997864,185.932678 
	C502.584381,187.390839 503.170898,188.848999 503.557831,190.835938 
	C503.402954,193.241348 503.235382,195.152039 503.530273,196.988480 
	C504.603577,203.672424 505.831543,210.331512 506.656555,217.089096 
	C504.687866,218.441559 503.120575,220.712326 501.430756,220.807495 
	C488.907410,221.512695 476.360748,222.035522 463.819153,222.089294 
	C457.445374,222.116623 451.070374,220.658661 444.689545,220.603195 
	C439.016510,220.553864 433.334290,221.509354 427.656860,222.029205 
	C424.866608,222.284698 422.053711,222.935562 419.292786,222.758240 
	C406.971100,221.966827 394.676300,220.573364 382.346710,220.177551 
	C377.268280,220.014511 371.281769,220.153732 369.159546,226.902878 
	C368.991730,227.436478 367.781525,227.642303 366.861053,227.701553 
	C359.260895,211.213211 349.160553,197.014969 334.951996,185.076065 
	C322.792633,205.411819 304.647461,218.237457 281.786926,224.771759 
	C281.102356,223.556015 277.256287,226.233215 279.184052,222.405457 
	C279.347321,222.081253 278.475769,220.717545 277.996368,220.666382 
	C271.587311,219.982162 265.163055,219.438675 258.739319,218.899017 
	C258.479126,218.877151 258.203918,219.361572 257.906677,219.403305 
	C254.367325,219.900269 250.811157,220.804306 247.281845,220.714890 
	C242.696381,220.598724 238.131104,219.684418 234.279022,219.203720 
	C233.588486,221.549713 233.181305,222.933014 232.824493,224.292557 
	C232.874832,224.268799 232.892822,224.378693 232.657486,224.055573 
	C231.397995,223.542007 230.373825,223.351532 229.268768,223.233063 
	C229.187851,223.305069 229.022003,223.165741 228.939819,223.016937 
	C228.573822,222.889999 228.290009,222.911880 227.634949,222.962219 
	C208.271561,215.964630 194.144821,202.752594 182.025284,186.641373 
	C171.565170,196.293655 163.464996,207.027313 156.560303,218.930603 
	C148.168106,217.908585 140.165802,216.910461 132.148880,216.047989 
	C130.881241,215.911591 129.095291,215.913132 128.316467,216.655792 
	C122.240982,222.449127 114.961685,213.534012 108.903183,218.371750 
	C108.843056,218.419754 108.610168,218.251556 108.458000,218.184143 
	C100.126877,214.491943 91.829590,216.850174 83.471291,218.146271 
	C80.469124,218.611801 77.320831,218.202744 74.242836,218.092407 
	C71.161102,217.981949 68.085899,217.652878 65.004211,217.585510 
	C59.396820,217.462891 53.783176,217.569138 48.178822,217.380997 
	C42.949291,217.205444 37.514385,215.701050 32.552158,216.693314 
	C24.385654,218.326324 16.748329,217.592361 9.297813,215.545547 
	C8.794281,213.394043 8.397106,211.696991 8.001900,209.579590 
	C8.040767,205.778839 8.077664,202.398392 8.114563,199.017960 
	C12.069127,186.585831 15.935005,174.124405 20.028158,161.738083 
	C21.392172,157.610413 23.338366,153.675140 25.395937,149.213013 
	C26.438047,147.832291 27.102642,146.890457 27.767241,145.948624 
z"/>
<path fill="#A1C631" opacity="1.000000" stroke="none" 
	d="
M7.920604,199.363861 
	C8.077664,202.398392 8.040767,205.778839 7.757801,209.882812 
	C6.277556,216.776108 5.043380,222.945862 3.809203,229.115631 
	C3.809203,229.115631 3.504203,229.149429 3.351388,229.135651 
	C4.707932,219.317825 6.217289,209.513794 7.920604,199.363861 
z"/>
<path fill="#E0EF6E" opacity="1.000000" stroke="none" 
	d="
M134.561340,33.001732 
	C128.187866,37.001259 121.423317,41.043930 114.287216,45.018883 
	C120.667198,40.982399 127.418732,37.013638 134.561340,33.001732 
z"/>
<path fill="#E0EF6E" opacity="1.000000" stroke="none" 
	d="
M113.602432,44.945374 
	C109.190483,48.629807 104.415016,52.352203 99.276169,56.013817 
	C103.688164,52.296471 108.463539,48.639904 113.602432,44.945374 
z"/>
<path fill="#E2F070" opacity="1.000000" stroke="none" 
	d="
M55.628090,99.023682 
	C53.172226,102.939857 50.389965,106.967239 47.258804,110.977982 
	C49.707161,107.019196 52.504421,103.077042 55.628090,99.023682 
z"/>
<path fill="#E2F070" opacity="1.000000" stroke="none" 
	d="
M37.620689,125.031433 
	C35.847256,128.960220 33.739117,133.007050 31.269733,137.002533 
	C33.034321,133.017303 35.160156,129.083389 37.620689,125.031433 
z"/>
<path fill="#E2F070" opacity="1.000000" stroke="none" 
	d="
M27.865490,145.594086 
	C27.102642,146.890457 26.438047,147.832291 25.480263,148.838379 
	C26.881512,144.989319 28.575951,141.076004 30.607967,137.040817 
	C29.951614,139.692490 28.957680,142.466019 27.865490,145.594086 
z"/>
<path fill="#E0EF6E" opacity="1.000000" stroke="none" 
	d="
M80.623550,71.020172 
	C79.173950,72.990913 77.407356,75.064079 75.279846,77.037773 
	C76.714806,74.999733 78.510681,73.061172 80.623550,71.020172 
z"/>
<path fill="#E2F070" opacity="1.000000" stroke="none" 
	d="
M64.627838,88.025398 
	C63.505432,89.933395 62.061325,91.948578 60.262817,93.965401 
	C61.374317,92.022224 62.840221,90.077400 64.627838,88.025398 
z"/>
<path fill="#E0EF6E" opacity="1.000000" stroke="none" 
	d="
M93.614761,59.941772 
	C92.188736,61.631359 90.414925,63.359413 88.279877,65.017944 
	C89.701424,63.292358 91.484200,61.636299 93.614761,59.941772 
z"/>
<path fill="#E2F070" opacity="1.000000" stroke="none" 
	d="
M40.621986,120.030121 
	C40.178745,121.589241 39.404083,123.262321 38.268570,124.953606 
	C38.702003,123.362564 39.496284,121.753334 40.621986,120.030121 
z"/>
<path fill="#E2F070" opacity="1.000000" stroke="none" 
	d="
M67.614830,84.023552 
	C67.172424,85.281563 66.409889,86.644768 65.278709,87.983643 
	C65.704948,86.682457 66.499817,85.405609 67.614830,84.023552 
z"/>
<path fill="#E0EF6E" opacity="1.000000" stroke="none" 
	d="
M87.613556,64.928635 
	C86.848343,65.981186 85.745094,67.067314 84.280075,68.043518 
	C85.037369,66.943138 86.156441,65.952675 87.613556,64.928635 
z"/>
<path fill="#E0EF6E" opacity="1.000000" stroke="none" 
	d="
M98.632263,55.949875 
	C97.860115,56.975124 96.748428,58.042809 95.277817,59.027069 
	C96.043495,57.959866 97.168114,56.976089 98.632263,55.949875 
z"/>
<path fill="#E2F070" opacity="1.000000" stroke="none" 
	d="
M58.623631,95.024796 
	C58.171307,96.252899 57.397396,97.587212 56.265549,98.947678 
	C56.705753,97.692902 57.503899,96.411957 58.623631,95.024796 
z"/>
<path fill="#E2F070" opacity="1.000000" stroke="none" 
	d="
M44.635078,114.018738 
	C44.514454,114.925400 44.075272,115.936378 43.272583,116.958405 
	C43.378223,116.020645 43.847370,115.071846 44.635078,114.018738 
z"/>
<path fill="#E2F070" opacity="1.000000" stroke="none" 
	d="
M42.634628,117.017654 
	C42.515911,117.930695 42.078342,118.946716 41.274982,119.964844 
	C41.378056,119.018181 41.846920,118.069405 42.634628,117.017654 
z"/>
<path fill="#E2F070" opacity="1.000000" stroke="none" 
	d="
M46.632446,111.020279 
	C46.513325,111.929520 46.075466,112.941109 45.273026,113.960587 
	C45.376869,113.019859 45.845291,112.071243 46.632446,111.020279 
z"/>
<path fill="#E0EF6E" opacity="1.000000" stroke="none" 
	d="
M72.691177,78.968765 
	C72.806335,79.514549 72.675606,80.112137 72.261253,80.587708 
	C71.965118,80.258492 71.952606,80.051308 71.940094,79.844116 
	C72.108490,79.569603 72.276886,79.295090 72.691177,78.968765 
z"/>
<path fill="#E2F070" opacity="1.000000" stroke="none" 
	d="
M68.691162,82.971924 
	C68.815613,83.263039 68.672920,83.617203 68.218903,83.964294 
	C68.079727,83.649803 68.251877,83.342392 68.691162,82.971924 
z"/>
<path fill="#E2F070" opacity="1.000000" stroke="none" 
	d="
M59.702435,93.974258 
	C59.819168,94.256020 59.665897,94.600014 59.210884,94.954834 
	C59.083569,94.655930 59.257999,94.346214 59.702435,93.974258 
z"/>
<path fill="#E2F070" opacity="1.000000" stroke="none" 
	d="
M69.691895,81.972702 
	C69.815811,82.261307 69.672340,82.613602 69.218697,82.962601 
	C69.080513,82.651665 69.252502,82.344025 69.691895,81.972702 
z"/>
<path fill="#E2F070" opacity="1.000000" stroke="none" 
	d="
M70.692719,80.973373 
	C70.815979,81.260887 70.672035,81.612595 70.218414,81.962204 
	C70.080994,81.652596 70.253250,81.345085 70.692719,80.973373 
z"/>
<path fill="#E2F070" opacity="1.000000" stroke="none" 
	d="
M71.686188,79.935310 
	C71.952606,80.051308 71.965118,80.258492 71.991699,80.777863 
	C71.818336,81.109283 71.630913,81.128532 71.182610,81.038910 
	C71.091919,80.628845 71.262100,80.327675 71.686188,79.935310 
z"/>
<path fill="#E0EF6E" opacity="1.000000" stroke="none" 
	d="
M73.691742,77.973351 
	C73.815094,78.260536 73.671379,78.611778 73.218376,78.961365 
	C73.080948,78.652267 73.252815,78.344841 73.691742,77.973351 
z"/>
<path fill="#E0EF6E" opacity="1.000000" stroke="none" 
	d="
M74.691528,76.973206 
	C74.815033,77.260651 74.671463,77.612076 74.218460,77.961502 
	C74.080833,77.652061 74.252640,77.344627 74.691528,76.973206 
z"/>
<path fill="#E0EF6E" opacity="1.000000" stroke="none" 
	d="
M81.690384,69.972298 
	C81.814651,70.260689 81.671494,70.612434 81.218636,70.961624 
	C81.080269,70.651276 81.251610,70.343460 81.690384,69.972298 
z"/>
<path fill="#E0EF6E" opacity="1.000000" stroke="none" 
	d="
M82.689331,68.971512 
	C82.814339,69.260918 82.671768,69.613297 82.218948,69.962036 
	C82.079720,69.650429 82.250740,69.342461 82.689331,68.971512 
z"/>
<path fill="#E0EF6E" opacity="1.000000" stroke="none" 
	d="
M83.687790,67.970688 
	C83.813614,68.261238 83.672279,68.614677 83.219635,68.962753 
	C83.079086,68.649452 83.249855,68.341515 83.687790,67.970688 
z"/>
<path fill="#E0EF6E" opacity="1.000000" stroke="none" 
	d="
M94.694687,58.973793 
	C94.813759,59.250103 94.663368,59.590977 94.212646,59.952072 
	C94.083282,59.660980 94.254257,59.349670 94.694687,58.973793 
z"/>
<path fill="#9FC531" opacity="1.000000" stroke="none" 
	d="
M507.001221,216.999985 
	C505.831543,210.331512 504.603577,203.672424 503.530273,196.988480 
	C503.235382,195.152039 503.402954,193.241348 503.620514,191.191406 
	C506.253448,203.083725 508.624176,215.149368 510.905029,227.654083 
	C510.815186,228.093155 510.452637,228.100464 510.011719,227.797409 
	C508.714294,223.996231 507.857758,220.498108 507.001221,216.999985 
z"/>
<path fill="#DEEE6D" opacity="1.000000" stroke="none" 
	d="
M482.027527,135.613907 
	C481.369141,135.396240 480.397156,134.954025 479.900818,134.199097 
	C472.750305,123.322670 465.658142,112.407822 458.578735,101.484833 
	C458.233093,100.951538 458.133728,100.258621 457.984344,99.276703 
	C463.785492,106.810295 469.697479,114.587891 475.182922,122.655502 
	C477.845581,126.571571 479.709595,131.030685 482.027527,135.613907 
z"/>
<path fill="#DEEE6D" opacity="1.000000" stroke="none" 
	d="
M414.977936,55.624031 
	C413.622925,55.320599 412.034698,54.882179 410.715057,54.028564 
	C401.225098,47.889946 391.784332,41.675114 382.346344,35.456612 
	C381.537354,34.923576 380.861511,34.188496 380.072754,33.203022 
	C384.786560,35.467777 389.745422,37.781364 394.271362,40.754139 
	C401.292297,45.365700 408.018127,50.426487 414.977936,55.624031 
z"/>
<path fill="#DEEE6D" opacity="1.000000" stroke="none" 
	d="
M448.089355,86.584175 
	C447.142242,86.460922 445.919342,86.214294 445.196899,85.477165 
	C439.071503,79.227539 433.037354,72.888542 427.020020,66.221344 
	C428.734863,67.080368 430.608826,68.093742 432.039917,69.544144 
	C437.453003,75.030380 442.722382,80.658417 448.089355,86.584175 
z"/>
<path fill="#DEEE6D" opacity="1.000000" stroke="none" 
	d="
M502.083313,185.590714 
	C500.237518,180.440353 498.477112,174.948029 496.898438,169.187576 
	C498.776337,174.362534 500.472504,179.805649 502.083313,185.590714 
z"/>
<path fill="#DEEE6D" opacity="1.000000" stroke="none" 
	d="
M454.066406,93.605255 
	C452.044769,91.850357 449.984009,89.745461 447.987244,87.279541 
	C450.043243,89.030762 452.035278,91.143021 454.066406,93.605255 
z"/>
<path fill="#DEEE6D" opacity="1.000000" stroke="none" 
	d="
M426.976288,65.627197 
	C424.728394,64.166885 422.375214,62.384590 420.032227,60.248299 
	C422.318634,61.697937 424.594818,63.501568 426.976288,65.627197 
z"/>
<path fill="#DEEE6D" opacity="1.000000" stroke="none" 
	d="
M419.979797,59.626930 
	C418.409241,58.838089 416.734100,57.725811 415.045959,56.257469 
	C416.647064,57.035435 418.261139,58.169464 419.979797,59.626930 
z"/>
<path fill="#DEEE6D" opacity="1.000000" stroke="none" 
	d="
M458.056763,98.621353 
	C456.707031,97.523872 455.313385,96.082024 453.984985,94.278336 
	C455.371124,95.369995 456.691986,96.823494 458.056763,98.621353 
z"/>
<path fill="#DEEE6D" opacity="1.000000" stroke="none" 
	d="
M496.715027,167.565765 
	C495.898071,166.152649 494.988525,164.407898 494.055786,162.288910 
	C494.895874,163.687820 495.759186,165.460983 496.715027,167.565765 
z"/>
<path fill="#DEEE6D" opacity="1.000000" stroke="none" 
	d="
M489.825470,151.522141 
	C489.204773,150.758850 488.627380,149.664810 488.037170,148.221451 
	C488.639160,148.978546 489.253967,150.084961 489.825470,151.522141 
z"/>
<path fill="#DEEE6D" opacity="1.000000" stroke="none" 
	d="
M493.836792,160.545349 
	C493.219238,159.783676 492.641357,158.689926 492.046783,157.246689 
	C492.645538,158.002563 493.261047,159.107925 493.836792,160.545349 
z"/>
<path fill="#DEEE6D" opacity="1.000000" stroke="none" 
	d="
M487.761414,146.622070 
	C487.475220,146.914719 487.126434,146.903595 486.518860,146.892181 
	C486.197876,146.141403 486.135681,145.390930 486.051270,144.264023 
	C486.585663,144.697830 487.142212,145.508057 487.761414,146.622070 
z"/>
<path fill="#DEEE6D" opacity="1.000000" stroke="none" 
	d="
M369.917053,27.675295 
	C369.259949,27.760752 368.423645,27.553413 367.319580,27.164680 
	C367.947174,27.116358 368.842499,27.249430 369.917053,27.675295 
z"/>
<path fill="#DEEE6D" opacity="1.000000" stroke="none" 
	d="
M491.794189,155.654388 
	C491.614838,155.675934 491.472900,155.441071 491.208649,155.058014 
	C491.341492,155.015762 491.589935,155.178467 491.794189,155.654388 
z"/>
<path fill="#DEEE6D" opacity="1.000000" stroke="none" 
	d="
M490.778870,153.638824 
	C490.628113,153.643799 490.496979,153.414734 490.222382,153.070557 
	C490.343079,153.033234 490.582916,153.183014 490.778870,153.638824 
z"/>
<path fill="#DEEE6D" opacity="1.000000" stroke="none" 
	d="
M485.808716,142.661591 
	C485.586151,142.708984 485.431763,142.466370 485.191650,142.027588 
	C485.333710,141.988037 485.590668,142.168076 485.808716,142.661591 
z"/>
<path fill="#DEEE6D" opacity="1.000000" stroke="none" 
	d="
M484.809753,140.663132 
	C484.581696,140.713547 484.425415,140.469528 484.187561,140.023163 
	C484.331390,139.983887 484.589905,140.166519 484.809753,140.663132 
z"/>
<path fill="#DEEE6D" opacity="1.000000" stroke="none" 
	d="
M483.814453,138.667694 
	C483.575684,138.724655 483.415619,138.478745 483.182739,138.017975 
	C483.331543,137.977097 483.592621,138.164337 483.814453,138.667694 
z"/>
<path fill="#DEEE6D" opacity="1.000000" stroke="none" 
	d="
M482.818298,136.672073 
	C482.571198,136.752823 482.391327,136.520187 482.125549,136.073532 
	C482.239349,136.089569 482.521332,136.255966 482.818298,136.672073 
z"/>
<path fill="#DEEE6D" opacity="1.000000" stroke="none" 
	d="
M374.002594,29.764885 
	C373.967316,29.692856 373.744507,29.523342 373.276306,29.324669 
	C373.475647,29.100330 373.737030,29.224293 374.002594,29.764885 
z"/>
<path fill="#DEEE6D" opacity="1.000000" stroke="none" 
	d="
M371.996460,28.761936 
	C371.964813,28.687799 371.746002,28.518026 371.279846,28.322647 
	C371.476074,28.102709 371.735016,28.225796 371.996460,28.761936 
z"/>
<path fill="#DEEE6D" opacity="1.000000" stroke="none" 
	d="
M376.011322,30.765038 
	C375.966644,30.700058 375.736572,30.532019 375.267700,30.325809 
	C375.472534,30.093399 375.738220,30.218178 376.011322,30.765038 
z"/>
<path fill="#DEEE6D" opacity="1.000000" stroke="none" 
	d="
M378.022705,31.766882 
	C377.966766,31.710768 377.727234,31.544025 377.256226,31.327118 
	C377.468292,31.085003 377.739746,31.211439 378.022705,31.766882 
z"/>
<path fill="#DEEE6D" opacity="1.000000" stroke="none" 
	d="
M379.993896,32.796509 
	C379.877197,32.800922 379.640961,32.624058 379.220032,32.333557 
	C379.357819,32.294491 379.637482,32.426254 379.993896,32.796509 
z"/>
<path fill="#A9C833" opacity="1.000000" stroke="none" 
	d="
M284.496094,511.066895 
	C281.338715,511.054169 278.626526,510.949249 275.916260,510.985565 
	C256.532654,511.244995 237.128937,512.013306 217.916077,508.390656 
	C217.152740,508.246765 216.307617,508.536499 215.204956,508.856537 
	C204.500443,506.734650 194.091599,504.380371 183.185364,501.601471 
	C174.861923,498.119720 167.056213,495.008942 159.199600,492.032532 
	C156.143219,490.874573 152.972031,490.019623 149.853134,489.026703 
	C149.853134,489.026703 149.379745,489.029236 149.149323,488.748962 
	C148.601562,488.345398 148.284225,488.222107 147.966888,488.098785 
	C142.822891,485.432373 137.678894,482.765930 132.104767,479.642334 
	C121.539146,472.258728 111.413994,465.317047 101.242172,458.444366 
	C100.638992,458.036774 99.661057,458.183868 98.857483,458.072906 
	C98.857483,458.072906 98.954872,458.072632 98.936676,457.752319 
	C97.570816,456.648193 96.223137,455.864380 94.875465,455.080597 
	C94.875465,455.080597 94.929405,455.032501 94.903854,454.779419 
	C94.554390,454.358643 94.230469,454.190887 93.906548,454.023163 
	C93.906548,454.023163 93.997284,454.085052 93.978157,453.765808 
	C91.926895,451.991974 89.894768,450.537384 87.862640,449.082825 
	C87.862640,449.082825 87.946053,449.103943 87.976761,448.785614 
	C80.759338,441.051819 73.518150,433.629486 66.234909,426.248688 
	C65.973808,425.984100 65.297546,426.129150 64.814766,426.083313 
	C64.814766,426.083313 64.898407,426.053589 64.975525,425.727661 
	C63.311161,423.622528 61.569687,421.843323 59.828209,420.064148 
	C59.828205,420.064148 59.917652,420.002899 59.895576,419.766541 
	C59.552082,419.363068 59.230663,419.195953 58.909248,419.028809 
	C58.909252,419.028809 58.969646,419.066864 59.021034,418.725464 
	C57.991959,417.273499 56.911495,416.162903 55.831032,415.052307 
	C55.831036,415.052307 55.929012,415.043701 55.989006,414.723663 
	C53.933567,410.974701 51.818130,407.545807 50.148201,404.089874 
	C52.074478,404.212158 53.559956,404.325317 55.035198,404.517120 
	C61.071758,405.301971 67.085648,406.418945 73.146591,406.803528 
	C77.240227,407.063293 81.396355,406.088745 85.528419,406.046326 
	C93.234879,405.967224 100.945427,406.105835 108.651855,406.268311 
	C113.725693,406.375275 118.799355,406.923096 123.865746,406.837555 
	C129.825867,406.736938 136.233856,407.422546 141.615738,405.471954 
	C148.029572,403.147461 153.703430,405.431915 159.682861,405.502136 
	C165.234558,405.567352 170.786407,406.415405 176.328232,406.322784 
	C183.315704,406.206024 190.294266,405.114899 197.274384,405.137939 
	C203.119812,405.157257 209.520187,407.943909 214.670517,406.320007 
	C221.828201,404.063141 228.086838,406.777039 234.685394,406.517487 
	C240.237762,406.299042 246.120346,408.747986 251.545624,404.686005 
	C252.986633,403.607086 256.219971,404.739838 258.586487,405.125946 
	C261.466736,405.595886 264.568878,407.412476 267.101929,406.772858 
	C273.516083,405.153168 279.412781,405.201599 285.993744,406.652069 
	C292.299561,408.041870 299.046509,405.684418 305.895386,406.588165 
	C311.957275,407.388062 318.414368,405.183105 324.699219,404.320770 
	C325.184631,404.254211 325.845154,404.108307 326.158051,404.347504 
	C329.818604,407.146027 333.457520,405.959656 337.689941,405.577057 
	C347.486328,404.691467 357.448425,405.775970 367.344116,405.807556 
	C375.167175,405.832520 382.991333,405.473907 390.815399,405.303711 
	C391.467163,405.289490 392.128937,405.371216 392.774292,405.478729 
	C399.152069,406.541656 405.784088,404.155212 412.051422,406.893188 
	C412.428040,407.057709 413.014099,406.666718 413.505219,406.656586 
	C421.021301,406.501862 428.537659,406.362518 436.054169,406.229950 
	C442.430298,406.117523 448.816162,406.190979 455.178711,405.838867 
	C458.234314,405.669769 461.246063,404.707764 464.218994,404.431152 
	C464.119537,405.197113 464.078735,405.636810 464.037903,406.076477 
	C463.394012,407.204376 462.750122,408.332306 461.628723,409.830566 
	C460.125214,411.848083 459.099121,413.495300 458.073059,415.142517 
	C458.073059,415.142517 458.071289,415.045105 457.752014,415.065491 
	C456.648804,416.431732 455.864838,417.777618 455.080872,419.123505 
	C455.080902,419.123505 455.032379,419.070374 454.778931,419.094727 
	C454.358093,419.443878 454.190704,419.768616 454.023315,420.093353 
	C454.023315,420.093353 454.085785,420.002167 453.767120,420.022888 
	C451.992950,422.075226 450.537415,424.106842 449.081909,426.138428 
	C449.081909,426.138428 449.025879,426.076263 448.782654,426.108276 
	C448.366852,426.456787 448.194244,426.773254 448.021667,427.089722 
	C448.021667,427.089722 448.099884,427.002014 447.785004,427.003479 
	C440.909637,433.306213 434.331512,439.589447 427.823486,445.944489 
	C427.323486,446.432770 427.317688,447.427124 427.082153,448.186279 
	C427.082153,448.186279 427.052856,448.100525 426.728638,448.025940 
	C424.292053,450.026123 422.179626,452.100861 420.067261,454.175598 
	C420.067261,454.175629 420.050201,454.084534 419.726318,454.015472 
	C417.954102,455.354614 416.505768,456.762787 415.057404,458.170990 
	C415.057404,458.170990 415.046234,458.075287 414.724731,458.010498 
	C413.630554,458.225891 412.767731,458.368500 412.098816,458.807007 
	C401.947144,465.461578 391.809113,472.137299 381.712921,478.875458 
	C380.975769,479.367462 380.584381,480.377594 380.032227,481.146851 
	C380.032227,481.146820 379.968933,481.036407 379.849609,481.149902 
	C379.436493,481.377594 379.210083,481.570740 379.051025,481.842834 
	C379.051025,481.842834 378.620117,482.028503 378.210388,482.173309 
	C377.490631,482.398468 377.245453,482.570923 377.065125,482.835449 
	C377.065125,482.835449 376.619995,483.025055 376.210663,483.175934 
	C375.499207,483.408722 375.256775,483.576691 375.074066,483.830750 
	C375.074066,483.830750 374.617126,484.023438 374.039703,484.043762 
	C372.674530,484.645477 371.886810,485.226868 371.099121,485.808289 
	C369.017273,486.881653 366.935425,487.955017 364.094055,489.000824 
	C357.511139,491.177032 351.656952,493.304169 345.881073,495.626099 
	C343.858643,496.439178 342.028809,497.731293 340.111023,498.804626 
	C330.535919,501.548798 321.058441,504.727570 311.356598,506.907745 
	C302.680359,508.857452 293.756653,509.705780 284.496094,511.066895 
z"/>
<path fill="#A3C631" opacity="1.000000" stroke="none" 
	d="
M464.277649,404.104828 
	C461.246063,404.707764 458.234314,405.669769 455.178711,405.838867 
	C448.816162,406.190979 442.430298,406.117523 436.054169,406.229950 
	C428.537659,406.362518 421.021301,406.501862 413.505219,406.656586 
	C413.014099,406.666718 412.428040,407.057709 412.051422,406.893188 
	C405.784088,404.155212 399.152069,406.541656 392.774292,405.478729 
	C392.128937,405.371216 391.467163,405.289490 390.815399,405.303711 
	C382.991333,405.473907 375.167175,405.832520 367.344116,405.807556 
	C357.448425,405.775970 347.486328,404.691467 337.689941,405.577057 
	C333.457520,405.959656 329.818604,407.146027 326.158051,404.347504 
	C325.845154,404.108307 325.184631,404.254211 324.699219,404.320770 
	C318.414368,405.183105 311.957275,407.388062 305.895386,406.588165 
	C299.046509,405.684418 292.299561,408.041870 285.993744,406.652069 
	C279.412781,405.201599 273.516083,405.153168 267.101929,406.772858 
	C264.568878,407.412476 261.466736,405.595886 258.586487,405.125946 
	C256.219971,404.739838 252.986633,403.607086 251.545624,404.686005 
	C246.120346,408.747986 240.237762,406.299042 234.685394,406.517487 
	C228.086838,406.777039 221.828201,404.063141 214.670517,406.320007 
	C209.520187,407.943909 203.119812,405.157257 197.274384,405.137939 
	C190.294266,405.114899 183.315704,406.206024 176.328232,406.322784 
	C170.786407,406.415405 165.234558,405.567352 159.682861,405.502136 
	C153.703430,405.431915 148.029572,403.147461 141.615738,405.471954 
	C136.233856,407.422546 129.825867,406.736938 123.865746,406.837555 
	C118.799355,406.923096 113.725693,406.375275 108.651855,406.268311 
	C100.945427,406.105835 93.234879,405.967224 85.528419,406.046326 
	C81.396355,406.088745 77.240227,407.063293 73.146591,406.803528 
	C67.085648,406.418945 61.071758,405.301971 55.035198,404.517120 
	C53.559956,404.325317 52.074478,404.212158 49.883675,403.920715 
	C48.392479,403.548157 47.611313,403.317780 46.830147,403.087372 
	C46.830151,403.087372 46.892025,403.043579 46.988831,402.708496 
	C45.672153,400.599243 44.258671,398.825043 42.845184,397.050842 
	C42.845184,397.050842 42.925365,397.045227 43.009933,396.744934 
	C42.711742,395.633606 42.328983,394.822540 41.892696,393.697205 
	C40.948231,392.606323 40.057293,391.829712 39.166359,391.053101 
	C39.166363,391.053101 38.979805,390.611023 38.948502,390.030640 
	C37.999371,388.318573 37.081539,387.186859 36.163712,386.055145 
	C36.163715,386.055145 35.976414,385.605225 35.817886,385.208862 
	C35.577774,384.522217 35.418625,384.283722 35.181919,384.097046 
	C35.116535,383.939819 35.051151,383.782623 34.935863,383.062683 
	C34.306141,382.006409 33.726330,381.512878 33.146511,381.019348 
	C33.146507,381.019348 32.965115,380.614899 32.828293,380.208984 
	C32.614914,379.482025 32.437420,379.232941 32.158997,379.055878 
	C32.158997,379.055878 31.972557,378.620117 31.824425,378.213074 
	C31.596933,377.498505 31.427565,377.253265 31.168184,377.070251 
	C31.168184,377.070251 30.976456,376.620087 30.821892,376.213623 
	C30.586185,375.508026 30.421619,375.265564 30.173632,375.079773 
	C30.173632,375.079773 29.979599,374.619263 29.820473,374.213684 
	C29.578011,373.514893 29.416534,373.274109 29.176920,373.085785 
	C29.111328,372.930573 29.045734,372.775391 28.819317,372.213318 
	C28.574680,371.515137 28.414194,371.275177 28.177034,371.086578 
	C28.111498,370.932037 28.045961,370.777527 27.820976,370.214844 
	C27.577824,369.512909 27.415989,369.271606 27.176023,369.082733 
	C27.110575,368.929413 27.045126,368.776093 26.821495,368.214050 
	C26.580124,367.509399 26.416889,367.267517 26.173607,367.079742 
	C26.173607,367.079742 25.977821,366.625488 25.822906,366.213654 
	C25.585714,365.500244 25.419065,365.256409 25.168041,365.070282 
	C25.168041,365.070282 24.973343,364.627655 24.970036,363.986969 
	C23.865246,359.928375 22.763765,356.510498 22.052166,353.081909 
	C23.920069,353.974335 25.305737,355.128052 26.900049,355.715607 
	C28.787888,356.411224 31.751560,357.661285 32.689098,356.855682 
	C36.583031,353.509827 40.988953,354.012421 45.416435,354.004120 
	C53.229004,353.989441 61.042488,353.936066 68.853638,354.042542 
	C70.977379,354.071503 73.371887,354.086670 75.158875,355.026764 
	C79.485886,357.303192 83.497192,360.094360 88.099991,355.618561 
	C88.458611,355.269836 89.756104,355.609894 90.468643,355.945404 
	C96.557373,358.812469 103.051254,351.702057 109.048401,356.706787 
	C109.189499,356.824524 109.700226,356.609711 109.973206,356.443024 
	C117.540825,351.822083 125.864578,354.731934 133.827835,354.151520 
	C135.284958,354.045319 137.151169,354.971954 138.285355,356.013367 
	C140.349091,357.908325 141.726013,357.590332 143.796738,355.935608 
	C146.931534,353.430511 150.294632,352.983246 153.704315,356.030212 
	C154.568832,356.802765 157.139969,357.118927 157.719528,356.505035 
	C160.208450,353.868561 162.713959,353.966156 165.864944,354.972870 
	C167.376282,355.455750 169.306686,354.797791 171.009995,354.465393 
	C173.097702,354.057953 175.146362,353.450378 177.488815,353.054932 
	C178.875549,354.355103 179.985367,355.529663 181.254395,356.965271 
	C181.753723,357.443542 182.093887,357.660675 182.726013,358.021149 
	C190.622589,363.516632 198.264511,368.816895 205.815704,374.243439 
	C209.450897,376.855835 212.082443,375.894501 214.454117,372.489655 
	C221.118866,362.921509 227.848312,353.398468 235.035904,343.890930 
	C243.788712,344.168854 252.056885,344.455780 260.327271,344.645630 
	C267.838013,344.818054 275.351166,344.884827 283.032074,345.313660 
	C289.153442,356.200378 295.659637,366.332733 304.562378,374.782898 
	C306.670990,376.784271 308.131134,376.845093 310.549133,375.657410 
	C323.304077,369.392395 334.265869,360.721313 344.722778,350.751831 
	C345.321960,349.988586 345.606842,349.381226 345.967896,348.565338 
	C346.219452,348.091766 346.464874,347.939972 347.206055,347.942261 
	C350.086884,348.297241 352.546814,348.912689 354.996460,348.874298 
	C366.775299,348.689514 378.550568,348.282349 390.329193,348.069336 
	C392.612732,348.028015 394.907684,348.718536 397.193726,348.696198 
	C406.707062,348.603271 416.219025,348.226593 425.731384,348.230743 
	C432.450104,348.233704 439.169617,348.904022 445.886932,348.873291 
	C453.934967,348.836456 461.990631,347.991272 470.025299,348.194489 
	C478.538849,348.409851 487.068481,349.701752 494.573608,344.126312 
	C494.909393,343.876892 495.548035,344.035217 495.994720,344.368958 
	C495.061859,347.037537 494.095062,349.312592 493.317871,351.650665 
	C492.172913,355.095001 491.163055,358.584290 490.095642,362.054413 
	C487.447418,367.509583 484.799225,372.964752 481.658783,378.810364 
	C479.468292,382.510620 477.769989,385.820435 476.071655,389.130249 
	C476.071655,389.130249 476.068970,389.041138 475.760712,389.068756 
	C473.992279,391.771820 472.532074,394.447296 471.071838,397.122742 
	C471.071838,397.122742 471.068634,397.041016 470.746826,397.070374 
	C469.975403,398.109619 469.525848,399.119476 469.076294,400.129333 
	C469.076263,400.129333 469.087738,400.047180 468.785278,400.035553 
	C467.081085,401.384216 465.679352,402.744507 464.277649,404.104828 
z"/>
<path fill="#9FC531" opacity="1.000000" stroke="none" 
	d="
M496.045593,344.003601 
	C495.548035,344.035217 494.909393,343.876892 494.573608,344.126312 
	C487.068481,349.701752 478.538849,348.409851 470.025299,348.194489 
	C461.990631,347.991272 453.934967,348.836456 445.886932,348.873291 
	C439.169617,348.904022 432.450104,348.233704 425.731384,348.230743 
	C416.219025,348.226593 406.707062,348.603271 397.193726,348.696198 
	C394.907684,348.718536 392.612732,348.028015 390.329193,348.069336 
	C378.550568,348.282349 366.775299,348.689514 354.996460,348.874298 
	C352.546814,348.912689 350.086884,348.297241 347.368225,347.644806 
	C351.313080,341.558350 355.898468,336.044983 359.653564,330.014618 
	C368.228943,316.243408 372.500946,300.897614 375.463837,285.000732 
	C376.914581,285.000427 377.913788,284.968323 378.910339,285.005615 
	C387.472900,285.326324 396.033539,285.860870 404.597656,285.921234 
	C410.714966,285.964386 416.837494,285.115784 422.956360,285.133179 
	C431.340210,285.156982 439.721039,285.710785 448.106354,285.876953 
	C456.289795,286.039154 464.477325,285.989929 472.662933,286.053955 
	C475.426453,286.075592 478.191376,286.250671 480.952423,286.195312 
	C485.870270,286.096710 490.830902,285.376678 495.692047,285.817108 
	C504.110992,286.579865 505.387970,286.001709 505.955688,278.009430 
	C506.199982,274.570435 508.052124,273.844543 510.906616,273.994690 
	C510.809875,277.151520 510.713135,280.308380 510.851929,283.747925 
	C510.220764,300.982544 506.173218,317.295074 500.671265,333.884094 
	C498.802582,337.570831 497.424072,340.787201 496.045593,344.003601 
z"/>
<path fill="#E4EF6F" opacity="1.000000" stroke="none" 
	d="
M380.411102,481.082825 
	C380.584381,480.377594 380.975769,479.367462 381.712921,478.875458 
	C391.809113,472.137299 401.947144,465.461578 412.098816,458.807007 
	C412.767731,458.368500 413.630554,458.225891 414.772858,458.009277 
	C403.691650,465.721558 392.240814,473.370178 380.411102,481.082825 
z"/>
<path fill="#E4EF6F" opacity="1.000000" stroke="none" 
	d="
M427.428650,448.116821 
	C427.317688,447.427124 427.323486,446.432770 427.823486,445.944489 
	C434.331512,439.589447 440.909637,433.306213 447.828613,427.042877 
	C446.485718,429.211517 444.968384,431.527344 443.047150,433.436798 
	C438.051117,438.402222 432.877747,443.189178 427.428650,448.116821 
z"/>
<path fill="#E2EE6E" opacity="1.000000" stroke="none" 
	d="
M495.994690,344.368958 
	C497.424072,340.787201 498.802582,337.570831 500.489288,334.241669 
	C499.063507,339.739868 497.496429,345.409943 495.536926,350.941010 
	C494.228607,354.634094 492.361755,358.129303 490.420258,361.883728 
	C491.163055,358.584290 492.172913,355.095001 493.317871,351.650665 
	C494.095062,349.312592 495.061859,347.037537 495.994690,344.368958 
z"/>
<path fill="#E4EF6F" opacity="1.000000" stroke="none" 
	d="
M340.499939,498.860992 
	C342.028809,497.731293 343.858643,496.439178 345.881073,495.626099 
	C351.656952,493.304169 357.511139,491.177032 363.733887,488.999817 
	C359.378845,491.356812 354.687347,493.830109 349.846130,495.963654 
	C346.982605,497.225677 343.882507,497.950775 340.499939,498.860992 
z"/>
<path fill="#E2EE6E" opacity="1.000000" stroke="none" 
	d="
M476.397461,388.993713 
	C477.769989,385.820435 479.468292,382.510620 481.494263,379.139374 
	C480.122406,382.337646 478.422852,385.597382 476.397461,388.993713 
z"/>
<path fill="#E4EF6F" opacity="1.000000" stroke="none" 
	d="
M420.411560,454.103638 
	C422.179626,452.100861 424.292053,450.026123 426.772888,448.016083 
	C425.012878,450.064423 422.884399,452.048065 420.411560,454.103638 
z"/>
<path fill="#E2EE6E" opacity="1.000000" stroke="none" 
	d="
M471.398743,396.989563 
	C472.532074,394.447296 473.992279,391.771820 475.805237,389.071411 
	C474.680542,391.649780 473.203064,394.253082 471.398743,396.989563 
z"/>
<path fill="#E4EF6F" opacity="1.000000" stroke="none" 
	d="
M449.392761,426.004395 
	C450.537415,424.106842 451.992950,422.075226 453.812195,420.054932 
	C452.685181,422.000916 451.194397,423.935638 449.392761,426.004395 
z"/>
<path fill="#E2EE6E" opacity="1.000000" stroke="none" 
	d="
M464.218994,404.431122 
	C465.679352,402.744507 467.081085,401.384216 468.825470,400.045807 
	C467.698608,402.045349 466.229095,404.022980 464.398743,406.038574 
	C464.078735,405.636810 464.119537,405.197113 464.218994,404.431122 
z"/>
<path fill="#E4EF6F" opacity="1.000000" stroke="none" 
	d="
M458.383820,415.011627 
	C459.099121,413.495300 460.125214,411.848083 461.485291,410.140137 
	C460.777771,411.679840 459.736176,413.280273 458.383820,415.011627 
z"/>
<path fill="#E4EF6F" opacity="1.000000" stroke="none" 
	d="
M415.395691,458.096405 
	C416.505768,456.762787 417.954102,455.354614 419.772522,454.011658 
	C418.673035,455.391846 417.203491,456.706848 415.395691,458.096405 
z"/>
<path fill="#E4EF6F" opacity="1.000000" stroke="none" 
	d="
M455.393921,418.997528 
	C455.864838,417.777618 456.648804,416.431732 457.800598,415.068909 
	C457.347992,416.325104 456.527496,417.598328 455.393921,418.997528 
z"/>
<path fill="#E2EE6E" opacity="1.000000" stroke="none" 
	d="
M469.386261,400.004791 
	C469.525848,399.119476 469.975403,398.109619 470.787628,397.072815 
	C470.665588,397.990631 470.180908,398.935425 469.386261,400.004791 
z"/>
<path fill="#E4EF6F" opacity="1.000000" stroke="none" 
	d="
M371.402710,485.753418 
	C371.886810,485.226868 372.674530,484.645477 373.791779,484.046570 
	C373.316284,484.585571 372.511322,485.142090 371.402710,485.753418 
z"/>
<path fill="#E4EF6F" opacity="1.000000" stroke="none" 
	d="
M448.293793,427.025818 
	C448.194244,426.773254 448.366852,426.456787 448.814819,426.081482 
	C448.915436,426.335754 448.740662,426.648834 448.293793,427.025818 
z"/>
<path fill="#E4EF6F" opacity="1.000000" stroke="none" 
	d="
M375.322449,483.827332 
	C375.256775,483.576691 375.499207,483.408722 375.968750,483.174561 
	C376.034149,483.350525 375.845703,483.617706 375.322449,483.827332 
z"/>
<path fill="#E4EF6F" opacity="1.000000" stroke="none" 
	d="
M377.317444,482.832489 
	C377.245453,482.570923 377.490631,482.398468 377.975830,482.168549 
	C377.957275,482.289185 377.763519,482.559357 377.317444,482.832489 
z"/>
<path fill="#E4EF6F" opacity="1.000000" stroke="none" 
	d="
M379.309143,481.840515 
	C379.210083,481.570740 379.436493,481.377594 379.904236,481.117310 
	C379.907898,481.260223 379.737579,481.549194 379.309143,481.840515 
z"/>
<path fill="#E4EF6F" opacity="1.000000" stroke="none" 
	d="
M454.295593,420.030304 
	C454.190704,419.768616 454.358093,419.443878 454.808197,419.073822 
	C454.916595,419.341461 454.742249,419.654358 454.295593,420.030304 
z"/>
<path fill="#A1C631" opacity="1.000000" stroke="none" 
	d="
M177.211914,352.929321 
	C175.146362,353.450378 173.097702,354.057953 171.009995,354.465393 
	C169.306686,354.797791 167.376282,355.455750 165.864944,354.972870 
	C162.713959,353.966156 160.208450,353.868561 157.719528,356.505035 
	C157.139969,357.118927 154.568832,356.802765 153.704315,356.030212 
	C150.294632,352.983246 146.931534,353.430511 143.796738,355.935608 
	C141.726013,357.590332 140.349091,357.908325 138.285355,356.013367 
	C137.151169,354.971954 135.284958,354.045319 133.827835,354.151520 
	C125.864578,354.731934 117.540825,351.822083 109.973206,356.443024 
	C109.700226,356.609711 109.189499,356.824524 109.048401,356.706787 
	C103.051254,351.702057 96.557373,358.812469 90.468643,355.945404 
	C89.756104,355.609894 88.458611,355.269836 88.099991,355.618561 
	C83.497192,360.094360 79.485886,357.303192 75.158875,355.026764 
	C73.371887,354.086670 70.977379,354.071503 68.853638,354.042542 
	C61.042488,353.936066 53.229004,353.989441 45.416435,354.004120 
	C40.988953,354.012421 36.583031,353.509827 32.689098,356.855682 
	C31.751560,357.661285 28.787888,356.411224 26.900049,355.715607 
	C25.305737,355.128052 23.920069,353.974335 21.856430,352.806610 
	C19.228224,347.176178 17.253027,341.783234 15.106571,336.459290 
	C14.353254,334.590790 13.179449,332.891876 12.197651,331.115509 
	C9.451500,318.737152 6.674001,306.365631 3.986776,293.974487 
	C3.475808,291.618347 3.322136,289.184662 3.093923,286.348022 
	C3.184239,285.909241 3.551777,285.904327 3.995128,286.210999 
	C5.313667,291.056915 5.819058,295.710693 7.178088,300.100128 
	C8.317390,303.779877 9.584448,308.453979 12.376562,310.315460 
	C15.563819,312.440338 20.483372,312.159149 24.684702,312.513092 
	C28.412312,312.827087 32.187275,312.578979 36.806488,312.578979 
	C38.061680,310.249664 40.554348,308.781433 44.195095,311.348541 
	C44.770317,311.754120 45.804169,311.717834 46.580376,311.595825 
	C51.532639,310.817352 56.446030,309.992676 60.982853,313.202057 
	C61.531788,313.590363 62.556320,313.389801 63.351421,313.333984 
	C72.904922,312.663208 82.596542,310.659149 91.968338,311.660095 
	C100.759727,312.599060 109.919472,308.432465 118.342041,313.506165 
	C118.654739,313.694550 119.289284,313.275146 119.778732,313.254456 
	C130.237335,312.812103 140.696625,312.386353 151.391754,312.218750 
	C157.280624,327.781769 166.261520,340.978424 177.211914,352.929321 
z"/>
<path fill="#E4EF6F" opacity="1.000000" stroke="none" 
	d="
M98.993317,458.390015 
	C99.661057,458.183868 100.638992,458.036774 101.242172,458.444366 
	C111.413994,465.317047 121.539146,472.258728 131.771545,479.489990 
	C130.096069,479.187927 128.081085,478.935638 126.590927,477.916229 
	C117.371361,471.609131 108.269852,465.129486 98.993317,458.390015 
z"/>
<path fill="#E4EF6F" opacity="1.000000" stroke="none" 
	d="
M150.033966,489.346405 
	C152.972031,490.019623 156.143219,490.874573 159.199600,492.032532 
	C167.056213,495.008942 174.861923,498.119720 182.795013,501.494232 
	C171.414307,499.356415 160.498199,495.362671 150.033966,489.346405 
z"/>
<path fill="#E4EF6F" opacity="1.000000" stroke="none" 
	d="
M64.884712,426.429321 
	C65.297546,426.129150 65.973808,425.984100 66.234909,426.248688 
	C73.518150,433.629486 80.759338,441.051819 87.961433,448.825806 
	C86.489326,448.188812 84.868317,447.384918 83.669777,446.165741 
	C77.372551,439.760132 71.182152,433.249512 64.884712,426.429321 
z"/>
<path fill="#E2EE6E" opacity="1.000000" stroke="none" 
	d="
M12.152802,331.494202 
	C13.179449,332.891876 14.353254,334.590790 15.106571,336.459290 
	C17.253027,341.783234 19.228224,347.176178 21.466549,352.817291 
	C22.763765,356.510498 23.865246,359.928375 24.972225,363.745209 
	C21.013651,354.288239 17.047140,344.433319 13.089609,334.574799 
	C12.732827,333.686035 12.433802,332.774078 12.152802,331.494202 
z"/>
<path fill="#E4EF6F" opacity="1.000000" stroke="none" 
	d="
M46.896126,403.441925 
	C47.611313,403.317780 48.392479,403.548157 49.438168,403.947693 
	C51.818130,407.545807 53.933567,410.974701 55.989151,414.772827 
	C52.940231,411.360199 49.951168,407.578339 46.896126,403.441925 
z"/>
<path fill="#E4EF6F" opacity="1.000000" stroke="none" 
	d="
M59.899094,420.406189 
	C61.569687,421.843323 63.311161,423.622528 64.985573,425.770874 
	C63.269001,424.342773 61.619488,422.545502 59.899094,420.406189 
z"/>
<path fill="#E4EF6F" opacity="1.000000" stroke="none" 
	d="
M87.996239,449.393799 
	C89.894768,450.537384 91.926895,451.991974 93.946449,453.810608 
	C91.999191,452.684723 90.064514,451.194763 87.996239,449.393799 
z"/>
<path fill="#E4EF6F" opacity="1.000000" stroke="none" 
	d="
M42.910915,397.402924 
	C44.258671,398.825043 45.672153,400.599243 47.007820,402.741333 
	C45.612217,401.324463 44.294430,399.539734 42.910915,397.402924 
z"/>
<path fill="#E4EF6F" opacity="1.000000" stroke="none" 
	d="
M55.905960,415.385437 
	C56.911495,416.162903 57.991959,417.273499 58.997124,418.751953 
	C57.941513,417.986084 56.961205,416.852325 55.905960,415.385437 
z"/>
<path fill="#E4EF6F" opacity="1.000000" stroke="none" 
	d="
M95.001785,455.393555 
	C96.223137,455.864380 97.570816,456.648193 98.932495,457.800812 
	C97.673706,457.348602 96.400909,456.527557 95.001785,455.393555 
z"/>
<path fill="#E2EE6E" opacity="1.000000" stroke="none" 
	d="
M36.220520,386.375488 
	C37.081539,387.186859 37.999371,388.318573 38.945698,389.790771 
	C38.075241,388.986084 37.176289,387.840942 36.220520,386.375488 
z"/>
<path fill="#E2EE6E" opacity="1.000000" stroke="none" 
	d="
M39.208321,391.360229 
	C40.057293,391.829712 40.948231,392.606323 41.638290,393.701080 
	C41.267605,394.022308 41.097797,394.025391 40.927990,394.028503 
	C40.368759,393.241455 39.809525,392.454407 39.208321,391.360229 
z"/>
<path fill="#E4EF6F" opacity="1.000000" stroke="none" 
	d="
M40.955421,394.362305 
	C41.097797,394.025391 41.267605,394.022308 41.691818,394.015381 
	C42.328983,394.822540 42.711742,395.633606 43.008316,396.785095 
	C42.275703,396.315735 41.629280,395.505890 40.955421,394.362305 
z"/>
<path fill="#E2EE6E" opacity="1.000000" stroke="none" 
	d="
M33.107574,381.363403 
	C33.726330,381.512878 34.306141,382.006409 34.928299,382.807434 
	C34.336639,382.645782 33.702637,382.176605 33.107574,381.363403 
z"/>
<path fill="#E4EF6F" opacity="1.000000" stroke="none" 
	d="
M148.047913,488.319946 
	C148.284225,488.222107 148.601562,488.345398 148.933060,488.652771 
	C148.947205,488.836853 148.476303,488.859833 148.476303,488.859833 
	C148.476303,488.859833 148.128952,488.541107 148.047913,488.319946 
z"/>
<path fill="#E4EF6F" opacity="1.000000" stroke="none" 
	d="
M93.970024,454.295349 
	C94.230469,454.190887 94.554390,454.358643 94.925262,454.808563 
	C94.659309,454.916321 94.346405,454.741913 93.970024,454.295349 
z"/>
<path fill="#E4EF6F" opacity="1.000000" stroke="none" 
	d="
M58.972618,419.301086 
	C59.230663,419.195953 59.552082,419.363068 59.925392,419.811798 
	C59.663517,419.920044 59.349751,419.746704 58.972618,419.301086 
z"/>
<path fill="#E2EE6E" opacity="1.000000" stroke="none" 
	d="
M35.187355,384.337646 
	C35.418625,384.283722 35.577774,384.522217 35.817329,384.965210 
	C35.656158,385.022583 35.395321,384.842712 35.187355,384.337646 
z"/>
<path fill="#E2EE6E" opacity="1.000000" stroke="none" 
	d="
M31.173347,377.320343 
	C31.427565,377.253265 31.596933,377.498505 31.829552,377.976135 
	C31.714710,377.954315 31.446611,377.762390 31.173347,377.320343 
z"/>
<path fill="#E2EE6E" opacity="1.000000" stroke="none" 
	d="
M30.179001,375.325714 
	C30.421619,375.265564 30.586185,375.508026 30.823273,375.968994 
	C30.655064,376.028595 30.390114,375.842224 30.179001,375.325714 
z"/>
<path fill="#E2EE6E" opacity="1.000000" stroke="none" 
	d="
M29.183041,373.328888 
	C29.416534,373.274109 29.578011,373.514893 29.819668,373.963837 
	C29.655676,374.022552 29.392735,373.840027 29.183041,373.328888 
z"/>
<path fill="#E2EE6E" opacity="1.000000" stroke="none" 
	d="
M28.182949,371.328735 
	C28.414194,371.275177 28.574680,371.515137 28.816761,371.960632 
	C28.652948,372.020294 28.390892,371.838989 28.182949,371.328735 
z"/>
<path fill="#E2EE6E" opacity="1.000000" stroke="none" 
	d="
M27.181969,369.326416 
	C27.415989,369.271606 27.577824,369.512909 27.819757,369.963104 
	C27.654833,370.022400 27.391474,369.839264 27.181969,369.326416 
z"/>
<path fill="#E2EE6E" opacity="1.000000" stroke="none" 
	d="
M26.179733,367.324463 
	C26.416889,367.267517 26.580124,367.509399 26.820797,367.963989 
	C26.654198,368.024017 26.390057,367.839539 26.179733,367.324463 
z"/>
<path fill="#E2EE6E" opacity="1.000000" stroke="none" 
	d="
M25.174099,365.318054 
	C25.419065,365.256409 25.585714,365.500244 25.823612,365.966339 
	C25.652363,366.028107 25.386003,365.839752 25.174099,365.318054 
z"/>
<path fill="#E2EE6E" opacity="1.000000" stroke="none" 
	d="
M32.162910,379.312500 
	C32.437420,379.232941 32.614914,379.482025 32.838127,379.987610 
	C32.712128,379.971100 32.439480,379.770111 32.162910,379.312500 
z"/>
<path fill="#9AC42F" opacity="1.000000" stroke="none" 
	d="
M510.972412,273.536865 
	C508.052124,273.844543 506.199982,274.570435 505.955688,278.009430 
	C505.387970,286.001709 504.110992,286.579865 495.692047,285.817108 
	C490.830902,285.376678 485.870270,286.096710 480.952423,286.195312 
	C478.191376,286.250671 475.426453,286.075592 472.662933,286.053955 
	C464.477325,285.989929 456.289795,286.039154 448.106354,285.876953 
	C439.721039,285.710785 431.340210,285.156982 422.956360,285.133179 
	C416.837494,285.115784 410.714966,285.964386 404.597656,285.921234 
	C396.033539,285.860870 387.472900,285.326324 378.910339,285.005615 
	C377.913788,284.968323 376.914581,285.000427 375.412170,284.548981 
	C375.101532,281.680786 375.295319,279.263977 375.630554,276.523834 
	C375.717743,273.876709 375.663483,271.552948 375.471130,268.771362 
	C375.019684,264.697845 375.107819,260.991516 374.316559,257.483551 
	C372.089966,247.612183 369.501526,237.822403 367.055756,228.000458 
	C367.781525,227.642303 368.991730,227.436478 369.159546,226.902878 
	C371.281769,220.153732 377.268280,220.014511 382.346710,220.177551 
	C394.676300,220.573364 406.971100,221.966827 419.292786,222.758240 
	C422.053711,222.935562 424.866608,222.284698 427.656860,222.029205 
	C433.334290,221.509354 439.016510,220.553864 444.689545,220.603195 
	C451.070374,220.658661 457.445374,222.116623 463.819153,222.089294 
	C476.360748,222.035522 488.907410,221.512695 501.430756,220.807495 
	C503.120575,220.712326 504.687866,218.441559 506.656555,217.089096 
	C507.857758,220.498108 508.714294,223.996231 509.831543,227.777512 
	C510.649414,236.133423 511.484283,244.199493 511.679199,252.280991 
	C511.846100,259.204498 511.280121,266.145660 510.972412,273.536865 
z"/>
<path fill="#9CC430" opacity="1.000000" stroke="none" 
	d="
M151.155792,311.957367 
	C140.696625,312.386353 130.237335,312.812103 119.778732,313.254456 
	C119.289284,313.275146 118.654739,313.694550 118.342041,313.506165 
	C109.919472,308.432465 100.759727,312.599060 91.968338,311.660095 
	C82.596542,310.659149 72.904922,312.663208 63.351421,313.333984 
	C62.556320,313.389801 61.531788,313.590363 60.982853,313.202057 
	C56.446030,309.992676 51.532639,310.817352 46.580376,311.595825 
	C45.804169,311.717834 44.770317,311.754120 44.195095,311.348541 
	C40.554348,308.781433 38.061680,310.249664 36.806488,312.578979 
	C32.187275,312.578979 28.412312,312.827087 24.684702,312.513092 
	C20.483372,312.159149 15.563819,312.440338 12.376562,310.315460 
	C9.584448,308.453979 8.317390,303.779877 7.178088,300.100128 
	C5.819058,295.710693 5.313667,291.056915 4.177831,286.230896 
	C3.317780,277.368011 2.558593,268.798798 2.188403,260.212769 
	C2.011266,256.104309 2.571411,251.964035 3.239235,247.493164 
	C7.850499,249.457520 5.713912,253.411072 5.876699,256.588989 
	C6.064627,260.257660 6.990986,262.136078 11.045658,262.054199 
	C19.750725,261.878418 28.462149,261.956146 37.170250,262.023438 
	C40.451694,262.048828 43.730522,262.453796 47.011650,262.470734 
	C52.428963,262.498657 57.897675,261.858490 63.251957,262.406433 
	C69.644272,263.060608 76.357399,259.228302 82.456688,263.741028 
	C82.638878,263.875793 83.087578,263.636261 83.414772,263.591339 
	C87.293793,263.058655 91.159294,262.275970 95.056091,262.060364 
	C100.699425,261.748138 106.366356,261.748932 112.021599,261.799316 
	C117.112480,261.844666 123.235237,260.409576 127.062408,262.701141 
	C133.767319,266.715790 138.855850,261.780396 144.699081,262.420654 
	C143.292313,279.681152 145.647034,296.024902 151.155792,311.957367 
z"/>
<path fill="#99C32F" opacity="1.000000" stroke="none" 
	d="
M144.647354,262.001129 
	C138.855850,261.780396 133.767319,266.715790 127.062408,262.701141 
	C123.235237,260.409576 117.112480,261.844666 112.021599,261.799316 
	C106.366356,261.748932 100.699425,261.748138 95.056091,262.060364 
	C91.159294,262.275970 87.293793,263.058655 83.414772,263.591339 
	C83.087578,263.636261 82.638878,263.875793 82.456688,263.741028 
	C76.357399,259.228302 69.644272,263.060608 63.251957,262.406433 
	C57.897675,261.858490 52.428963,262.498657 47.011650,262.470734 
	C43.730522,262.453796 40.451694,262.048828 37.170250,262.023438 
	C28.462149,261.956146 19.750725,261.878418 11.045658,262.054199 
	C6.990986,262.136078 6.064627,260.257660 5.876699,256.588989 
	C5.713912,253.411072 7.850499,249.457520 3.289662,247.072372 
	C3.210196,241.322601 3.521908,235.648621 3.821412,229.545135 
	C5.043380,222.945862 6.277556,216.776108 7.755831,210.303131 
	C8.397106,211.696991 8.794281,213.394043 9.297813,215.545547 
	C16.748329,217.592361 24.385654,218.326324 32.552158,216.693314 
	C37.514385,215.701050 42.949291,217.205444 48.178822,217.380997 
	C53.783176,217.569138 59.396820,217.462891 65.004211,217.585510 
	C68.085899,217.652878 71.161102,217.981949 74.242836,218.092407 
	C77.320831,218.202744 80.469124,218.611801 83.471291,218.146271 
	C91.829590,216.850174 100.126877,214.491943 108.458000,218.184143 
	C108.610168,218.251556 108.843056,218.419754 108.903183,218.371750 
	C114.961685,213.534012 122.240982,222.449127 128.316467,216.655792 
	C129.095291,215.913132 130.881241,215.911591 132.148880,216.047989 
	C140.165802,216.910461 148.168106,217.908585 156.522186,219.284332 
	C151.284393,230.559677 147.368515,241.957275 145.507904,254.305908 
	C145.275345,254.894974 145.188339,255.251236 145.189667,255.998947 
	C145.067795,258.260620 144.857574,260.130890 144.647354,262.001129 
z"/>
<path fill="#FEFEFD" opacity="1.000000" stroke="none" 
	d="
M309.468689,168.397980 
	C311.459717,169.380432 313.095337,170.246063 315.232971,171.385681 
	C316.147430,171.810318 316.559845,171.960999 316.972260,172.111679 
	C316.972260,172.111679 316.950653,172.041946 317.073486,172.252716 
	C317.431030,172.702560 317.706085,172.878662 318.021484,172.991821 
	C317.988708,173.325058 317.955933,173.658295 317.655884,174.427734 
	C317.235107,175.234253 317.081604,175.604599 316.928101,175.974930 
	C316.928101,175.974930 316.995361,175.977173 316.720551,176.184143 
	C316.155365,177.019852 315.864960,177.648575 315.574554,178.277298 
	C315.574554,178.277298 315.291962,178.216965 315.291962,178.216965 
	C315.291962,178.216965 315.071625,178.403687 314.732483,178.710052 
	C314.062439,179.644043 313.731537,180.271667 313.400635,180.899292 
	C304.372192,191.073868 293.990906,199.282654 280.992767,203.940765 
	C273.401855,206.661087 265.579926,209.028168 257.641266,208.654144 
	C245.855301,208.098862 234.470932,204.929184 224.026108,199.169876 
	C215.184097,194.294327 207.148468,188.431244 201.722229,178.810226 
	C200.923080,177.820663 200.512329,177.332092 200.101562,176.843521 
	C200.101562,176.843521 200.067169,176.937790 200.043808,176.625092 
	C199.707336,176.006134 199.394226,175.699860 199.081100,175.393585 
	C199.286636,175.216522 199.345581,174.999619 199.467407,174.457825 
	C200.154922,173.804886 200.632965,173.436996 201.111023,173.069122 
	C201.111023,173.069122 201.044724,173.039017 201.362976,173.017334 
	C201.995468,172.695190 202.309708,172.394714 202.623932,172.094238 
	C204.931320,171.026978 207.238708,169.959702 209.778915,168.672882 
	C215.079025,166.430984 220.146301,164.408646 225.835648,162.138046 
	C224.485092,160.216690 223.319687,158.494827 222.089966,156.820206 
	C216.378815,149.042694 210.643372,141.283035 204.929626,133.507416 
	C201.276108,128.535492 201.222214,124.861305 204.729279,122.174255 
	C208.220581,119.499275 212.060776,120.584305 215.608368,125.361023 
	C223.147552,135.512222 230.694443,145.658508 238.122421,155.890823 
	C239.763931,158.152069 241.338196,158.692474 244.283386,158.480820 
	C252.875336,157.863358 261.527893,157.791168 270.145477,157.990143 
	C273.155060,158.059601 275.004395,157.468750 276.784821,154.999756 
	C284.277557,144.609467 291.916199,134.322647 299.622192,124.088860 
	C302.429230,120.361031 306.537079,119.679314 309.584320,122.276230 
	C312.980225,125.170280 312.874023,128.544067 310.425720,132.026367 
	C309.851898,132.842514 309.232117,133.626251 308.640106,134.429764 
	C302.241943,143.113785 295.845093,151.798752 289.343292,160.625488 
	C296.153168,163.262527 302.633209,165.771835 309.468689,168.397980 
z"/>
<path fill="#FEFFFE" opacity="1.000000" stroke="none" 
	d="
M375.489136,276.847168 
	C375.295319,279.263977 375.101532,281.680786 374.959381,284.549377 
	C372.500946,300.897614 368.228943,316.243408 359.653564,330.014618 
	C355.898468,336.044983 351.313080,341.558350 346.942566,347.603943 
	C346.464874,347.939972 346.219452,348.091766 345.677734,348.732849 
	C345.010406,349.708496 344.709473,350.308136 344.408508,350.907745 
	C334.265869,360.721313 323.304077,369.392395 310.549133,375.657410 
	C308.131134,376.845093 306.670990,376.784271 304.562378,374.782898 
	C295.659637,366.332733 289.153442,356.200378 282.983093,344.959503 
	C279.421600,335.465088 275.614136,326.781067 272.878784,317.771576 
	C270.631012,310.368042 269.656586,302.577942 268.160950,294.501343 
	C268.089569,290.043457 267.975006,286.043335 267.930176,281.699280 
	C267.953247,280.892059 267.906586,280.428802 267.918945,279.505920 
	C267.956238,274.716339 267.934570,270.386353 267.965240,265.653564 
	C268.424347,263.672729 268.813599,262.089905 269.240753,260.517395 
	C272.067810,250.110519 274.773621,239.667145 277.863007,229.338593 
	C278.377258,227.619339 280.573181,226.403076 281.992004,224.954346 
	C304.647461,218.237457 322.792633,205.411819 334.951996,185.076065 
	C349.160553,197.014969 359.260895,211.213211 366.861053,227.701538 
	C369.501526,237.822403 372.089966,247.612183 374.316559,257.483551 
	C375.107819,260.991516 375.019684,264.697845 375.362549,269.179260 
	C375.424408,272.312347 375.456787,274.579742 375.489136,276.847168 
z"/>
<path fill="#FEFFFE" opacity="1.000000" stroke="none" 
	d="
M144.699081,262.420654 
	C144.857574,260.130890 145.067795,258.260620 145.411713,255.804016 
	C145.581406,254.836136 145.617416,254.454636 145.653427,254.073120 
	C147.368515,241.957275 151.284393,230.559677 156.907227,219.352997 
	C163.464996,207.027313 171.565170,196.293655 182.025284,186.641373 
	C194.144821,202.752594 208.271561,215.964630 227.877548,223.069962 
	C228.668259,223.154739 228.845139,223.160233 229.022003,223.165741 
	C229.022003,223.165741 229.187851,223.305069 229.545547,223.503067 
	C230.899765,223.926941 231.896301,224.152817 232.892822,224.378693 
	C232.892822,224.378693 232.874832,224.268799 233.090454,224.530182 
	C237.095032,225.155685 238.776764,227.474106 240.064392,230.929962 
	C245.133011,244.533676 247.910339,258.587494 249.074036,273.462463 
	C248.830322,281.069183 248.966492,288.235901 248.403351,295.347229 
	C247.051544,312.417755 241.714096,328.413116 234.552246,343.857635 
	C227.848312,353.398468 221.118866,362.921509 214.454117,372.489655 
	C212.082443,375.894501 209.450897,376.855835 205.815704,374.243439 
	C198.264511,368.816895 190.622589,363.516632 182.568283,357.757080 
	C181.777466,357.134552 181.436325,356.919373 181.095184,356.704193 
	C179.985367,355.529663 178.875549,354.355103 177.488815,353.054962 
	C166.261520,340.978424 157.280624,327.781769 151.391754,312.218750 
	C145.647034,296.024902 143.292313,279.681152 144.699081,262.420654 
z"/>
<path fill="#99C42F" opacity="1.000000" stroke="none" 
	d="
M249.135941,272.997284 
	C247.910339,258.587494 245.133011,244.533676 240.064392,230.929962 
	C238.776764,227.474106 237.095032,225.155685 233.040115,224.553940 
	C233.181305,222.933014 233.588486,221.549713 234.279022,219.203720 
	C238.131104,219.684418 242.696381,220.598724 247.281845,220.714890 
	C250.811157,220.804306 254.367325,219.900269 257.906677,219.403305 
	C258.203918,219.361572 258.479126,218.877151 258.739319,218.899017 
	C265.163055,219.438675 271.587311,219.982162 277.996368,220.666382 
	C278.475769,220.717545 279.347321,222.081253 279.184052,222.405457 
	C277.256287,226.233215 281.102356,223.556015 281.786926,224.771759 
	C280.573181,226.403076 278.377258,227.619339 277.863007,229.338593 
	C274.773621,239.667145 272.067810,250.110519 269.240753,260.517395 
	C268.813599,262.089905 268.424347,263.672729 267.730682,265.965820 
	C267.275452,269.122101 267.107147,271.563293 266.504272,274.003204 
	C260.425110,273.667023 254.780533,273.332153 249.135941,272.997284 
z"/>
<path fill="#99C42F" opacity="1.000000" stroke="none" 
	d="
M232.657486,224.055573 
	C231.896301,224.152817 230.899765,223.926941 229.626465,223.431061 
	C230.373825,223.351532 231.397995,223.542007 232.657486,224.055573 
z"/>
<path fill="#92C22E" opacity="1.000000" stroke="none" 
	d="
M313.728790,180.738342 
	C313.731537,180.271667 314.062439,179.644043 314.710327,178.850540 
	C314.703857,179.315567 314.380402,179.946472 313.728790,180.738342 
z"/>
<path fill="#92C22E" opacity="1.000000" stroke="none" 
	d="
M318.102020,172.817993 
	C317.706085,172.878662 317.431030,172.702560 317.041931,172.271118 
	C317.319244,172.267197 317.750885,172.455673 318.102020,172.817993 
z"/>
<path fill="#92C22E" opacity="1.000000" stroke="none" 
	d="
M200.791260,173.116669 
	C200.632965,173.436996 200.154922,173.804886 199.396545,174.294662 
	C199.567963,173.999115 200.019730,173.581680 200.791260,173.116669 
z"/>
<path fill="#92C22E" opacity="1.000000" stroke="none" 
	d="
M315.842804,178.042053 
	C315.864960,177.648575 316.155365,177.019852 316.699646,176.157806 
	C316.672699,176.551941 316.391876,177.179382 315.842804,178.042053 
z"/>
<path fill="#92C22E" opacity="1.000000" stroke="none" 
	d="
M200.153107,177.184418 
	C200.512329,177.332092 200.923080,177.820663 201.476593,178.601685 
	C201.147781,178.437851 200.676208,177.981583 200.153107,177.184418 
z"/>
<path fill="#92C22E" opacity="1.000000" stroke="none" 
	d="
M202.317886,172.197052 
	C202.309708,172.394714 201.995468,172.695190 201.354797,173.052811 
	C201.356201,172.839935 201.684021,172.569901 202.317886,172.197052 
z"/>
<path fill="#92C22E" opacity="1.000000" stroke="none" 
	d="
M316.751678,171.873932 
	C316.559845,171.960999 316.147430,171.810318 315.544067,171.380783 
	C315.745789,171.279999 316.138428,171.458084 316.751678,171.873932 
z"/>
<path fill="#92C22E" opacity="1.000000" stroke="none" 
	d="
M317.152100,175.775925 
	C317.081604,175.604599 317.235107,175.234253 317.638550,174.681366 
	C317.717682,174.858200 317.546875,175.217560 317.152100,175.775925 
z"/>
<path fill="#99C42F" opacity="1.000000" stroke="none" 
	d="
M228.939819,223.016937 
	C228.845139,223.160233 228.668259,223.154739 228.248779,223.041504 
	C228.290009,222.911880 228.573822,222.889999 228.939819,223.016937 
z"/>
<path fill="#92C22E" opacity="1.000000" stroke="none" 
	d="
M199.194366,175.699097 
	C199.394226,175.699860 199.707336,176.006134 200.092331,176.637894 
	C199.878677,176.643799 199.593155,176.324203 199.194366,175.699097 
z"/>
<path fill="#9EC530" opacity="1.000000" stroke="none" 
	d="
M249.074036,273.462463 
	C254.780533,273.332153 260.425110,273.667023 266.521790,274.396790 
	C267.269257,276.516296 267.564606,278.240936 267.859955,279.965546 
	C267.906586,280.428802 267.953247,280.892059 267.695496,282.029633 
	C267.633362,286.789032 267.875580,290.874084 268.117798,294.959167 
	C269.656586,302.577942 270.631012,310.368042 272.878784,317.771576 
	C275.614136,326.781067 279.421600,335.465088 282.814270,344.644043 
	C275.351166,344.884827 267.838013,344.818054 260.327271,344.645630 
	C252.056885,344.455780 243.788712,344.168854 235.035919,343.890930 
	C241.714096,328.413116 247.051544,312.417755 248.403351,295.347229 
	C248.966492,288.235901 248.830322,281.069183 249.074036,273.462463 
z"/>
<path fill="#9FC531" opacity="1.000000" stroke="none" 
	d="
M344.722778,350.751831 
	C344.709473,350.308136 345.010406,349.708496 345.601562,348.941345 
	C345.606842,349.381226 345.321960,349.988586 344.722778,350.751831 
z"/>
<path fill="#A1C631" opacity="1.000000" stroke="none" 
	d="
M181.254379,356.965271 
	C181.436325,356.919373 181.777466,357.134552 182.276306,357.613770 
	C182.093887,357.660675 181.753723,357.443542 181.254379,356.965271 
z"/>
<path fill="#9FC531" opacity="1.000000" stroke="none" 
	d="
M375.630554,276.523834 
	C375.456787,274.579742 375.424408,272.312347 375.500671,269.637024 
	C375.663483,271.552948 375.717743,273.876709 375.630554,276.523834 
z"/>
<path fill="#9CC430" opacity="1.000000" stroke="none" 
	d="
M145.507904,254.305908 
	C145.617416,254.454636 145.581406,254.836136 145.323364,255.412582 
	C145.188339,255.251236 145.275345,254.894974 145.507904,254.305908 
z"/>
<path fill="#97C203" opacity="1.000000" stroke="none" 
	d="
M267.918945,279.505920 
	C267.564606,278.240936 267.269257,276.516296 266.956360,274.398102 
	C267.107147,271.563293 267.275452,269.122101 267.678314,266.368652 
	C267.934570,270.386353 267.956238,274.716339 267.918945,279.505920 
z"/>
<path fill="#97C203" opacity="1.000000" stroke="none" 
	d="
M268.160950,294.501343 
	C267.875580,290.874084 267.633362,286.789032 267.625793,282.373596 
	C267.975006,286.043335 268.089569,290.043457 268.160950,294.501343 
z"/>
</svg>