<svg version="1.1" id="Layer_1" xmlns="http://www.w3.org/2000/svg" xmlns:xlink="http://www.w3.org/1999/xlink" x="0px" y="0px"
	 width="100%" viewBox="0 0 512 512" enable-background="new 0 0 512 512" xml:space="preserve">
<path fill="#000000" opacity="1.000000" stroke="none" 
	d="
M282.000000,1.000004 
	C358.926392,1.000000 435.852783,1.000000 513.000000,1.000000 
	C513.000000,76.354080 513.000000,151.708389 512.640503,227.842697 
	C511.853210,227.280838 511.256805,225.967102 511.027283,224.592133 
	C510.094788,219.005539 509.632141,213.316010 508.337555,207.819580 
	C505.795776,197.028198 503.168640,186.230194 499.879242,175.651855 
	C497.962555,169.488129 494.693878,163.744812 492.029510,157.612610 
	C492.025513,157.412888 491.873291,157.042877 491.937256,156.656723 
	C490.348358,153.149857 488.695465,150.029160 486.901001,146.572128 
	C483.508942,140.134003 480.258392,134.032211 476.973175,127.555145 
	C473.305145,120.949440 469.768921,114.658478 465.955048,108.540604 
	C465.208435,107.342964 463.386414,106.815735 462.026886,105.702469 
	C461.928406,105.251472 461.863403,105.077309 461.860107,104.546188 
	C461.393463,103.044296 461.103668,101.686188 460.300293,100.786972 
	C451.055908,90.440186 441.791107,80.109810 432.366516,69.928017 
	C431.040955,68.495941 428.832428,67.881149 427.028809,66.925476 
	C427.024963,66.962898 427.100067,66.958656 427.054626,66.604645 
	C422.579681,60.228119 417.068512,55.580513 410.012085,52.936890 
	C410.003235,52.987862 410.105499,53.003540 410.018311,52.778290 
	C409.769318,52.194427 409.502167,52.077774 408.811005,52.073269 
	C407.609772,51.299137 406.727173,50.654816 405.916565,49.643288 
	C402.202911,46.495735 398.548889,43.506516 394.585052,41.008976 
	C391.971649,39.362343 388.912476,38.423290 385.712891,37.000824 
	C384.575378,35.878780 383.969910,34.517147 382.948853,34.034405 
	C376.752075,31.104595 370.231476,28.790945 364.247192,25.494284 
	C350.815643,18.095030 336.286896,13.875570 321.630127,9.993355 
	C314.481995,8.099990 307.190033,6.749764 299.546326,5.090938 
	C294.381348,4.355556 289.616943,3.774707 284.897583,2.939212 
	C283.850128,2.753775 282.961670,1.670102 282.000000,1.000004 
z"/>
<path fill="#000000" opacity="1.000000" stroke="none" 
	d="
M513.000000,287.000000 
	C513.000000,362.260376 513.000000,437.520752 513.000000,513.000000 
	C437.979248,513.000000 362.958282,513.000000 287.173523,512.638184 
	C287.913055,511.859192 289.414429,511.434662 290.920197,511.026428 
	C293.305176,510.379913 295.693085,509.744324 298.509674,509.065308 
	C300.694702,508.825500 302.491791,508.800568 304.197876,508.393860 
	C313.156952,506.258026 322.092926,504.025574 331.440125,501.892426 
	C332.814362,501.857239 333.849426,501.940552 334.747009,501.628448 
	C355.085846,494.555664 374.771912,485.995728 392.970886,474.427185 
	C400.686707,469.522430 407.732513,463.563568 415.422913,458.046143 
	C417.204315,456.702606 418.645630,455.396698 420.437714,454.050934 
	C429.384979,445.969147 437.990784,437.937042 446.547760,429.853302 
	C446.936005,429.486542 446.883789,428.653503 447.357178,427.930359 
	C452.417389,422.390167 457.602112,417.279572 461.814758,411.464783 
	C475.324158,392.817566 487.158447,373.174500 495.148010,351.443115 
	C497.508087,345.023712 499.602570,338.506683 501.903442,331.636200 
	C504.666565,318.540070 507.270325,305.825531 510.095551,293.160370 
	C510.577789,290.998535 512.007812,289.048096 513.000000,287.000000 
z"/>
<path fill="#000000" opacity="1.000000" stroke="none" 
	d="
M1.000001,227.000000 
	C1.000000,151.739624 1.000000,76.479248 1.000000,1.000000 
	C76.020752,1.000000 151.041718,1.000000 226.848343,1.351598 
	C226.308502,2.126248 225.006165,2.655037 223.652908,2.951265 
	C220.419373,3.659075 217.161865,4.257289 213.485565,4.927966 
	C205.348648,6.702283 197.640213,8.448393 189.531464,10.138659 
	C184.555145,11.411661 179.795731,12.306750 175.437225,14.149896 
	C161.833328,19.902784 148.380997,26.014149 134.544418,32.086792 
	C132.807999,33.082371 131.397079,33.977703 129.627899,34.966122 
	C120.152451,41.018066 111.035278,46.976929 101.947426,52.964680 
	C101.976738,52.993572 101.960083,52.912964 101.690201,52.971008 
	C101.248779,53.338371 101.077248,53.647690 100.939674,53.969635 
	C100.973633,53.982265 100.978233,53.909939 100.680527,53.982571 
	C100.122559,54.370289 99.862282,54.685375 99.430283,55.010067 
	C99.022621,55.149052 98.935051,55.344799 98.668854,55.783714 
	C85.717117,65.650879 73.659691,75.929153 64.063507,89.222397 
	C59.253708,95.340256 54.583523,101.138481 49.594040,107.072769 
	C44.580933,114.445946 39.887127,121.683044 35.093914,129.282898 
	C32.962101,133.769012 30.929703,137.892395 28.581337,142.155396 
	C23.153038,154.518768 18.040705,166.742508 12.571770,179.132172 
	C9.207188,193.220886 6.199207,207.143661 3.117033,221.486694 
	C2.361895,223.604630 1.680949,225.302322 1.000001,227.000000 
z"/>
<path fill="#000000" opacity="1.000000" stroke="none" 
	d="
M227.000000,513.000000 
	C151.739639,513.000000 76.479263,513.000000 1.000000,513.000000 
	C1.000000,437.979248 1.000000,362.958282 1.257662,287.160217 
	C2.066967,286.914520 2.618611,287.445892 3.082485,288.366882 
	C5.298949,300.515625 7.603182,312.274750 9.969416,324.439667 
	C10.993495,328.415222 11.837306,332.021881 12.937185,335.548676 
	C19.223293,355.705444 28.014067,374.756592 39.286926,392.568848 
	C44.263416,400.432159 50.339008,407.599854 55.953026,415.437988 
	C59.411484,420.051636 62.832535,424.310638 66.469254,428.829956 
	C99.230637,464.063934 138.009491,489.124176 184.342194,502.903503 
	C194.828476,505.279236 204.910355,507.565125 215.419800,509.923492 
	C219.120300,510.339142 222.405838,510.601044 225.653519,511.106384 
	C226.187622,511.189514 226.555374,512.341797 227.000000,513.000000 
z"/>
<path fill="#B7C9E7" opacity="1.000000" stroke="none" 
	d="
M513.000000,286.531342 
	C512.007812,289.048096 510.577789,290.998535 510.095551,293.160370 
	C507.270325,305.825531 504.666565,318.540070 501.559448,331.636536 
	C500.443024,332.053162 499.755310,332.071167 499.187531,331.737732 
	C501.206207,324.257599 503.104919,317.128937 505.060181,309.611206 
	C507.056732,293.812195 508.996796,278.402191 510.953735,262.524658 
	C510.249908,249.076385 509.934174,236.055679 508.657135,223.129974 
	C507.887512,215.340195 505.622742,207.698135 504.026825,199.610474 
	C500.435944,187.327072 496.828644,175.428696 493.280426,163.512711 
	C492.726837,161.653656 492.442383,159.714462 492.033508,157.812332 
	C494.693878,163.744812 497.962555,169.488129 499.879242,175.651855 
	C503.168640,186.230194 505.795776,197.028198 508.337555,207.819580 
	C509.632141,213.316010 510.094788,219.005539 511.027283,224.592133 
	C511.256805,225.967102 511.853210,227.280838 512.640503,228.311356 
	C513.000000,247.354233 513.000000,266.708466 513.000000,286.531342 
z"/>
<path fill="#CAD5E3" opacity="1.000000" stroke="none" 
	d="
M213.914032,4.899759 
	C217.161865,4.257289 220.419373,3.659075 223.652908,2.951265 
	C225.006165,2.655037 226.308502,2.126248 227.317001,1.351598 
	C245.020889,1.000000 263.041779,1.000000 281.531342,1.000004 
	C282.961670,1.670102 283.850128,2.753775 284.897583,2.939212 
	C289.616943,3.774707 294.381348,4.355556 299.258667,5.341237 
	C292.311859,5.027572 285.236572,3.885459 278.159851,3.876373 
	C260.915192,3.854232 243.669830,4.354843 226.424866,4.650709 
	C222.254379,4.722260 218.084305,4.816145 213.914032,4.899759 
z"/>
<path fill="#E1EAEF" opacity="1.000000" stroke="none" 
	d="
M3.170250,287.977295 
	C2.618611,287.445892 2.066967,286.914520 1.257662,286.691589 
	C1.000000,267.312439 1.000000,247.624878 1.000001,227.468658 
	C1.680949,225.302322 2.361895,223.604630 3.405365,221.491806 
	C4.152141,221.065613 4.536393,221.054565 4.924037,221.472946 
	C4.591075,225.934280 4.254720,229.966171 3.894142,234.435272 
	C3.859459,236.915512 3.849000,238.958527 3.813860,241.394104 
	C3.765874,242.834366 3.742568,243.882095 3.493455,245.243729 
	C3.142194,247.688889 3.016739,249.820160 2.650154,252.274841 
	C2.573092,256.080933 2.737160,259.563629 2.895101,263.497437 
	C2.951262,266.964478 3.013549,269.980377 3.046094,273.421600 
	C3.373236,278.574554 3.730121,283.302185 3.858040,288.012817 
	C3.629074,287.995758 3.170246,287.977295 3.170250,287.977295 
z"/>
<path fill="#DAE5F3" opacity="1.000000" stroke="none" 
	d="
M227.454117,513.000000 
	C226.555374,512.341797 226.187622,511.189514 225.653519,511.106384 
	C222.405838,510.601044 219.120300,510.339142 215.513885,509.569458 
	C215.539993,508.824280 215.928741,508.200806 216.254868,508.231964 
	C222.641769,508.842896 229.028397,509.474731 235.391647,510.286255 
	C236.035309,510.368317 236.528732,511.628265 237.068848,512.506226 
	C237.045807,512.670776 237.000000,513.000000 237.000000,513.000000 
	C233.969406,513.000000 230.938812,513.000000 227.454117,513.000000 
z"/>
<path fill="#DAE5F3" opacity="1.000000" stroke="none" 
	d="
M298.079742,509.104065 
	C295.693085,509.744324 293.305176,510.379913 290.920197,511.026428 
	C289.414429,511.434662 287.913055,511.859192 286.704865,512.638184 
	C283.969391,513.000000 280.938812,513.000000 277.431213,512.835510 
	C276.954193,512.671021 276.908234,512.341980 276.977753,511.921265 
	C281.570007,510.675476 286.071991,509.695190 290.623779,509.087891 
	C293.064941,508.762177 295.591644,509.077820 298.079742,509.104065 
z"/>
<path fill="#DAE5F3" opacity="1.000000" stroke="none" 
	d="
M264.000000,513.000000 
	C259.643097,513.000000 255.286194,513.000000 250.461899,512.723389 
	C249.991318,512.262451 249.988113,512.078003 250.312149,511.650909 
	C255.098282,511.570129 259.557190,511.732117 264.010986,512.170532 
	C264.003906,512.631348 264.001953,512.815674 264.000000,513.000000 
z"/>
<path fill="#E1EAEF" opacity="1.000000" stroke="none" 
	d="
M249.984924,511.893646 
	C249.988113,512.078003 249.991318,512.262451 249.997253,512.723389 
	C245.974823,513.000000 241.949631,513.000000 237.462219,513.000000 
	C237.000000,513.000000 237.045807,512.670776 237.503998,512.332642 
	C241.969772,511.960907 245.977356,511.927277 249.984924,511.893646 
z"/>
<path fill="#E1EAEF" opacity="1.000000" stroke="none" 
	d="
M264.462219,513.000000 
	C264.001953,512.815674 264.003906,512.631348 264.472107,512.173706 
	C268.928284,512.047668 272.918243,512.194824 276.908234,512.341980 
	C276.908234,512.341980 276.954193,512.671021 276.977112,512.835510 
	C272.974823,513.000000 268.949615,513.000000 264.462219,513.000000 
z"/>
<path fill="#90A9DD" opacity="1.000000" stroke="none" 
	d="
M213.485565,4.927967 
	C218.084305,4.816145 222.254379,4.722260 226.424866,4.650709 
	C243.669830,4.354843 260.915192,3.854232 278.159851,3.876373 
	C285.236572,3.885459 292.311859,5.027572 299.675476,5.403982 
	C307.190033,6.749764 314.481995,8.099990 321.630127,9.993355 
	C336.286896,13.875570 350.815643,18.095030 364.247192,25.494284 
	C370.231476,28.790945 376.752075,31.104595 382.948853,34.034405 
	C383.969910,34.517147 384.575378,35.878780 385.888489,37.275795 
	C392.884216,41.815067 399.364410,45.912781 405.844604,50.010490 
	C406.727173,50.654816 407.609772,51.299137 408.949554,52.232220 
	C409.670654,52.636944 409.903564,52.797794 410.105499,53.003540 
	C410.105499,53.003540 410.003235,52.987862 410.144073,53.251152 
	C415.889984,57.995846 421.495026,62.477242 427.100067,66.958649 
	C427.100067,66.958656 427.024963,66.962898 427.103699,67.257141 
	C432.059784,72.449249 437.213379,77.106133 441.748016,82.303070 
	C448.103516,89.586815 453.998352,97.272537 460.104248,105.134445 
	C460.776062,105.987358 461.433838,106.492149 462.112549,107.196335 
	C462.133514,107.395737 462.126465,107.796654 462.099365,108.176285 
	C464.240204,112.420845 466.606110,116.193398 468.475098,120.197868 
	C469.185638,121.720245 469.519165,124.660080 468.673126,125.392250 
	C467.205139,126.662598 464.713165,126.887619 462.598602,127.232170 
	C460.669495,127.546486 458.671326,127.499802 456.703888,127.495171 
	C455.272247,127.491798 453.842133,127.220215 452.409607,127.201897 
	C444.950073,127.106537 437.489227,127.097260 430.030609,126.962105 
	C427.565125,126.917435 425.107819,126.499474 422.641205,126.414703 
	C420.723145,126.348785 418.785400,126.433052 416.876617,126.638313 
	C415.005585,126.839516 413.133820,127.658562 411.308777,127.532890 
	C407.528259,127.272552 403.793243,126.318237 400.013092,126.093803 
	C392.331726,125.637756 384.634674,125.394897 376.940521,125.222145 
	C371.537903,125.100853 366.117645,125.026787 360.726746,125.322723 
	C355.050262,125.634346 349.390594,126.953835 343.739288,126.862366 
	C334.348755,126.710373 324.977570,125.514549 315.585114,125.276176 
	C309.298309,125.116623 303.152527,126.612404 296.641663,125.371696 
	C291.180206,124.330956 285.255371,125.684784 279.539154,126.034836 
	C276.918579,126.195320 274.140747,127.177773 271.721832,126.594574 
	C264.961761,124.964745 258.501160,124.696434 252.099884,127.875603 
	C251.063675,128.390228 249.570938,128.353424 248.377869,128.119461 
	C243.713699,127.204773 239.108963,125.968681 234.427826,125.170616 
	C233.130188,124.949394 231.422653,125.498604 230.286758,126.263756 
	C226.645569,128.716583 223.460327,127.739983 220.261581,125.496704 
	C219.490326,124.955803 218.593567,124.130539 217.792831,124.172203 
	C213.450592,124.398193 209.109985,124.763359 204.788315,125.252853 
	C197.353378,126.094978 189.933289,127.068108 182.505142,127.971092 
	C182.014282,128.030762 181.505905,127.987885 181.008972,127.949783 
	C172.606232,127.305611 164.213409,126.325195 155.799408,126.085587 
	C144.367126,125.760048 132.915314,126.156372 121.479202,125.907150 
	C117.782799,125.826591 114.120308,124.231689 110.422928,124.143692 
	C105.356529,124.023102 100.592247,126.007507 95.225723,125.794312 
	C86.252197,125.437813 77.197823,127.159531 68.173576,127.962669 
	C67.368706,128.034302 66.536011,127.778305 65.714966,127.685822 
	C62.886780,127.367249 60.064842,126.928543 57.227535,126.774033 
	C54.479755,126.624405 51.696007,126.986000 48.963745,126.734810 
	C44.607059,126.334290 43.218399,123.716103 45.622250,119.910645 
	C50.653305,111.946106 55.999134,104.180611 61.200481,96.323303 
	C62.822552,93.872955 64.395775,91.390274 66.279358,88.762085 
	C73.965279,81.264702 81.406906,73.970932 88.742195,66.571754 
	C92.263725,63.019554 95.584282,59.268127 98.995850,55.606926 
	C98.935051,55.344799 99.022621,55.149052 99.751488,54.942101 
	C100.489021,54.546329 100.733627,54.228134 100.978233,53.909939 
	C100.978233,53.909939 100.973633,53.982265 101.241371,53.960922 
	C101.659431,53.597370 101.809753,53.255165 101.960083,52.912964 
	C101.960083,52.912964 101.976738,52.993572 102.328400,53.057209 
	C103.909698,52.734257 105.295006,52.591515 106.343956,51.921883 
	C113.683540,47.236397 120.978844,42.479645 128.211609,37.631268 
	C129.044968,37.072624 129.406082,35.809517 129.986160,34.873032 
	C131.397079,33.977703 132.807999,33.082371 134.945160,32.078384 
	C137.098297,31.628763 138.589584,31.451990 139.942307,30.921736 
	C155.629028,24.772623 171.301880,18.587811 186.951080,12.343985 
	C188.054810,11.903610 188.943237,10.923588 189.931778,10.194502 
	C197.640213,8.448393 205.348648,6.702283 213.485565,4.927967 
z"/>
<path fill="#93ACE0" opacity="1.000000" stroke="none" 
	d="
M65.991364,88.922386 
	C64.395775,91.390274 62.822552,93.872955 61.200481,96.323303 
	C55.999134,104.180611 50.653305,111.946106 45.622250,119.910645 
	C43.218399,123.716103 44.607059,126.334290 48.963745,126.734810 
	C51.696007,126.986000 54.479755,126.624405 57.227535,126.774033 
	C60.064842,126.928543 62.886780,127.367249 65.714966,127.685822 
	C66.536011,127.778305 67.368706,128.034302 68.173576,127.962669 
	C77.197823,127.159531 86.252197,125.437813 95.225723,125.794312 
	C100.592247,126.007507 105.356529,124.023102 110.422928,124.143692 
	C114.120308,124.231689 117.782799,125.826591 121.479202,125.907150 
	C132.915314,126.156372 144.367126,125.760048 155.799408,126.085587 
	C164.213409,126.325195 172.606232,127.305611 181.008972,127.949783 
	C181.505905,127.987885 182.014282,128.030762 182.505142,127.971092 
	C189.933289,127.068108 197.353378,126.094978 204.788315,125.252853 
	C209.109985,124.763359 213.450592,124.398193 217.792831,124.172203 
	C218.593567,124.130539 219.490326,124.955803 220.261581,125.496704 
	C223.460327,127.739983 226.645569,128.716583 230.286758,126.263756 
	C231.422653,125.498604 233.130188,124.949394 234.427826,125.170616 
	C239.108963,125.968681 243.713699,127.204773 248.377869,128.119461 
	C249.570938,128.353424 251.063675,128.390228 252.099884,127.875603 
	C258.501160,124.696434 264.961761,124.964745 271.721832,126.594574 
	C274.140747,127.177773 276.918579,126.195320 279.539154,126.034836 
	C285.255371,125.684784 291.180206,124.330956 296.641663,125.371696 
	C303.152527,126.612404 309.298309,125.116623 315.585114,125.276176 
	C324.977570,125.514549 334.348755,126.710373 343.739288,126.862366 
	C349.390594,126.953835 355.050262,125.634346 360.726746,125.322723 
	C366.117645,125.026787 371.537903,125.100853 376.940521,125.222145 
	C384.634674,125.394897 392.331726,125.637756 400.013092,126.093803 
	C403.793243,126.318237 407.528259,127.272552 411.308777,127.532890 
	C413.133820,127.658562 415.005585,126.839516 416.876617,126.638313 
	C418.785400,126.433052 420.723145,126.348785 422.641205,126.414703 
	C425.107819,126.499474 427.565125,126.917435 430.030609,126.962105 
	C437.489227,127.097260 444.950073,127.106537 452.409607,127.201897 
	C453.842133,127.220215 455.272247,127.491798 456.703888,127.495171 
	C458.671326,127.499802 460.669495,127.546486 462.598602,127.232170 
	C464.713165,126.887619 467.205139,126.662598 468.673126,125.392250 
	C469.519165,124.660080 469.185638,121.720245 468.475098,120.197868 
	C466.606110,116.193398 464.240204,112.420845 462.381531,108.368889 
	C466.458466,113.832100 470.184448,119.510979 474.029419,125.108109 
	C474.786804,126.210617 476.003174,126.997818 477.007874,127.930435 
	C480.258392,134.032211 483.508942,140.134003 486.791229,146.866364 
	C487.233429,149.327255 487.643890,151.157578 487.810547,153.212463 
	C487.591125,154.069504 487.490326,154.737640 487.658691,155.329132 
	C490.131470,164.016785 490.138000,163.892242 481.186127,164.039780 
	C474.395935,164.151672 467.263763,166.109482 460.899841,164.617722 
	C448.991150,161.826187 437.360748,165.091400 425.605560,164.260925 
	C417.047668,163.656326 408.374512,164.701965 399.751434,164.970337 
	C398.940613,164.995560 397.996277,164.938644 397.325104,164.552643 
	C393.225311,162.194794 390.080933,164.229202 386.900940,166.566650 
	C385.614044,167.512619 384.129364,168.189529 382.835144,168.632797 
	C387.144928,159.969482 391.167755,151.602921 391.473419,141.843948 
	C373.434753,157.256927 351.987152,168.845184 332.047272,173.673187 
	C333.759552,171.673233 335.422119,170.035477 337.917725,167.577148 
	C335.243286,167.280960 333.973999,166.990646 332.713348,167.024277 
	C321.753784,167.316544 310.796448,167.893784 299.837067,167.928085 
	C291.095306,167.955429 282.350342,167.047455 273.609009,167.083572 
	C261.170990,167.134949 248.735657,167.887741 236.297852,167.928253 
	C227.055588,167.958374 217.812775,167.140671 208.567215,167.064194 
	C201.822495,167.008408 195.071228,167.803940 188.325775,167.761581 
	C175.440613,167.680725 162.557831,167.256241 149.673157,167.023788 
	C148.192810,166.997070 146.706985,167.403137 145.223404,167.405167 
	C140.244278,167.411957 135.264969,167.332153 130.285858,167.274506 
	C127.297821,167.239914 124.306366,167.068924 121.322906,167.163406 
	C115.271988,167.355057 109.223534,167.940643 103.177582,167.895218 
	C95.285126,167.835968 87.398117,167.238953 79.504547,167.045715 
	C76.404442,166.969833 73.294632,167.451340 70.186089,167.509048 
	C67.669983,167.555756 65.148781,167.257980 62.630466,167.268173 
	C50.768150,167.316223 38.902512,167.609680 27.045887,167.390961 
	C23.153522,167.319168 22.363142,164.462051 23.486568,160.875443 
	C23.968857,159.335693 23.718447,157.566422 23.866020,155.537811 
	C24.568676,153.505875 25.212671,151.839996 25.842360,150.168732 
	C26.865601,147.452942 27.879478,144.733597 28.897305,142.015762 
	C30.929703,137.892395 32.962101,133.769012 35.439972,129.268997 
	C36.577221,128.518707 37.533360,128.321976 37.920044,127.744148 
	C41.965942,121.698250 45.953644,115.612244 49.849113,109.468643 
	C50.236942,108.857002 49.909054,107.791542 49.913338,106.936707 
	C54.583523,101.138481 59.253708,95.340256 64.361687,89.218277 
	C65.196777,88.903816 65.594063,88.913101 65.991364,88.922386 
z"/>
<path fill="#95AEE1" opacity="1.000000" stroke="none" 
	d="
M382.734650,168.988861 
	C384.129364,168.189529 385.614044,167.512619 386.900940,166.566650 
	C390.080933,164.229202 393.225311,162.194794 397.325104,164.552643 
	C397.996277,164.938644 398.940613,164.995560 399.751434,164.970337 
	C408.374512,164.701965 417.047668,163.656326 425.605560,164.260925 
	C437.360748,165.091400 448.991150,161.826187 460.899841,164.617722 
	C467.263763,166.109482 474.395935,164.151672 481.186127,164.039780 
	C490.138000,163.892242 490.131470,164.016785 487.658691,155.329132 
	C487.490326,154.737640 487.591125,154.069504 488.095764,153.375702 
	C489.707611,154.557205 490.790436,155.800034 491.873291,157.042877 
	C491.873291,157.042877 492.025513,157.412888 492.029510,157.612610 
	C492.442383,159.714462 492.726837,161.653656 493.280426,163.512711 
	C496.828644,175.428696 500.435944,187.327072 503.706848,199.792175 
	C502.955292,201.367264 502.110229,202.398605 502.151855,203.392822 
	C502.454346,210.613434 501.625732,211.083160 494.241119,210.727051 
	C488.971252,210.472885 483.651978,211.515869 478.345947,211.662842 
	C472.935516,211.812729 467.509674,211.690186 462.099274,211.471695 
	C457.454590,211.284103 452.826294,210.581879 448.183258,210.491150 
	C442.845856,210.386887 437.500397,210.712402 432.158112,210.837555 
	C426.341888,210.973816 420.525452,211.101013 414.708771,211.216095 
	C413.599609,211.238052 412.488739,211.160172 411.379120,211.172211 
	C409.035400,211.197647 406.689545,211.200394 404.349243,211.311356 
	C402.558868,211.396255 400.733643,211.963623 398.996887,211.742661 
	C392.824371,210.957428 386.773041,209.462906 380.487305,211.734726 
	C378.595428,212.418488 376.034027,211.048111 373.764526,210.945297 
	C371.474030,210.841507 369.165131,211.143097 366.667542,211.329163 
	C366.253235,211.569244 366.081360,211.783829 365.976501,212.018188 
	C365.997833,212.001358 366.024353,211.953903 365.751556,212.081390 
	C364.701080,212.838150 363.923401,213.467407 362.851013,213.881210 
	C358.536743,209.517944 353.548615,209.798523 348.369751,210.322937 
	C344.418274,210.723038 340.415039,210.612396 336.678772,210.474045 
	C354.512970,199.053085 370.962891,186.619980 382.734650,168.988861 
z"/>
<path fill="#D2DCE9" opacity="1.000000" stroke="none" 
	d="
M460.090240,104.786316 
	C453.998352,97.272537 448.103516,89.586815 441.748016,82.303070 
	C437.213379,77.106133 432.059784,72.449249 427.107513,67.219719 
	C428.832428,67.881149 431.040955,68.495941 432.366516,69.928017 
	C441.791107,80.109810 451.055908,90.440186 460.300293,100.786972 
	C461.103668,101.686188 461.393463,103.044296 461.574402,104.535767 
	C460.848083,104.850304 460.469177,104.818306 460.090240,104.786316 
z"/>
<path fill="#D2DCE9" opacity="1.000000" stroke="none" 
	d="
M476.973175,127.555153 
	C476.003174,126.997818 474.786804,126.210617 474.029419,125.108109 
	C470.184448,119.510979 466.458466,113.832100 462.408630,107.989258 
	C462.126465,107.796654 462.133514,107.395737 462.116882,106.941544 
	C462.086975,106.317993 462.073700,106.148636 462.060394,105.979294 
	C463.386414,106.815735 465.208435,107.342964 465.955048,108.540604 
	C469.768921,114.658478 473.305145,120.949440 476.973175,127.555153 
z"/>
<path fill="#D2DCE9" opacity="1.000000" stroke="none" 
	d="
M405.916565,49.643284 
	C399.364410,45.912781 392.884216,41.815067 386.228455,37.442383 
	C388.912476,38.423290 391.971649,39.362343 394.585052,41.008976 
	C398.548889,43.506516 402.202911,46.495735 405.916565,49.643284 
z"/>
<path fill="#D2DCE9" opacity="1.000000" stroke="none" 
	d="
M427.054626,66.604637 
	C421.495026,62.477242 415.889984,57.995846 410.152924,53.200180 
	C417.068512,55.580513 422.579681,60.228119 427.054626,66.604637 
z"/>
<path fill="#B7C9E7" opacity="1.000000" stroke="none" 
	d="
M491.937256,156.656723 
	C490.790436,155.800034 489.707611,154.557205 488.339539,153.151123 
	C487.643890,151.157578 487.233429,149.327255 486.932800,147.202698 
	C488.695465,150.029160 490.348358,153.149857 491.937256,156.656723 
z"/>
<path fill="#93ACE0" opacity="1.000000" stroke="none" 
	d="
M462.026886,105.702469 
	C462.073700,106.148636 462.086975,106.317993 462.095917,106.742142 
	C461.433838,106.492149 460.776062,105.987358 460.104248,105.134445 
	C460.469177,104.818306 460.848083,104.850304 461.512726,104.892723 
	C461.863403,105.077309 461.928406,105.251472 462.026886,105.702469 
z"/>
<path fill="#D2DCE9" opacity="1.000000" stroke="none" 
	d="
M410.018311,52.778290 
	C409.903564,52.797794 409.670654,52.636944 409.268188,52.362030 
	C409.502167,52.077774 409.769318,52.194427 410.018311,52.778290 
z"/>
<path fill="#A8C1EF" opacity="1.000000" stroke="none" 
	d="
M276.977753,511.921265 
	C272.918243,512.194824 268.928284,512.047668 264.477173,511.897278 
	C259.557190,511.732117 255.098282,511.570129 250.312149,511.650909 
	C245.977356,511.927277 241.969772,511.960907 237.527039,512.168091 
	C236.528732,511.628265 236.035309,510.368317 235.391647,510.286255 
	C229.028397,509.474731 222.641769,508.842896 216.254868,508.231964 
	C215.928741,508.200806 215.539993,508.824280 215.086304,509.497009 
	C204.910355,507.565125 194.828476,505.279236 184.325775,502.537659 
	C183.145660,501.379578 182.502426,500.312775 181.609985,500.028687 
	C163.662094,494.314606 146.323471,487.141510 130.149399,477.481964 
	C121.791176,472.490234 113.992035,466.562378 106.317062,461.044952 
	C109.055283,462.177948 111.433739,463.289948 113.775185,464.475037 
	C122.328735,468.804352 130.647964,472.623444 140.950363,472.244141 
	C162.726501,471.442322 184.557114,472.273163 206.357147,471.922791 
	C227.945709,471.575836 249.522079,473.277802 271.108093,472.017761 
	C279.722107,471.514923 288.326965,474.284302 296.987610,472.077087 
	C298.494415,471.693054 300.255249,472.386017 301.904358,472.466583 
	C310.434540,472.883331 318.966522,473.263672 327.498291,473.646637 
	C327.650635,473.653503 327.803864,473.504852 327.964600,473.480103 
	C331.200134,472.982269 334.421600,472.323547 337.675934,472.029724 
	C350.326324,470.887421 362.931305,473.484314 375.667633,472.240051 
	C382.089264,471.612640 388.047638,470.806824 393.755920,467.706451 
	C398.367584,465.201691 403.283173,463.256561 407.901215,461.359772 
	C406.875336,462.420715 406.074829,463.273407 405.139832,463.936401 
	C383.646973,479.177277 360.416016,490.963074 335.343536,499.120361 
	C333.779999,499.629028 332.466675,500.906799 331.036957,501.826721 
	C322.092926,504.025574 313.156952,506.258026 304.197876,508.393860 
	C302.491791,508.800568 300.694702,508.825500 298.509674,509.065308 
	C295.591644,509.077820 293.064941,508.762177 290.623779,509.087891 
	C286.071991,509.695190 281.570007,510.675476 276.977753,511.921265 
z"/>
<path fill="#DAE5F3" opacity="1.000000" stroke="none" 
	d="
M499.067566,332.089172 
	C499.755310,332.071167 500.443024,332.053162 501.474731,332.034790 
	C499.602570,338.506683 497.508087,345.023712 495.148010,351.443115 
	C487.158447,373.174500 475.324158,392.817566 461.814758,411.464783 
	C457.602112,417.279572 452.417389,422.390167 447.335266,427.915039 
	C446.992828,428.006989 446.960022,427.964752 446.968781,427.637512 
	C446.977905,426.873871 446.978271,426.437469 447.154785,425.718323 
	C452.600433,418.644501 457.869965,411.853485 463.428650,404.893372 
	C469.832733,394.824127 475.947693,384.924011 482.323090,374.803345 
	C486.434540,365.739380 490.285583,356.895996 494.380615,347.790955 
	C496.105560,342.382568 497.586578,337.235870 499.067566,332.089172 
z"/>
<path fill="#DCE7F5" opacity="1.000000" stroke="none" 
	d="
M331.440125,501.892426 
	C332.466675,500.906799 333.779999,499.629028 335.343536,499.120361 
	C360.416016,490.963074 383.646973,479.177277 405.139832,463.936401 
	C406.074829,463.273407 406.875336,462.420715 407.882324,461.351440 
	C408.026184,461.046539 408.043243,461.057251 408.368530,461.013336 
	C409.829559,459.995880 410.965302,459.022369 412.460510,458.037170 
	C413.537720,458.006653 414.255524,457.987732 415.000580,457.997650 
	C415.027863,458.026489 415.082855,458.083801 415.082855,458.083801 
	C407.732513,463.563568 400.686707,469.522430 392.970886,474.427185 
	C374.771912,485.995728 355.085846,494.555664 334.747009,501.628448 
	C333.849426,501.940552 332.814362,501.857239 331.440125,501.892426 
z"/>
<path fill="#DCE7F5" opacity="1.000000" stroke="none" 
	d="
M447.014771,428.022308 
	C446.883789,428.653503 446.936005,429.486542 446.547760,429.853302 
	C437.990784,437.937042 429.384979,445.969147 420.409302,454.020935 
	C420.030090,454.030762 419.973663,453.970428 420.002380,453.626251 
	C421.796173,451.343262 423.486206,449.329285 425.339935,447.479340 
	C431.540436,441.291412 437.799500,435.162201 444.245422,428.897369 
	C444.716064,428.585632 444.900238,428.331146 445.332764,428.014832 
	C446.092194,427.994171 446.526123,427.979462 446.960022,427.964752 
	C446.960022,427.964752 446.992828,428.006989 447.014771,428.022308 
z"/>
<path fill="#DCE7F5" opacity="1.000000" stroke="none" 
	d="
M420.058533,454.060791 
	C418.645630,455.396698 417.204315,456.702606 415.422913,458.046143 
	C415.082855,458.083801 415.027863,458.026489 415.038147,457.647644 
	C416.690155,456.169312 418.331909,455.069885 419.973663,453.970459 
	C419.973663,453.970428 420.030090,454.030762 420.058533,454.060791 
z"/>
<path fill="#9FB9E9" opacity="1.000000" stroke="none" 
	d="
M4.920643,221.043503 
	C4.536393,221.054565 4.152141,221.065613 3.479557,221.071533 
	C6.199207,207.143661 9.207188,193.220886 12.904528,179.115295 
	C14.038091,178.912811 14.482293,178.893173 14.944491,179.279816 
	C12.988107,187.122818 11.013727,194.559540 9.027375,202.413010 
	C7.650483,208.901001 6.285563,214.972260 4.920643,221.043503 
z"/>
<path fill="#DAE5F3" opacity="1.000000" stroke="none" 
	d="
M189.531464,10.138659 
	C188.943237,10.923588 188.054810,11.903610 186.951080,12.343985 
	C171.301880,18.587811 155.629028,24.772623 139.942307,30.921736 
	C138.589584,31.451990 137.098297,31.628763 135.270660,31.978138 
	C148.380997,26.014149 161.833328,19.902784 175.437225,14.149896 
	C179.795731,12.306750 184.555145,11.411661 189.531464,10.138659 
z"/>
<path fill="#D2DCE9" opacity="1.000000" stroke="none" 
	d="
M66.279350,88.762085 
	C65.594063,88.913101 65.196777,88.903816 64.501297,88.898643 
	C73.659691,75.929153 85.717117,65.650879 98.668854,55.783714 
	C95.584282,59.268127 92.263725,63.019554 88.742195,66.571754 
	C81.406906,73.970932 73.965279,81.264702 66.279350,88.762085 
z"/>
<path fill="#E1EAEF" opacity="1.000000" stroke="none" 
	d="
M14.926498,178.873535 
	C14.482293,178.893173 14.038091,178.912811 13.261128,178.949341 
	C18.040705,166.742508 23.153038,154.518768 28.581341,142.155396 
	C27.879478,144.733597 26.865601,147.452942 25.842360,150.168732 
	C25.212671,151.839996 24.568676,153.505875 23.622131,155.784973 
	C20.517603,163.888367 17.722052,171.380951 14.926498,178.873535 
z"/>
<path fill="#DAE5F3" opacity="1.000000" stroke="none" 
	d="
M129.627899,34.966118 
	C129.406082,35.809517 129.044968,37.072624 128.211609,37.631268 
	C120.978844,42.479645 113.683540,47.236397 106.343956,51.921883 
	C105.295006,52.591515 103.909698,52.734257 102.299088,53.028316 
	C111.035278,46.976929 120.152451,41.018066 129.627899,34.966118 
z"/>
<path fill="#D2DCE9" opacity="1.000000" stroke="none" 
	d="
M49.594040,107.072769 
	C49.909054,107.791542 50.236942,108.857002 49.849113,109.468643 
	C45.953644,115.612244 41.965942,121.698250 37.920044,127.744148 
	C37.533360,128.321976 36.577221,128.518707 35.539383,128.906250 
	C39.887127,121.683044 44.580933,114.445946 49.594040,107.072769 
z"/>
<path fill="#DAE5F3" opacity="1.000000" stroke="none" 
	d="
M100.680527,53.982571 
	C100.733627,54.228134 100.489021,54.546329 99.923218,54.932495 
	C99.862282,54.685375 100.122559,54.370289 100.680527,53.982571 
z"/>
<path fill="#DAE5F3" opacity="1.000000" stroke="none" 
	d="
M101.690201,52.971008 
	C101.809753,53.255165 101.659431,53.597370 101.207413,53.948292 
	C101.077248,53.647690 101.248779,53.338371 101.690201,52.971008 
z"/>
<path fill="#9FB9E9" opacity="1.000000" stroke="none" 
	d="
M499.187500,331.737732 
	C497.586578,337.235870 496.105560,342.382568 494.031616,347.824646 
	C491.803070,349.735229 490.296448,351.515930 488.495789,352.919342 
	C486.688232,354.328064 484.611542,356.324890 482.610901,356.374603 
	C476.968872,356.514587 471.306549,355.767120 465.649078,355.421112 
	C464.696259,355.362823 463.719208,355.506042 462.768097,355.652283 
	C460.017029,356.075256 457.277222,356.910217 454.526367,356.938416 
	C441.197662,357.074921 427.866791,357.000000 414.536682,357.000000 
	C406.209991,357.000000 397.876099,357.219727 389.558319,356.947449 
	C377.671204,356.558289 365.796173,355.802551 353.914612,355.231934 
	C353.276489,355.201294 352.627380,355.445648 351.980560,355.543335 
	C348.741974,356.032318 345.507629,356.887909 342.262268,356.933258 
	C330.353149,357.099762 318.440186,356.994965 306.528687,356.994873 
	C296.115967,356.994812 285.701202,356.883209 275.291840,357.070526 
	C272.189362,357.126343 268.917572,357.536865 266.041351,358.625183 
	C256.131012,362.375275 245.806976,363.665466 235.380569,363.921143 
	C221.578552,364.259552 207.994919,363.186432 194.745224,358.306610 
	C186.046265,355.102814 176.634506,356.154388 167.442093,356.865021 
	C153.812439,357.918671 140.180466,355.634796 126.519333,356.794434 
	C122.447784,357.140045 118.272514,356.023285 114.150742,356.072876 
	C107.525520,356.152557 100.906174,356.868347 94.282631,356.895477 
	C88.574020,356.918884 82.860413,356.065460 77.153633,356.116486 
	C66.699188,356.209900 56.238525,357.107544 45.798626,356.870331 
	C36.943993,356.669128 27.023649,358.811615 20.931715,349.187286 
	C20.812361,348.998718 20.303135,349.056946 19.833309,348.716064 
	C19.437706,347.632904 19.184595,346.833740 19.152725,345.858185 
	C18.917732,345.121307 18.461498,344.560822 17.927607,343.635895 
	C16.070866,337.919647 14.375239,332.537445 12.449802,327.238800 
	C12.008036,326.023102 10.775843,325.094574 9.907415,324.033905 
	C7.603182,312.274750 5.298949,300.515625 3.082481,288.366882 
	C3.170246,287.977295 3.629074,287.995758 4.223987,288.107727 
	C5.182461,288.733765 5.742787,289.200378 5.880055,289.769104 
	C7.917689,298.211212 9.940198,306.657532 11.875166,315.123657 
	C12.718241,318.812378 14.784199,320.211243 18.628256,320.075409 
	C25.685804,319.826080 32.762119,319.916443 39.825569,320.081329 
	C46.369183,320.234039 52.906845,320.926636 59.445950,320.910370 
	C66.478127,320.892883 73.506721,320.119629 80.540825,320.044373 
	C94.452362,319.895538 108.367035,319.942017 122.279427,320.043213 
	C125.565804,320.067108 128.842087,320.749634 132.133804,320.917328 
	C140.155716,321.325928 148.183945,321.610321 156.483994,322.115845 
	C157.567764,323.123169 158.471237,323.887604 159.172638,324.806305 
	C171.522919,340.982941 187.028748,352.506561 206.946808,357.781372 
	C228.125931,363.390167 248.704727,361.822937 268.512909,352.579620 
	C282.974670,345.831177 294.665527,335.686371 303.489075,321.986420 
	C310.618652,320.988403 317.347687,319.351929 324.116455,319.166595 
	C333.977448,318.896576 343.867523,319.947266 353.744202,319.927643 
	C365.200714,319.904877 376.655762,319.087677 388.112030,319.072998 
	C398.401337,319.059784 408.689972,319.850189 418.981689,319.930328 
	C425.031830,319.977417 431.085571,319.113251 437.141113,319.061188 
	C442.425659,319.015686 447.714172,319.721161 453.002472,319.744690 
	C457.464355,319.764557 461.932465,319.010345 466.390686,319.077209 
	C476.183411,319.223969 485.976074,319.580322 495.759369,320.047272 
	C499.457367,320.223755 501.179382,318.669769 502.070404,315.201904 
	C502.548828,313.339752 503.994446,311.726074 505.003662,310.000275 
	C503.104919,317.128937 501.206207,324.257599 499.187500,331.737732 
z"/>
<path fill="#DAE5F3" opacity="1.000000" stroke="none" 
	d="
M105.940300,461.057495 
	C113.992035,466.562378 121.791176,472.490234 130.149399,477.481964 
	C146.323471,487.141510 163.662094,494.314606 181.609985,500.028687 
	C182.502426,500.312775 183.145660,501.379578 183.921341,502.447815 
	C138.009491,489.124176 99.230637,464.063934 66.656891,428.696899 
	C66.628868,428.303558 66.986145,428.013702 67.321213,428.010986 
	C68.102669,428.009918 68.549057,428.011627 69.104965,428.226074 
	C69.408524,428.704712 69.659889,428.894775 70.119865,429.306641 
	C80.074532,439.910248 89.941116,450.145905 102.075699,458.328583 
	C103.481354,459.426910 104.720520,460.240387 105.967720,461.048065 
	C105.975761,461.042267 105.940300,461.057495 105.940300,461.057495 
z"/>
<path fill="#DAE5F3" opacity="1.000000" stroke="none" 
	d="
M18.931486,346.034546 
	C19.184595,346.833740 19.437706,347.632904 19.877041,349.081909 
	C24.019857,358.163086 27.976448,366.594452 31.988928,375.378601 
	C38.044888,385.487305 44.044960,395.243195 50.186111,405.301331 
	C52.228348,408.726807 54.129505,411.849945 56.001808,415.000610 
	C55.972946,415.028076 55.915619,415.083374 55.915619,415.083374 
	C50.339008,407.599854 44.263416,400.432159 39.286926,392.568848 
	C28.014067,374.756592 19.223293,355.705444 12.937185,335.548676 
	C11.837306,332.021881 10.993495,328.415222 9.969417,324.439667 
	C10.775843,325.094574 12.008036,326.023102 12.449802,327.238800 
	C14.375239,332.537445 16.070866,337.919647 17.947212,343.928772 
	C18.340149,345.068878 18.635818,345.551727 18.931486,346.034546 
z"/>
<path fill="#DAE5F3" opacity="1.000000" stroke="none" 
	d="
M66.441223,428.436615 
	C62.832535,424.310638 59.411484,420.051636 55.953026,415.437988 
	C55.915619,415.083374 55.972946,415.028076 56.345207,415.036560 
	C60.151360,418.697021 63.585258,422.348999 67.014038,426.336304 
	C67.001328,427.119019 66.993736,427.566345 66.986145,428.013702 
	C66.986145,428.013702 66.628868,428.303558 66.441223,428.436615 
z"/>
<path fill="#9CB6E6" opacity="1.000000" stroke="none" 
	d="
M505.060181,309.611206 
	C503.994446,311.726074 502.548828,313.339752 502.070404,315.201904 
	C501.179382,318.669769 499.457367,320.223755 495.759369,320.047272 
	C485.976074,319.580322 476.183411,319.223969 466.390686,319.077209 
	C461.932465,319.010345 457.464355,319.764557 453.002472,319.744690 
	C447.714172,319.721161 442.425659,319.015686 437.141113,319.061188 
	C431.085571,319.113251 425.031830,319.977417 418.981689,319.930328 
	C408.689972,319.850189 398.401337,319.059784 388.112030,319.072998 
	C376.655762,319.087677 365.200714,319.904877 353.744202,319.927643 
	C343.867523,319.947266 333.977448,318.896576 324.116455,319.166595 
	C317.347687,319.351929 310.618652,320.988403 303.589752,321.663818 
	C304.602783,318.625702 305.897919,315.899933 307.341736,313.051270 
	C307.225647,312.846741 306.960876,312.765076 306.316589,312.711365 
	C298.641968,315.004150 291.443115,317.680359 284.024261,319.416840 
	C276.776733,321.113281 269.312653,321.907715 261.920654,322.932556 
	C261.050354,323.053223 260.034851,322.126740 259.086670,321.685638 
	C259.790009,320.752563 260.354401,319.644836 261.239716,318.940521 
	C261.974854,318.355713 263.110046,318.299408 264.029785,317.917084 
	C276.153351,312.877319 288.575439,308.436462 300.310791,302.612488 
	C314.771423,295.436035 327.663818,286.033875 335.052490,270.984528 
	C336.306793,269.901459 337.614227,268.692047 338.366364,267.202240 
	C339.494080,264.968445 340.465912,263.825470 343.330536,264.995148 
	C345.310272,265.803528 347.809570,265.559174 350.058990,265.443054 
	C355.170135,265.179108 360.560944,263.471680 365.309967,264.591217 
	C373.315613,266.478455 381.031769,266.255646 388.930237,265.059509 
	C395.184082,264.112427 401.450958,262.565094 407.422241,266.399963 
	C408.131439,266.855438 409.608215,266.132996 410.724854,265.932587 
	C412.347534,265.641235 413.974243,265.031158 415.585388,265.074249 
	C423.662842,265.290253 431.742981,265.552826 439.808472,266.030518 
	C450.124725,266.641510 460.390228,261.729156 470.735962,265.781342 
	C471.110657,265.928101 471.680481,265.477631 472.166931,265.452698 
	C479.915833,265.055847 487.669983,264.750122 495.414337,264.281189 
	C500.595551,263.967468 505.763153,263.429718 510.936859,262.992188 
	C508.996796,278.402191 507.056732,293.812195 505.060181,309.611206 
z"/>
<path fill="#98B2E4" opacity="1.000000" stroke="none" 
	d="
M510.953735,262.524628 
	C505.763153,263.429718 500.595551,263.967468 495.414337,264.281189 
	C487.669983,264.750122 479.915833,265.055847 472.166931,265.452698 
	C471.680481,265.477631 471.110657,265.928101 470.735962,265.781342 
	C460.390228,261.729156 450.124725,266.641510 439.808472,266.030518 
	C431.742981,265.552826 423.662842,265.290253 415.585388,265.074249 
	C413.974243,265.031158 412.347534,265.641235 410.724854,265.932587 
	C409.608215,266.132996 408.131439,266.855438 407.422241,266.399963 
	C401.450958,262.565094 395.184082,264.112427 388.930237,265.059509 
	C381.031769,266.255646 373.315613,266.478455 365.309967,264.591217 
	C360.560944,263.471680 355.170135,265.179108 350.058990,265.443054 
	C347.809570,265.559174 345.310272,265.803528 343.330536,264.995148 
	C340.465912,263.825470 339.494080,264.968445 338.366364,267.202240 
	C337.614227,268.692047 336.306793,269.901459 335.069458,270.662506 
	C334.891022,269.297760 334.891022,268.506927 334.891022,267.838165 
	C330.819794,269.954865 326.918182,271.983368 322.787811,273.803284 
	C324.550385,271.381165 326.541687,269.167633 329.181183,266.233582 
	C321.358490,265.955994 314.523621,265.384186 307.966797,269.219666 
	C305.692108,270.550232 302.533813,270.370270 300.028442,270.627136 
	C302.094025,269.549561 303.921356,268.748596 305.724762,267.897034 
	C324.111481,259.214752 341.967010,249.682983 355.465271,233.925278 
	C360.868011,227.618210 365.859192,220.885025 366.024353,211.953903 
	C366.024353,211.953903 365.997833,212.001358 366.168762,211.944565 
	C366.566650,211.724930 366.741516,211.518036 366.864288,211.267105 
	C369.165131,211.143097 371.474030,210.841507 373.764526,210.945297 
	C376.034027,211.048111 378.595428,212.418488 380.487305,211.734726 
	C386.773041,209.462906 392.824371,210.957428 398.996887,211.742661 
	C400.733643,211.963623 402.558868,211.396255 404.349243,211.311356 
	C406.689545,211.200394 409.035400,211.197647 411.379120,211.172211 
	C412.488739,211.160172 413.599609,211.238052 414.708771,211.216095 
	C420.525452,211.101013 426.341888,210.973816 432.158112,210.837555 
	C437.500397,210.712402 442.845856,210.386887 448.183258,210.491150 
	C452.826294,210.581879 457.454590,211.284103 462.099274,211.471695 
	C467.509674,211.690186 472.935516,211.812729 478.345947,211.662842 
	C483.651978,211.515869 488.971252,210.472885 494.241119,210.727051 
	C501.625732,211.083160 502.454346,210.613434 502.151855,203.392822 
	C502.110229,202.398605 502.955292,201.367264 503.709839,200.171402 
	C505.622742,207.698135 507.887512,215.340195 508.657135,223.129974 
	C509.934174,236.055679 510.249908,249.076385 510.953735,262.524628 
z"/>
<path fill="#9CB6E6" opacity="1.000000" stroke="none" 
	d="
M156.209641,321.944733 
	C148.183945,321.610321 140.155716,321.325928 132.133804,320.917328 
	C128.842087,320.749634 125.565804,320.067108 122.279427,320.043213 
	C108.367035,319.942017 94.452362,319.895538 80.540825,320.044373 
	C73.506721,320.119629 66.478127,320.892883 59.445950,320.910370 
	C52.906845,320.926636 46.369183,320.234039 39.825569,320.081329 
	C32.762119,319.916443 25.685804,319.826080 18.628256,320.075409 
	C14.784199,320.211243 12.718241,318.812378 11.875166,315.123657 
	C9.940198,306.657532 7.917689,298.211212 5.880055,289.769104 
	C5.742787,289.200378 5.182461,288.733765 4.452952,288.124756 
	C3.730121,283.302185 3.373236,278.574554 3.415063,273.431030 
	C6.020135,273.974915 8.227009,275.758392 10.432771,275.756989 
	C22.281000,275.749603 34.127979,275.108368 45.977245,275.047760 
	C60.956871,274.971100 75.938118,275.272064 90.918991,275.347504 
	C96.168694,275.373962 101.419167,275.169220 106.669579,275.150879 
	C115.158279,275.121216 123.670006,275.541901 132.128433,275.039185 
	C138.291321,274.672943 141.555847,276.835968 142.073227,282.957733 
	C142.190338,284.343506 143.232651,285.651154 143.911560,287.399200 
	C144.563843,290.354858 144.874405,293.011810 145.793488,295.438293 
	C149.155869,304.315308 152.720917,313.115570 156.209641,321.944733 
z"/>
<path fill="#97B2E3" opacity="1.000000" stroke="none" 
	d="
M4.924036,221.472946 
	C6.285563,214.972260 7.650483,208.901001 9.374063,202.494217 
	C9.977357,203.140869 10.634345,204.238052 10.397847,205.086060 
	C9.127584,209.640854 10.955426,211.053329 15.384052,211.097458 
	C18.983299,211.133301 22.559750,212.204865 26.172249,212.506851 
	C29.960573,212.823517 33.797806,213.054260 37.581413,212.814194 
	C43.636612,212.430023 49.665611,211.136673 55.704918,211.141754 
	C61.410545,211.146561 67.385719,213.728012 72.760933,212.688034 
	C82.371910,210.828537 91.808372,212.644394 101.300682,212.088226 
	C108.345169,211.675476 115.437218,212.123459 122.507713,212.095291 
	C135.283920,212.044403 148.059753,211.910141 160.835892,211.838989 
	C167.085953,211.804184 173.336365,211.832977 179.984253,211.832977 
	C179.555069,214.300354 179.305527,215.734879 178.869141,217.442551 
	C176.955887,219.008194 175.206223,220.270889 173.506958,221.598099 
	C162.660660,230.069778 155.060791,241.041412 148.977356,252.923706 
	C148.288910,248.710129 147.028275,246.422394 142.212463,246.996124 
	C136.773727,247.644119 131.195450,247.220367 125.681000,247.108200 
	C118.785355,246.967957 111.893456,246.644135 104.997856,246.497620 
	C104.523033,246.487534 104.095451,247.450348 103.531364,247.682877 
	C102.719200,248.017670 101.785904,248.315155 100.931961,248.252380 
	C92.508469,247.633057 84.093758,246.893677 75.669662,246.283676 
	C72.730095,246.070816 69.753685,245.884354 66.824997,246.101868 
	C60.229610,246.591690 53.631481,248.032104 47.074772,247.822861 
	C37.340515,247.512207 27.641554,246.104218 17.926163,245.178085 
	C17.105511,245.099854 15.977049,244.773041 15.494666,245.171188 
	C11.447785,248.511520 7.618753,245.629822 3.719262,244.929825 
	C3.742568,243.882095 3.765874,242.834366 4.177137,241.337402 
	C7.932755,238.255127 7.908168,235.940506 3.918365,233.998062 
	C4.254720,229.966171 4.591075,225.934280 4.924036,221.472946 
z"/>
<path fill="#99B3E5" opacity="1.000000" stroke="none" 
	d="
M3.493456,245.243729 
	C7.618753,245.629822 11.447785,248.511520 15.494666,245.171188 
	C15.977049,244.773041 17.105511,245.099854 17.926163,245.178085 
	C27.641554,246.104218 37.340515,247.512207 47.074772,247.822861 
	C53.631481,248.032104 60.229610,246.591690 66.824997,246.101868 
	C69.753685,245.884354 72.730095,246.070816 75.669662,246.283676 
	C84.093758,246.893677 92.508469,247.633057 100.931961,248.252380 
	C101.785904,248.315155 102.719200,248.017670 103.531364,247.682877 
	C104.095451,247.450348 104.523033,246.487534 104.997856,246.497620 
	C111.893456,246.644135 118.785355,246.967957 125.681000,247.108200 
	C131.195450,247.220367 136.773727,247.644119 142.212463,246.996124 
	C147.028275,246.422394 148.288910,248.710129 148.946320,253.289673 
	C145.156250,264.675018 144.239441,275.793121 143.849091,286.994751 
	C143.232651,285.651154 142.190338,284.343506 142.073227,282.957733 
	C141.555847,276.835968 138.291321,274.672943 132.128433,275.039185 
	C123.670006,275.541901 115.158279,275.121216 106.669579,275.150879 
	C101.419167,275.169220 96.168694,275.373962 90.918991,275.347504 
	C75.938118,275.272064 60.956871,274.971100 45.977245,275.047760 
	C34.127979,275.108368 22.281000,275.749603 10.432771,275.756989 
	C8.227009,275.758392 6.020135,273.974915 3.444806,273.005737 
	C3.013549,269.980377 2.951262,266.964478 3.189965,263.204834 
	C3.291065,258.957855 3.091175,255.454636 2.891284,251.951416 
	C3.016739,249.820160 3.142194,247.688889 3.493456,245.243729 
z"/>
<path fill="#9FB9E9" opacity="1.000000" stroke="none" 
	d="
M2.650154,252.274841 
	C3.091175,255.454636 3.291065,258.957855 3.196092,262.753693 
	C2.737160,259.563629 2.573092,256.080933 2.650154,252.274841 
z"/>
<path fill="#99B3E5" opacity="1.000000" stroke="none" 
	d="
M3.894142,234.435272 
	C7.908168,235.940506 7.932755,238.255127 4.201817,240.944855 
	C3.849000,238.958527 3.859459,236.915512 3.894142,234.435272 
z"/>
<path fill="#FEFFFF" opacity="1.000000" stroke="none" 
	d="
M143.911560,287.399200 
	C144.239441,275.793121 145.156250,264.675018 149.109711,253.667816 
	C155.060791,241.041412 162.660660,230.069778 173.506958,221.598099 
	C175.206223,220.270889 176.955887,219.008194 179.207458,217.343842 
	C190.628586,209.978195 202.507828,205.552155 215.213104,203.171066 
	C227.591476,200.851227 240.013382,198.691666 252.282532,195.878815 
	C268.257721,192.216278 284.101105,187.978867 300.380005,183.976501 
	C303.835938,182.942062 306.913116,181.919968 310.278351,180.954254 
	C311.077637,180.779037 311.588867,180.547455 312.488708,180.252228 
	C316.937439,178.826859 320.997498,177.465149 325.386871,176.078278 
	C326.152954,176.007812 326.589722,175.962509 327.273071,175.866058 
	C327.721680,175.552505 327.923767,175.290115 328.463379,175.018433 
	C329.866486,174.684555 330.932037,174.359970 331.997589,174.035370 
	C351.987152,168.845184 373.434753,157.256927 391.473419,141.843948 
	C391.167755,151.602921 387.144928,159.969482 382.835144,168.632782 
	C370.962891,186.619980 354.512970,199.053085 336.366089,210.542725 
	C323.752136,216.828049 311.913330,223.297592 299.575562,228.607834 
	C287.390381,233.852417 274.682678,237.877396 262.259888,242.584351 
	C261.000061,243.061691 260.123230,244.549774 259.068665,245.568802 
	C260.147827,245.970825 261.310730,246.868484 262.293945,246.702423 
	C287.023926,242.525345 311.651978,237.853699 335.252747,229.050323 
	C345.202026,225.339127 355.203308,221.605637 363.145721,214.096649 
	C363.923401,213.467407 364.701080,212.838150 365.751556,212.081390 
	C365.859192,220.885025 360.868011,227.618210 355.465271,233.925278 
	C341.967010,249.682983 324.111481,259.214752 305.724762,267.897034 
	C303.921356,268.748596 302.094025,269.549561 299.672333,270.681030 
	C286.688873,275.380432 274.291077,279.718658 261.959686,284.238190 
	C260.524139,284.764313 259.456268,286.293549 258.217926,287.357727 
	C259.911133,287.800690 261.678192,288.803558 263.285004,288.591614 
	C271.015869,287.571991 278.852264,286.801514 286.372833,284.862793 
	C298.700562,281.684845 310.813202,277.672394 323.016541,274.011871 
	C326.918182,271.983368 330.819794,269.954865 334.891022,267.838165 
	C334.891022,268.506927 334.891022,269.297760 334.874084,270.410645 
	C327.663818,286.033875 314.771423,295.436035 300.310791,302.612488 
	C288.575439,308.436462 276.153351,312.877319 264.029785,317.917084 
	C263.110046,318.299408 261.974854,318.355713 261.239716,318.940521 
	C260.354401,319.644836 259.790009,320.752563 259.086670,321.685638 
	C260.034851,322.126740 261.050354,323.053223 261.920654,322.932556 
	C269.312653,321.907715 276.776733,321.113281 284.024261,319.416840 
	C291.443115,317.680359 298.641968,315.004150 306.439514,312.835388 
	C306.941925,312.931488 307.193054,313.174164 307.193054,313.174164 
	C305.897919,315.899933 304.602783,318.625702 303.206970,321.674042 
	C294.665527,335.686371 282.974670,345.831177 268.512909,352.579620 
	C248.704727,361.822937 228.125931,363.390167 206.946808,357.781372 
	C187.028748,352.506561 171.522919,340.982941 159.172638,324.806305 
	C158.471237,323.887604 157.567764,323.123169 156.483994,322.115845 
	C152.720917,313.115570 149.155869,304.315308 145.793488,295.438293 
	C144.874405,293.011810 144.563843,290.354858 143.911560,287.399200 
z"/>
<path fill="#95AFE1" opacity="1.000000" stroke="none" 
	d="
M300.001221,183.988861 
	C284.101105,187.978867 268.257721,192.216278 252.282532,195.878815 
	C240.013382,198.691666 227.591476,200.851227 215.213104,203.171066 
	C202.507828,205.552155 190.628586,209.978195 179.394333,217.070709 
	C179.305527,215.734879 179.555069,214.300354 179.984253,211.832977 
	C173.336365,211.832977 167.085953,211.804184 160.835892,211.838989 
	C148.059753,211.910141 135.283920,212.044403 122.507713,212.095291 
	C115.437218,212.123459 108.345169,211.675476 101.300682,212.088226 
	C91.808372,212.644394 82.371910,210.828537 72.760933,212.688034 
	C67.385719,213.728012 61.410545,211.146561 55.704918,211.141754 
	C49.665611,211.136673 43.636612,212.430023 37.581413,212.814194 
	C33.797806,213.054260 29.960573,212.823517 26.172249,212.506851 
	C22.559750,212.204865 18.983299,211.133301 15.384052,211.097458 
	C10.955426,211.053329 9.127584,209.640854 10.397847,205.086060 
	C10.634345,204.238052 9.977357,203.140869 9.386034,202.077469 
	C11.013727,194.559540 12.988107,187.122818 14.944493,179.279816 
	C17.722052,171.380951 20.517603,163.888367 23.557045,156.148621 
	C23.718447,157.566422 23.968857,159.335693 23.486568,160.875443 
	C22.363142,164.462051 23.153522,167.319168 27.045887,167.390961 
	C38.902512,167.609680 50.768150,167.316223 62.630466,167.268173 
	C65.148781,167.257980 67.669983,167.555756 70.186089,167.509048 
	C73.294632,167.451340 76.404442,166.969833 79.504547,167.045715 
	C87.398117,167.238953 95.285126,167.835968 103.177582,167.895218 
	C109.223534,167.940643 115.271988,167.355057 121.322906,167.163406 
	C124.306366,167.068924 127.297821,167.239914 130.285858,167.274506 
	C135.264969,167.332153 140.244278,167.411957 145.223404,167.405167 
	C146.706985,167.403137 148.192810,166.997070 149.673157,167.023788 
	C162.557831,167.256241 175.440613,167.680725 188.325775,167.761581 
	C195.071228,167.803940 201.822495,167.008408 208.567215,167.064194 
	C217.812775,167.140671 227.055588,167.958374 236.297852,167.928253 
	C248.735657,167.887741 261.170990,167.134949 273.609009,167.083572 
	C282.350342,167.047455 291.095306,167.955429 299.837067,167.928085 
	C310.796448,167.893784 321.753784,167.316544 332.713348,167.024277 
	C333.973999,166.990646 335.243286,167.280960 337.917725,167.577148 
	C335.422119,170.035477 333.759552,171.673233 332.047272,173.673187 
	C330.932037,174.359970 329.866486,174.684555 328.236267,175.107971 
	C327.381622,175.375519 327.166595,175.612335 327.026520,175.917206 
	C326.589722,175.962509 326.152954,176.007812 325.143250,175.805328 
	C321.920410,176.006882 319.166382,176.152130 316.656891,177.011505 
	C314.959778,177.592697 313.606903,179.179092 312.100067,180.315872 
	C311.588867,180.547455 311.077637,180.779037 310.211273,180.637772 
	C306.081848,180.211365 302.110535,179.636383 300.001221,183.988861 
z"/>
<path fill="#98B2E4" opacity="1.000000" stroke="none" 
	d="
M362.851013,213.881226 
	C355.203308,221.605637 345.202026,225.339127 335.252747,229.050323 
	C311.651978,237.853699 287.023926,242.525345 262.293945,246.702423 
	C261.310730,246.868484 260.147827,245.970825 259.068665,245.568802 
	C260.123230,244.549774 261.000061,243.061691 262.259888,242.584351 
	C274.682678,237.877396 287.390381,233.852417 299.575562,228.607834 
	C311.913330,223.297592 323.752136,216.828049 336.122192,210.797653 
	C340.415039,210.612396 344.418274,210.723038 348.369751,210.322937 
	C353.548615,209.798523 358.536743,209.517944 362.851013,213.881226 
z"/>
<path fill="#FEFFFF" opacity="1.000000" stroke="none" 
	d="
M366.667542,211.329163 
	C366.741516,211.518036 366.566650,211.724930 366.147400,211.961395 
	C366.081360,211.783829 366.253235,211.569244 366.667542,211.329163 
z"/>
<path fill="#A5BFEE" opacity="1.000000" stroke="none" 
	d="
M101.909203,458.043732 
	C89.941116,450.145905 80.074532,439.910248 70.490814,429.310455 
	C72.844170,430.212158 75.239578,431.099945 77.067703,432.654724 
	C86.683510,440.832916 97.114799,444.220490 109.420898,439.213226 
	C110.983444,438.577423 113.037758,439.140350 114.863998,439.165161 
	C116.795921,439.191406 118.727867,439.281616 120.659264,439.267883 
	C126.236000,439.228210 131.812363,439.115265 137.389069,439.097168 
	C142.976532,439.079041 148.564346,439.125427 154.151779,439.172119 
	C158.553085,439.208893 162.963135,439.135834 167.352295,439.397125 
	C171.055298,439.617645 174.730743,440.569550 178.424133,440.605438 
	C181.938156,440.639557 185.471176,439.493469 188.975601,439.591370 
	C198.169632,439.848145 207.351486,440.524628 216.541534,440.963562 
	C217.671570,441.017548 218.816788,440.547241 219.963913,440.485016 
	C225.768570,440.170227 231.578583,439.644745 237.382156,439.697357 
	C244.741257,439.763977 252.097733,440.604462 259.451965,440.559845 
	C264.618439,440.528534 270.247742,438.034668 274.824432,439.424988 
	C280.581757,441.173950 285.604218,438.209045 291.048889,439.351532 
	C295.951630,440.380310 301.110840,440.194092 306.158508,440.519348 
	C307.283020,440.591797 308.690399,441.003235 309.492950,440.500702 
	C312.507568,438.613129 315.272278,438.432068 318.326691,440.419037 
	C319.119202,440.934601 320.524078,440.609894 321.634796,440.517242 
	C325.662445,440.181213 329.684662,439.486115 333.708954,439.485901 
	C337.710907,439.485687 342.406250,441.686096 345.582031,440.244263 
	C354.349152,436.263885 362.901672,442.038177 371.718933,439.344360 
	C377.850555,437.471069 384.759888,440.561798 391.587402,439.251068 
	C396.546997,438.298950 401.944946,439.833588 407.152557,439.910400 
	C412.003632,439.981964 416.947357,438.955658 421.690857,439.595215 
	C425.943909,440.168671 428.876221,439.233032 432.111938,436.584930 
	C435.729828,433.624084 440.031860,431.499237 444.036133,429.010498 
	C437.799500,435.162201 431.540436,441.291412 425.339935,447.479340 
	C423.486206,449.329285 421.796173,451.343262 420.002380,453.626282 
	C418.331909,455.069885 416.690155,456.169312 415.010864,457.618774 
	C414.255524,457.987732 413.537720,458.006653 412.085938,458.026794 
	C410.249023,459.037781 409.146118,460.047516 408.043243,461.057251 
	C408.043243,461.057251 408.026184,461.046539 408.045044,461.054871 
	C403.283173,463.256561 398.367584,465.201691 393.755920,467.706451 
	C388.047638,470.806824 382.089264,471.612640 375.667633,472.240051 
	C362.931305,473.484314 350.326324,470.887421 337.675934,472.029724 
	C334.421600,472.323547 331.200134,472.982269 327.964600,473.480103 
	C327.803864,473.504852 327.650635,473.653503 327.498291,473.646637 
	C318.966522,473.263672 310.434540,472.883331 301.904358,472.466583 
	C300.255249,472.386017 298.494415,471.693054 296.987610,472.077087 
	C288.326965,474.284302 279.722107,471.514923 271.108093,472.017761 
	C249.522079,473.277802 227.945709,471.575836 206.357147,471.922791 
	C184.557114,472.273163 162.726501,471.442322 140.950363,472.244141 
	C130.647964,472.623444 122.328735,468.804352 113.775185,464.475037 
	C111.433739,463.289948 109.055283,462.177948 106.317062,461.044952 
	C105.940300,461.057495 105.975761,461.042267 105.934509,460.685974 
	C104.565247,459.567688 103.237221,458.805725 101.909203,458.043732 
z"/>
<path fill="#A1BAEA" opacity="1.000000" stroke="none" 
	d="
M31.933044,375.025787 
	C27.976448,366.594452 24.019857,358.163086 20.019535,349.365906 
	C20.303135,349.056946 20.812361,348.998718 20.931715,349.187286 
	C27.023649,358.811615 36.943993,356.669128 45.798626,356.870331 
	C56.238525,357.107544 66.699188,356.209900 77.153633,356.116486 
	C82.860413,356.065460 88.574020,356.918884 94.282631,356.895477 
	C100.906174,356.868347 107.525520,356.152557 114.150742,356.072876 
	C118.272514,356.023285 122.447784,357.140045 126.519333,356.794434 
	C140.180466,355.634796 153.812439,357.918671 167.442093,356.865021 
	C176.634506,356.154388 186.046265,355.102814 194.745224,358.306610 
	C207.994919,363.186432 221.578552,364.259552 235.380569,363.921143 
	C245.806976,363.665466 256.131012,362.375275 266.041351,358.625183 
	C268.917572,357.536865 272.189362,357.126343 275.291840,357.070526 
	C285.701202,356.883209 296.115967,356.994812 306.528687,356.994873 
	C318.440186,356.994965 330.353149,357.099762 342.262268,356.933258 
	C345.507629,356.887909 348.741974,356.032318 351.980560,355.543335 
	C352.627380,355.445648 353.276489,355.201294 353.914612,355.231934 
	C365.796173,355.802551 377.671204,356.558289 389.558319,356.947449 
	C397.876099,357.219727 406.209991,357.000000 414.536682,357.000000 
	C427.866791,357.000000 441.197662,357.074921 454.526367,356.938416 
	C457.277222,356.910217 460.017029,356.075256 462.768097,355.652283 
	C463.719208,355.506042 464.696259,355.362823 465.649078,355.421112 
	C471.306549,355.767120 476.968872,356.514587 482.610901,356.374603 
	C484.611542,356.324890 486.688232,354.328064 488.495789,352.919342 
	C490.296448,351.515930 491.803070,349.735229 493.787628,348.086304 
	C490.285583,356.895996 486.434540,365.739380 481.967896,374.838623 
	C480.131409,376.572601 478.690399,377.921082 477.729462,379.552338 
	C474.357056,385.277283 470.084717,388.367676 462.814209,388.162842 
	C445.080841,387.663208 427.323944,388.000000 409.576508,388.000000 
	C387.731140,388.000000 365.885376,387.924255 344.040497,388.027008 
	C329.819031,388.093903 315.598969,388.509949 301.377869,388.533966 
	C299.257141,388.537567 297.118225,386.615326 295.015350,386.668915 
	C288.334167,386.839203 281.657104,388.031738 274.994568,387.914276 
	C252.987091,387.526215 230.990005,388.491791 208.959442,387.463135 
	C193.302231,386.732056 177.546478,388.389404 161.830185,388.558197 
	C148.979431,388.696198 136.122467,388.171661 123.267380,388.008240 
	C99.379372,387.704529 75.465866,386.729980 51.615456,387.553925 
	C42.919544,387.854309 39.431976,383.659210 35.458843,378.046234 
	C34.591755,376.821289 33.124115,376.021423 31.933044,375.025787 
z"/>
<path fill="#A2BCEC" opacity="1.000000" stroke="none" 
	d="
M31.988932,375.378601 
	C33.124115,376.021423 34.591755,376.821289 35.458843,378.046234 
	C39.431976,383.659210 42.919544,387.854309 51.615456,387.553925 
	C75.465866,386.729980 99.379372,387.704529 123.267380,388.008240 
	C136.122467,388.171661 148.979431,388.696198 161.830185,388.558197 
	C177.546478,388.389404 193.302231,386.732056 208.959442,387.463135 
	C230.990005,388.491791 252.987091,387.526215 274.994568,387.914276 
	C281.657104,388.031738 288.334167,386.839203 295.015350,386.668915 
	C297.118225,386.615326 299.257141,388.537567 301.377869,388.533966 
	C315.598969,388.509949 329.819031,388.093903 344.040497,388.027008 
	C365.885376,387.924255 387.731140,388.000000 409.576508,388.000000 
	C427.323944,388.000000 445.080841,387.663208 462.814209,388.162842 
	C470.084717,388.367676 474.357056,385.277283 477.729462,379.552338 
	C478.690399,377.921082 480.131409,376.572601 481.707489,375.059204 
	C475.947693,384.924011 469.832733,394.824127 463.047943,404.878235 
	C460.243591,406.704285 457.709930,408.054962 456.053467,410.111969 
	C451.981323,415.169037 448.616913,421.105103 440.463959,418.041077 
	C439.739105,417.768646 438.810455,418.001923 437.979767,418.053375 
	C427.594635,418.696533 417.214905,419.773041 406.824219,419.889984 
	C394.558472,420.027985 382.283752,419.323761 370.012146,419.016144 
	C365.921295,418.913544 361.823761,418.765015 357.736694,418.886719 
	C348.276764,419.168457 338.822693,419.650787 329.362457,419.916473 
	C328.113190,419.951538 326.853882,419.149017 325.576843,418.821747 
	C324.474243,418.539154 323.314636,418.113190 322.223846,418.215546 
	C318.248413,418.588562 314.302673,419.391144 310.324005,419.583832 
	C306.443726,419.771790 302.537415,419.385162 298.641479,419.301331 
	C296.277161,419.250458 293.897583,419.147064 291.550690,419.356659 
	C290.279694,419.470184 289.036194,420.638794 287.825958,420.566559 
	C278.644226,420.018585 269.420654,418.394989 260.319977,418.940338 
	C254.986740,419.259979 249.966415,419.837067 244.874115,418.079498 
	C244.596252,417.983612 244.224319,418.172577 243.894272,418.213654 
	C237.396637,419.022400 230.912704,419.999176 224.392578,420.535187 
	C222.356781,420.702576 219.380875,418.556396 218.274414,419.386780 
	C212.274368,423.889893 206.648529,418.429077 200.538788,419.208923 
	C188.582581,420.734985 176.209885,417.877625 164.121353,420.890625 
	C162.916504,421.190948 161.508591,420.686157 160.196198,420.543213 
	C158.301666,420.336914 156.411484,420.084137 154.513779,419.914734 
	C150.458817,419.552795 146.405533,419.114899 142.341476,418.928864 
	C138.762802,418.765076 135.164001,418.773376 131.586334,418.951599 
	C129.286362,419.066193 127.001724,419.970551 124.722000,419.925415 
	C115.476631,419.742218 106.237251,419.142151 96.992790,419.071350 
	C91.621849,419.030182 86.240189,420.028961 80.873276,419.942657 
	C77.065193,419.881439 73.101395,417.792511 69.519066,418.412140 
	C65.190987,419.160767 63.865253,416.871887 61.472965,414.436462 
	C58.037537,410.939148 56.412945,404.984070 50.045029,404.999054 
	C44.044960,395.243195 38.044888,385.487305 31.988932,375.378601 
z"/>
<path fill="#A4BEEC" opacity="1.000000" stroke="none" 
	d="
M50.186111,405.301331 
	C56.412945,404.984070 58.037537,410.939148 61.472965,414.436462 
	C63.865253,416.871887 65.190987,419.160767 69.519066,418.412140 
	C73.101395,417.792511 77.065193,419.881439 80.873276,419.942657 
	C86.240189,420.028961 91.621849,419.030182 96.992790,419.071350 
	C106.237251,419.142151 115.476631,419.742218 124.722000,419.925415 
	C127.001724,419.970551 129.286362,419.066193 131.586334,418.951599 
	C135.164001,418.773376 138.762802,418.765076 142.341476,418.928864 
	C146.405533,419.114899 150.458817,419.552795 154.513779,419.914734 
	C156.411484,420.084137 158.301666,420.336914 160.196198,420.543213 
	C161.508591,420.686157 162.916504,421.190948 164.121353,420.890625 
	C176.209885,417.877625 188.582581,420.734985 200.538788,419.208923 
	C206.648529,418.429077 212.274368,423.889893 218.274414,419.386780 
	C219.380875,418.556396 222.356781,420.702576 224.392578,420.535187 
	C230.912704,419.999176 237.396637,419.022400 243.894272,418.213654 
	C244.224319,418.172577 244.596252,417.983612 244.874115,418.079498 
	C249.966415,419.837067 254.986740,419.259979 260.319977,418.940338 
	C269.420654,418.394989 278.644226,420.018585 287.825958,420.566559 
	C289.036194,420.638794 290.279694,419.470184 291.550690,419.356659 
	C293.897583,419.147064 296.277161,419.250458 298.641479,419.301331 
	C302.537415,419.385162 306.443726,419.771790 310.324005,419.583832 
	C314.302673,419.391144 318.248413,418.588562 322.223846,418.215546 
	C323.314636,418.113190 324.474243,418.539154 325.576843,418.821747 
	C326.853882,419.149017 328.113190,419.951538 329.362457,419.916473 
	C338.822693,419.650787 348.276764,419.168457 357.736694,418.886719 
	C361.823761,418.765015 365.921295,418.913544 370.012146,419.016144 
	C382.283752,419.323761 394.558472,420.027985 406.824219,419.889984 
	C417.214905,419.773041 427.594635,418.696533 437.979767,418.053375 
	C438.810455,418.001923 439.739105,417.768646 440.463959,418.041077 
	C448.616913,421.105103 451.981323,415.169037 456.053467,410.111969 
	C457.709930,408.054962 460.243591,406.704285 462.758789,405.047363 
	C457.869965,411.853485 452.600433,418.644501 446.841675,425.770630 
	C445.903992,426.744080 445.455597,427.382446 445.007202,428.020782 
	C444.900238,428.331146 444.716064,428.585632 444.245422,428.897400 
	C440.031860,431.499237 435.729828,433.624084 432.111938,436.584930 
	C428.876221,439.233032 425.943909,440.168671 421.690857,439.595215 
	C416.947357,438.955658 412.003632,439.981964 407.152557,439.910400 
	C401.944946,439.833588 396.546997,438.298950 391.587402,439.251068 
	C384.759888,440.561798 377.850555,437.471069 371.718933,439.344360 
	C362.901672,442.038177 354.349152,436.263885 345.582031,440.244263 
	C342.406250,441.686096 337.710907,439.485687 333.708954,439.485901 
	C329.684662,439.486115 325.662445,440.181213 321.634796,440.517242 
	C320.524078,440.609894 319.119202,440.934601 318.326691,440.419037 
	C315.272278,438.432068 312.507568,438.613129 309.492950,440.500702 
	C308.690399,441.003235 307.283020,440.591797 306.158508,440.519348 
	C301.110840,440.194092 295.951630,440.380310 291.048889,439.351532 
	C285.604218,438.209045 280.581757,441.173950 274.824432,439.424988 
	C270.247742,438.034668 264.618439,440.528534 259.451965,440.559845 
	C252.097733,440.604462 244.741257,439.763977 237.382156,439.697357 
	C231.578583,439.644745 225.768570,440.170227 219.963913,440.485016 
	C218.816788,440.547241 217.671570,441.017548 216.541534,440.963562 
	C207.351486,440.524628 198.169632,439.848145 188.975601,439.591370 
	C185.471176,439.493469 181.938156,440.639557 178.424133,440.605438 
	C174.730743,440.569550 171.055298,439.617645 167.352295,439.397125 
	C162.963135,439.135834 158.553085,439.208893 154.151779,439.172119 
	C148.564346,439.125427 142.976532,439.079041 137.389069,439.097168 
	C131.812363,439.115265 126.236000,439.228210 120.659264,439.267883 
	C118.727867,439.281616 116.795921,439.191406 114.863998,439.165161 
	C113.037758,439.140350 110.983444,438.577423 109.420898,439.213226 
	C97.114799,444.220490 86.683510,440.832916 77.067703,432.654724 
	C75.239578,431.099945 72.844170,430.212158 70.339539,429.012878 
	C69.659889,428.894775 69.408524,428.704712 69.057060,427.911011 
	C68.272820,426.922455 67.645996,426.461700 67.019165,426.000916 
	C63.585258,422.348999 60.151360,418.697021 56.374065,415.009094 
	C54.129505,411.849945 52.228348,408.726807 50.186111,405.301331 
z"/>
<path fill="#A5BFEE" opacity="1.000000" stroke="none" 
	d="
M445.332764,428.014832 
	C445.455597,427.382446 445.903992,426.744080 446.665527,426.053406 
	C446.978271,426.437469 446.977905,426.873871 446.968781,427.637512 
	C446.526123,427.979462 446.092194,427.994171 445.332764,428.014832 
z"/>
<path fill="#A8C1EF" opacity="1.000000" stroke="none" 
	d="
M408.368530,461.013336 
	C409.146118,460.047516 410.249023,459.037781 411.726501,458.038452 
	C410.965302,459.022369 409.829559,459.995880 408.368530,461.013336 
z"/>
<path fill="#A1BAEA" opacity="1.000000" stroke="none" 
	d="
M19.152727,345.858185 
	C18.635818,345.551727 18.340149,345.068878 18.024872,344.293182 
	C18.461498,344.560822 18.917732,345.121307 19.152727,345.858185 
z"/>
<path fill="#A8C1EF" opacity="1.000000" stroke="none" 
	d="
M102.075699,458.328583 
	C103.237221,458.805725 104.565247,459.567688 105.926468,460.691772 
	C104.720520,460.240387 103.481354,459.426910 102.075699,458.328583 
z"/>
<path fill="#A5BFEE" opacity="1.000000" stroke="none" 
	d="
M67.014053,426.336304 
	C67.645996,426.461700 68.272820,426.922455 68.947548,427.698242 
	C68.549057,428.011627 68.102669,428.009918 67.321213,428.010986 
	C66.993736,427.566345 67.001328,427.119019 67.014053,426.336304 
z"/>
<path fill="#FEFFFF" opacity="1.000000" stroke="none" 
	d="
M306.819000,312.807465 
	C306.960876,312.765076 307.225647,312.846741 307.341736,313.051270 
	C307.193054,313.174164 306.941925,312.931488 306.819000,312.807465 
z"/>
<path fill="#9CB6E6" opacity="1.000000" stroke="none" 
	d="
M322.787811,273.803284 
	C310.813202,277.672394 298.700562,281.684845 286.372833,284.862793 
	C278.852264,286.801514 271.015869,287.571991 263.285004,288.591614 
	C261.678192,288.803558 259.911133,287.800690 258.217926,287.357727 
	C259.456268,286.293549 260.524139,284.764313 261.959686,284.238190 
	C274.291077,279.718658 286.688873,275.380432 299.422974,270.934143 
	C302.533813,270.370270 305.692108,270.550232 307.966797,269.219666 
	C314.523621,265.384186 321.358490,265.955994 329.181183,266.233582 
	C326.541687,269.167633 324.550385,271.381165 322.787811,273.803284 
z"/>
<path fill="#93ACE0" opacity="1.000000" stroke="none" 
	d="
M312.488708,180.252228 
	C313.606903,179.179092 314.959778,177.592697 316.656891,177.011505 
	C319.166382,176.152130 321.920410,176.006882 324.813965,175.830490 
	C320.997498,177.465149 316.937439,178.826859 312.488708,180.252228 
z"/>
<path fill="#93ACE0" opacity="1.000000" stroke="none" 
	d="
M300.380005,183.976501 
	C302.110535,179.636383 306.081848,180.211365 309.923187,180.581406 
	C306.913116,181.919968 303.835938,182.942062 300.380005,183.976501 
z"/>
<path fill="#93ACE0" opacity="1.000000" stroke="none" 
	d="
M327.273071,175.866058 
	C327.166595,175.612335 327.381622,175.375519 327.898743,175.117249 
	C327.923767,175.290115 327.721680,175.552505 327.273071,175.866058 
z"/>
</svg>