<svg version="1.1" id="Layer_1" xmlns="http://www.w3.org/2000/svg" xmlns:xlink="http://www.w3.org/1999/xlink" x="0px" y="0px"
	 width="100%" viewBox="0 0 512 512" enable-background="new 0 0 512 512" xml:space="preserve">
<path fill="#000000" opacity="1.000000" stroke="none" 
	d="
M275.000000,0.999996 
	C354.258636,1.000000 433.517303,1.000000 513.000000,1.000000 
	C513.000000,76.354080 513.000000,151.708374 512.623291,227.794785 
	C511.841614,227.681808 511.215515,226.873962 511.065918,225.985855 
	C509.663574,217.661911 508.991241,209.152802 506.844543,201.031158 
	C503.719330,189.207306 499.549377,177.659576 495.906525,165.607178 
	C495.991394,164.723495 496.149628,164.163147 495.975616,163.739120 
	C488.458252,145.419113 479.639435,127.793709 467.983093,111.411621 
	C467.599457,110.785652 467.286774,110.401390 466.966431,109.718811 
	C466.661316,109.160072 466.363892,108.899658 465.954712,108.361008 
	C465.020905,107.036575 464.198822,105.990395 463.195190,104.684799 
	C462.691833,104.154243 462.370026,103.883102 462.088501,103.457504 
	C462.128845,103.303047 461.998505,103.011597 461.938080,102.664642 
	C461.456604,102.159142 461.035583,102.000595 460.761658,101.577316 
	C460.056061,100.523109 459.203400,99.733627 458.205414,98.612305 
	C453.393982,92.730042 448.727875,87.179611 443.928345,81.336823 
	C439.986847,77.342537 436.178772,73.640617 432.166138,69.643997 
	C430.315796,68.517387 428.670013,67.685486 427.063232,66.545120 
	C426.524963,65.471848 425.947693,64.707062 425.198853,63.696953 
	C424.688629,63.269707 424.350037,63.087780 424.015411,62.943451 
	C424.019379,62.981049 424.094391,62.971638 424.035370,62.696594 
	C423.660370,62.249504 423.344421,62.077457 423.023987,61.942711 
	C423.019501,61.980007 423.094269,61.987434 423.027557,61.692169 
	C422.657104,61.133030 422.353333,60.869160 421.933929,60.351864 
	C421.003906,59.713341 420.189514,59.328243 419.202393,58.698059 
	C418.690735,58.270409 418.351868,58.087852 418.067322,57.937595 
	C418.121643,57.969898 418.186310,57.861301 418.041718,57.572151 
	C416.987335,56.801914 416.077545,56.320827 415.097748,55.574841 
	C414.476532,54.854031 413.925323,54.398117 413.201569,53.697166 
	C412.690125,53.269951 412.351288,53.087780 412.018311,52.940414 
	C412.024231,52.975216 412.092773,52.958347 412.029907,52.683151 
	C411.641083,52.274120 411.315155,52.140285 410.838196,51.939945 
	C410.687195,51.873440 410.364868,51.944153 410.187195,51.683537 
	C409.688843,51.152802 409.368134,50.882683 408.908569,50.319599 
	C406.954498,48.999874 405.139282,47.973122 403.169739,46.694523 
	C402.681030,46.263775 402.346649,46.084873 402.032898,45.935139 
	C402.053497,45.964306 402.109436,45.919903 401.964020,45.596603 
	C395.690369,41.469975 389.721619,37.371151 383.385956,33.952217 
	C377.826782,30.952299 371.856201,28.714794 365.769318,25.996277 
	C364.684113,25.561989 363.896881,25.271954 362.941162,24.711792 
	C362.164886,24.269363 361.557068,24.097063 360.974915,23.974590 
	C361.000580,24.024420 361.100800,23.974222 360.943542,23.691730 
	C359.879974,22.998922 358.973694,22.588604 357.748291,22.076035 
	C356.983124,21.976910 356.537018,21.980040 355.941010,21.725649 
	C355.225311,21.368666 354.659485,21.269203 353.765198,20.998241 
	C353.039520,20.537870 352.680450,20.158333 352.239716,19.973125 
	C328.139374,9.845573 303.095856,3.835119 276.717529,2.479309 
	C276.006592,1.797174 275.503296,1.398583 275.000000,0.999996 
z"/>
<path fill="#000000" opacity="1.000000" stroke="none" 
	d="
M1.000004,226.000000 
	C1.000000,151.072159 1.000000,76.144310 1.000000,1.000000 
	C77.354088,1.000000 153.708389,1.000000 230.837189,1.362516 
	C230.007401,2.150586 228.419937,2.662483 226.794449,2.979424 
	C224.844360,3.359656 222.861847,3.573679 220.571350,3.878063 
	C219.826752,3.963372 219.404160,4.030289 218.587067,4.051154 
	C216.597656,4.645887 215.002777,5.286672 213.003326,5.912857 
	C208.422989,6.569561 204.197586,7.020865 200.079697,7.949079 
	C178.753708,12.756153 158.080948,19.403345 138.670746,30.192493 
	C138.134430,30.408318 137.970520,30.687229 137.985291,31.002827 
	C138.039719,30.966469 137.968475,30.856659 137.587341,30.918385 
	C131.563354,34.032509 125.516991,36.526131 120.359413,40.250553 
	C108.673111,48.689522 97.385651,57.684761 86.008980,66.547478 
	C73.881325,75.995239 63.941143,87.521889 54.606842,99.862579 
	C54.087315,100.065147 53.939735,100.306236 53.703606,100.813293 
	C53.274158,101.319992 53.090313,101.656898 52.963058,101.939186 
	C53.019657,101.884575 52.923367,101.760208 52.617569,101.941109 
	C52.151669,102.586166 52.098026,103.131020 51.816151,103.502869 
	C39.141815,120.222946 28.456932,138.081650 20.824017,157.679993 
	C20.560743,158.355972 20.876669,159.257523 20.817200,160.395355 
	C19.799715,163.461609 18.887661,166.186417 17.596153,168.958069 
	C16.476280,169.760498 15.348201,170.389053 15.052847,171.290466 
	C9.489279,188.270386 5.012424,205.507538 2.922840,223.307144 
	C2.810184,224.266785 1.664703,225.105179 1.000004,226.000000 
z"/>
<path fill="#000000" opacity="1.000000" stroke="none" 
	d="
M227.000000,513.000000 
	C151.739639,513.000000 76.479263,513.000000 1.000000,513.000000 
	C1.000000,437.979248 1.000000,362.958282 1.230381,287.127319 
	C2.030821,286.868286 2.600880,287.419220 3.084691,288.402466 
	C6.058446,302.898926 9.118447,316.963074 12.132763,331.426025 
	C12.697165,334.158905 13.152640,336.546631 13.941655,338.818512 
	C20.625731,358.064850 28.676497,376.687439 40.153404,393.619019 
	C45.130486,400.961578 50.644253,407.940369 55.949966,415.423889 
	C57.292236,417.205597 58.598793,418.647797 59.938278,420.443054 
	C68.299713,429.707642 76.517479,438.726959 85.024391,447.464783 
	C87.569801,450.079285 90.923347,451.907043 94.032593,454.412903 
	C95.809479,456.044037 97.487770,457.324677 99.107224,458.675842 
	C120.609039,476.615448 145.180862,489.177612 171.205368,498.882202 
	C188.394119,505.291901 206.304810,509.223694 224.620514,511.082642 
	C225.469788,511.168823 226.209335,512.336182 227.000000,513.000000 
z"/>
<path fill="#000000" opacity="1.000000" stroke="none" 
	d="
M513.000000,287.000000 
	C513.000000,362.260376 513.000000,437.520752 513.000000,513.000000 
	C437.979248,513.000000 362.958282,513.000000 287.126556,512.665833 
	C292.282074,511.216003 298.298309,510.314087 304.203033,508.934937 
	C313.190552,506.835693 322.100800,504.405823 331.418274,502.077271 
	C332.900146,501.732086 334.007629,501.426056 335.473694,501.084473 
	C336.653320,500.711090 337.474304,500.373260 338.567749,500.066071 
	C339.199005,500.044067 339.557831,499.991394 340.223633,499.953918 
	C340.787720,499.657440 341.044800,499.345764 341.467499,499.056030 
	C341.633118,499.078003 341.935150,498.935211 342.281982,498.979675 
	C343.184021,498.695129 343.739197,498.366119 344.457092,498.057983 
	C344.619843,498.078888 344.915863,497.937286 345.291931,497.901123 
	C358.838409,491.578339 372.316132,485.855682 385.112335,478.882477 
	C408.535889,466.118042 428.614014,448.932770 446.895752,429.610504 
	C447.519897,428.950806 447.767242,427.934631 448.142273,427.081726 
	C448.094299,427.078857 448.095154,427.174896 448.397675,427.022705 
	C450.498962,424.609497 452.297760,422.348480 454.409302,419.966736 
	C455.843811,418.256927 456.965515,416.667877 458.401611,414.962952 
	C459.845917,413.265625 460.975861,411.684204 462.423096,409.965881 
	C467.186798,402.912323 471.633240,395.995605 476.409943,388.951599 
	C482.503998,377.395569 488.455322,366.055756 493.938293,354.493866 
	C496.099060,349.937469 497.214844,344.885559 498.898865,339.733704 
	C499.033203,338.959137 499.075073,338.510132 499.430664,337.878174 
	C500.505157,336.134369 501.624390,334.648773 501.970703,333.000763 
	C505.076447,318.221191 508.026642,303.408997 511.121552,288.627075 
	C511.256653,287.981903 512.351990,287.537781 513.000000,287.000000 
z"/>
<path fill="#8F9EEE" opacity="1.000000" stroke="none" 
	d="
M227.454102,513.000000 
	C226.209335,512.336182 225.469788,511.168823 224.620514,511.082642 
	C206.304810,509.223694 188.394119,505.291901 171.205368,498.882202 
	C145.180862,489.177612 120.609039,476.615448 99.107224,458.675842 
	C97.487770,457.324677 95.809479,456.044037 94.061317,454.383026 
	C93.964096,454.035431 94.021362,453.975433 94.383354,453.973816 
	C97.110672,455.458130 99.631805,456.745636 101.817062,458.460999 
	C121.880783,474.210663 143.976471,486.296539 167.858841,495.135162 
	C190.287415,503.435730 213.383423,508.712952 237.315201,510.133545 
	C238.639130,510.212158 239.908905,511.203339 240.830475,511.820557 
	C239.304733,512.247559 238.152374,512.623779 237.000000,513.000000 
	C233.969406,513.000000 230.938812,513.000000 227.454102,513.000000 
z"/>
<path fill="#768DD9" opacity="1.000000" stroke="none" 
	d="
M513.000000,286.545898 
	C512.351990,287.537781 511.256653,287.981903 511.121552,288.627075 
	C508.026642,303.408997 505.076447,318.221191 501.970703,333.000763 
	C501.624390,334.648773 500.505157,336.134369 499.220154,337.727112 
	C498.462738,337.505798 498.229492,337.252625 498.061340,336.673096 
	C499.406219,331.229218 500.686066,326.111755 502.041016,320.709412 
	C504.418793,308.950073 506.721466,297.475647 509.128815,285.675720 
	C510.025177,281.514008 510.816803,277.677765 511.692322,274.186401 
	C512.184082,275.354218 512.592041,276.177124 513.000000,277.000000 
	C513.000000,280.030609 513.000000,283.061188 513.000000,286.545898 
z"/>
<path fill="#768DD9" opacity="1.000000" stroke="none" 
	d="
M495.824890,165.994110 
	C499.549377,177.659576 503.719330,189.207306 506.844543,201.031158 
	C508.991241,209.152802 509.663574,217.661911 511.065918,225.985855 
	C511.215515,226.873962 511.841614,227.681808 512.623291,228.263443 
	C513.000000,230.700012 513.000000,233.400024 512.736572,236.723236 
	C512.160278,237.625412 511.847473,237.904373 511.258270,237.950470 
	C510.315216,233.477921 509.648529,229.238251 508.978027,224.578857 
	C507.960144,217.787689 507.322540,211.326859 505.836700,205.067368 
	C503.981903,197.253433 501.428619,189.605286 499.144562,181.484863 
	C497.742249,176.057465 496.372345,171.030746 495.208038,165.999878 
	C495.413635,165.995712 495.824890,165.994110 495.824890,165.994110 
z"/>
<path fill="#6F8BD2" opacity="1.000000" stroke="none" 
	d="
M1.000004,226.416656 
	C1.664703,225.105179 2.810184,224.266785 2.922840,223.307144 
	C5.012424,205.507538 9.489279,188.270386 15.052847,171.290466 
	C15.348201,170.389053 16.476280,169.760498 17.582123,169.330139 
	C17.630045,171.103363 17.312538,172.551376 16.765976,174.279190 
	C13.683705,184.937775 10.495163,195.239380 8.083558,205.719788 
	C6.159913,214.079620 5.183327,222.657379 3.419383,231.163666 
	C2.368277,231.125931 1.684139,231.062958 1.000000,231.000000 
	C1.000000,229.611115 1.000000,228.222214 1.000004,226.416656 
z"/>
<path fill="#8F9EEE" opacity="1.000000" stroke="none" 
	d="
M331.043884,502.116364 
	C322.100800,504.405823 313.190552,506.835693 304.203033,508.934937 
	C298.298309,510.314087 292.282074,511.216003 286.657898,512.665833 
	C283.969391,513.000000 280.938812,513.000000 277.172516,512.758850 
	C275.223846,512.268616 274.010834,512.019470 273.022583,511.462830 
	C274.471954,510.791504 275.674133,510.251038 276.924774,510.092438 
	C285.927582,508.950287 294.995636,508.213684 303.934326,506.704742 
	C313.020050,505.170959 321.981323,502.899933 331.008240,501.242920 
	C331.027557,501.728180 331.035736,501.922272 331.043884,502.116364 
z"/>
<path fill="#6E95D9" opacity="1.000000" stroke="none" 
	d="
M220.893372,3.859672 
	C222.861847,3.573679 224.844360,3.359656 226.794449,2.979424 
	C228.419937,2.662483 230.007401,2.150586 231.305847,1.362516 
	C245.354233,1.000000 259.708466,1.000000 274.531342,0.999996 
	C275.503296,1.398583 276.006592,1.797174 276.190430,2.537887 
	C274.374359,2.921525 272.877808,2.967146 271.381012,3.003909 
	C258.588531,3.318105 245.796631,3.660464 233.003113,3.926304 
	C228.968750,4.010135 224.930069,3.887703 220.893372,3.859672 
z"/>
<path fill="#85A7F0" opacity="1.000000" stroke="none" 
	d="
M1.000000,231.468658 
	C1.684139,231.062958 2.368277,231.125931 3.376799,231.541595 
	C3.273150,237.914429 2.845117,243.934586 2.313899,250.419281 
	C2.839139,263.274353 3.467563,275.664886 3.865125,288.029785 
	C3.634262,288.004150 3.170938,287.970184 3.170938,287.970184 
	C2.600880,287.419220 2.030821,286.868286 1.230381,286.658661 
	C1.000000,268.645782 1.000000,250.291550 1.000000,231.468658 
z"/>
<path fill="#8AAEF6" opacity="1.000000" stroke="none" 
	d="
M511.534668,238.183334 
	C511.847473,237.904373 512.160278,237.625412 512.736572,237.173218 
	C513.000000,250.020889 513.000000,263.041779 513.000000,276.531342 
	C512.592041,276.177124 512.184082,275.354218 511.749420,273.733582 
	C511.713470,267.289825 511.704224,261.643829 511.774323,255.534210 
	C511.747345,249.441528 511.640991,243.812439 511.534668,238.183334 
z"/>
<path fill="#8F9EEE" opacity="1.000000" stroke="none" 
	d="
M263.000000,513.000000 
	C259.307098,513.000000 255.614182,513.000000 251.464264,512.725342 
	C251.009903,512.267578 251.012527,512.084473 251.356964,511.695557 
	C255.461441,511.627960 259.224121,511.766235 262.990356,512.178406 
	C262.995941,512.634827 262.997986,512.817444 263.000000,513.000000 
z"/>
<path fill="#9CAFFA" opacity="1.000000" stroke="none" 
	d="
M263.464661,513.000000 
	C262.997986,512.817444 262.995941,512.634827 263.443237,512.177795 
	C266.861053,511.858978 269.829437,511.814697 272.797852,511.770386 
	C274.010834,512.019470 275.223846,512.268616 276.718414,512.758850 
	C272.643097,513.000000 268.286194,513.000000 263.464661,513.000000 
z"/>
<path fill="#9CAFFA" opacity="1.000000" stroke="none" 
	d="
M251.015167,511.901367 
	C251.012527,512.084473 251.009903,512.267578 251.003632,512.725342 
	C246.643097,513.000000 242.286194,513.000000 237.464645,513.000000 
	C238.152374,512.623779 239.304733,512.247559 241.264801,511.840271 
	C245.053391,511.839874 248.034271,511.870636 251.015167,511.901367 
z"/>
<path fill="#5469AD" opacity="1.000000" stroke="none" 
	d="
M220.571350,3.878063 
	C224.930069,3.887703 228.968750,4.010135 233.003113,3.926304 
	C245.796631,3.660464 258.588531,3.318105 271.381012,3.003909 
	C272.877808,2.967146 274.374359,2.921525 276.398102,2.821432 
	C303.095856,3.835119 328.139374,9.845573 352.239716,19.973125 
	C352.680450,20.158333 353.039520,20.537870 353.982086,21.163578 
	C355.048645,21.661333 355.569763,21.822250 356.090912,21.983170 
	C356.537018,21.980040 356.983124,21.976910 357.871521,22.368746 
	C359.242798,23.167215 360.171814,23.570719 361.100800,23.974222 
	C361.100800,23.974222 361.000580,24.024420 361.227295,24.146519 
	C362.005890,24.506384 362.557770,24.744150 363.109680,24.981918 
	C363.896881,25.271954 364.684113,25.561989 365.950623,26.271915 
	C377.043793,32.900368 387.638092,39.143108 398.302429,45.263809 
	C399.351379,45.865860 400.830170,45.719101 402.109436,45.919903 
	C402.109436,45.919903 402.053497,45.964306 402.154785,46.205345 
	C402.612091,46.613049 402.968079,46.779713 403.324097,46.946373 
	C405.139282,47.973122 406.954498,48.999874 409.066467,50.598408 
	C409.697144,51.428177 410.031006,51.686165 410.364868,51.944153 
	C410.364868,51.944153 410.687195,51.873440 410.890991,52.214706 
	C411.427460,52.690102 411.760101,52.824226 412.092773,52.958351 
	C412.092773,52.958347 412.024231,52.975216 412.146729,53.214752 
	C412.637543,53.616920 413.005859,53.779556 413.374146,53.942200 
	C413.925323,54.398117 414.476532,54.854031 414.903748,55.801601 
	C415.915283,56.815941 417.050781,57.338623 418.186310,57.861305 
	C418.186310,57.861301 418.121643,57.969898 418.195374,58.212246 
	C418.637817,58.617439 419.006470,58.780285 419.375153,58.943138 
	C420.189514,59.328243 421.003906,59.713341 422.032227,60.643303 
	C422.528900,61.454590 422.811584,61.721020 423.094269,61.987442 
	C423.094269,61.987434 423.019501,61.980007 423.093750,62.210434 
	C423.476807,62.617783 423.785583,62.794708 424.094391,62.971634 
	C424.094391,62.971638 424.019379,62.981049 424.145447,63.215797 
	C424.637848,63.614460 425.004150,63.778374 425.370453,63.942284 
	C425.947693,64.707062 426.524963,65.471848 427.171143,66.906357 
	C428.950256,68.363609 430.660461,69.151146 432.370667,69.938690 
	C436.178772,73.640617 439.986847,77.342537 443.843079,81.731651 
	C444.935883,84.395401 445.616455,86.717255 447.097900,88.279724 
	C450.648468,92.024490 454.575592,95.412285 458.350708,98.944153 
	C459.203400,99.733627 460.056061,100.523109 460.917542,101.859802 
	C461.283691,102.608543 461.641113,102.810074 461.998505,103.011597 
	C461.998505,103.011597 462.128845,103.303047 462.246033,103.738449 
	C462.701080,104.430634 463.038910,104.687424 463.376740,104.944214 
	C464.198822,105.990395 465.020905,107.036575 465.881470,108.820663 
	C465.943970,109.867798 465.967957,110.177032 465.952454,110.858086 
	C464.667572,113.715797 466.255096,117.870514 461.182678,118.076370 
	C455.661743,118.300423 450.181824,119.441277 444.659698,119.756264 
	C438.407196,120.112900 432.106171,120.356339 425.865936,119.983879 
	C419.650543,119.612900 413.588989,118.622353 407.304291,120.243469 
	C403.416168,121.246399 399.121277,121.056664 395.039093,120.838692 
	C387.791382,120.451698 380.571686,119.223541 373.330505,119.133606 
	C367.770325,119.064537 362.204681,120.544441 356.623657,120.701401 
	C351.905304,120.834106 346.912598,118.945045 342.485565,119.935860 
	C335.372437,121.527878 328.753632,116.568405 321.170654,120.235138 
	C316.931213,122.285080 310.365540,119.317947 304.825562,118.966736 
	C301.799622,118.774895 298.729034,119.452751 295.674469,119.506912 
	C291.432709,119.582108 286.806396,120.478287 283.049469,119.100815 
	C279.235687,117.702507 276.491760,118.475670 272.853516,119.029388 
	C264.330994,120.326462 255.561096,120.365868 246.899582,120.257385 
	C240.805313,120.181061 234.734390,118.906319 228.633713,118.399292 
	C225.548538,118.142876 222.327011,117.937637 219.334244,118.539810 
	C215.077667,119.396255 210.994492,122.199966 206.804199,118.328712 
	C206.379593,117.936424 205.210938,118.347481 204.387711,118.388992 
	C193.806305,118.922516 183.226135,119.483192 172.642044,119.956573 
	C171.339645,120.014824 170.019440,119.483925 168.701981,119.451797 
	C167.420593,119.420540 166.134644,119.748466 164.846191,119.795464 
	C162.664825,119.875023 160.479919,119.873932 158.296509,119.874588 
	C157.030441,119.874969 155.751236,119.678238 154.500412,119.800346 
	C146.718475,120.560127 139.106766,121.572037 131.243851,118.959160 
	C126.989044,117.545265 121.907822,118.418854 117.213531,118.609032 
	C114.778069,118.707703 112.382515,119.613838 109.952827,120.069267 
	C104.637825,121.065514 99.516235,120.639496 94.550896,118.247025 
	C93.468552,117.725502 91.908829,117.992744 90.605164,118.167213 
	C84.681381,118.959991 78.687691,119.485344 72.878479,120.807175 
	C67.135574,122.113914 61.629257,116.293236 55.908989,120.582359 
	C55.559280,120.844566 54.413460,120.078537 53.653519,119.754669 
	C48.951977,117.750977 50.166401,113.510796 49.986645,109.517151 
	C51.055332,107.804893 52.049507,106.402069 53.376610,104.924698 
	C54.474220,103.601074 55.238899,102.351990 56.219719,100.845230 
	C77.913315,73.353653 103.656990,51.123878 134.035568,34.299831 
	C135.525253,33.474823 136.665512,32.018833 137.968475,30.856659 
	C137.968475,30.856659 138.039719,30.966469 138.134216,30.840935 
	C138.497940,30.588505 138.727982,30.410883 138.918854,30.182537 
	C158.080948,19.403345 178.753708,12.756153 200.079697,7.949079 
	C204.197586,7.020865 208.422989,6.569561 213.421906,5.926688 
	C215.823868,5.335815 217.402725,4.716511 218.981583,4.097206 
	C219.404160,4.030289 219.826752,3.963372 220.571350,3.878063 
z"/>
<path fill="#586AB2" opacity="1.000000" stroke="none" 
	d="
M49.912132,109.826576 
	C50.166401,113.510796 48.951977,117.750977 53.653519,119.754669 
	C54.413460,120.078537 55.559280,120.844566 55.908989,120.582359 
	C61.629257,116.293236 67.135574,122.113914 72.878479,120.807175 
	C78.687691,119.485344 84.681381,118.959991 90.605164,118.167213 
	C91.908829,117.992744 93.468552,117.725502 94.550896,118.247025 
	C99.516235,120.639496 104.637825,121.065514 109.952827,120.069267 
	C112.382515,119.613838 114.778069,118.707703 117.213531,118.609032 
	C121.907822,118.418854 126.989044,117.545265 131.243851,118.959160 
	C139.106766,121.572037 146.718475,120.560127 154.500412,119.800346 
	C155.751236,119.678238 157.030441,119.874969 158.296509,119.874588 
	C160.479919,119.873932 162.664825,119.875023 164.846191,119.795464 
	C166.134644,119.748466 167.420593,119.420540 168.701981,119.451797 
	C170.019440,119.483925 171.339645,120.014824 172.642044,119.956573 
	C183.226135,119.483192 193.806305,118.922516 204.387711,118.388992 
	C205.210938,118.347481 206.379593,117.936424 206.804199,118.328712 
	C210.994492,122.199966 215.077667,119.396255 219.334244,118.539810 
	C222.327011,117.937637 225.548538,118.142876 228.633713,118.399292 
	C234.734390,118.906319 240.805313,120.181061 246.899582,120.257385 
	C255.561096,120.365868 264.330994,120.326462 272.853516,119.029388 
	C276.491760,118.475670 279.235687,117.702507 283.049469,119.100815 
	C286.806396,120.478287 291.432709,119.582108 295.674469,119.506912 
	C298.729034,119.452751 301.799622,118.774895 304.825562,118.966736 
	C310.365540,119.317947 316.931213,122.285080 321.170654,120.235138 
	C328.753632,116.568405 335.372437,121.527878 342.485565,119.935860 
	C346.912598,118.945045 351.905304,120.834106 356.623657,120.701401 
	C362.204681,120.544441 367.770325,119.064537 373.330505,119.133606 
	C380.571686,119.223541 387.791382,120.451698 395.039093,120.838692 
	C399.121277,121.056664 403.416168,121.246399 407.304291,120.243469 
	C413.588989,118.622353 419.650543,119.612900 425.865936,119.983879 
	C432.106171,120.356339 438.407196,120.112900 444.659698,119.756264 
	C450.181824,119.441277 455.661743,118.300423 461.182678,118.076370 
	C466.255096,117.870514 464.667572,113.715797 466.217224,110.780884 
	C466.672333,110.226944 466.823212,110.122040 466.974060,110.017136 
	C467.286774,110.401390 467.599457,110.785652 467.908051,111.811874 
	C468.882080,114.670609 469.710846,116.968651 470.864624,119.089897 
	C475.564484,127.730904 480.363892,136.317795 484.920013,145.192322 
	C484.746948,146.263947 484.638794,147.104553 484.835999,147.866104 
	C486.776337,155.358704 486.328339,155.993912 478.755554,155.995483 
	C467.770020,155.997772 456.784485,155.956802 445.798950,155.958466 
	C430.095642,155.960846 414.392303,155.992935 398.688995,155.998123 
	C376.320312,156.005508 353.951477,156.051056 331.583130,155.964203 
	C325.976440,155.942444 320.348816,155.091995 314.777618,155.419220 
	C312.742676,155.538742 310.843658,157.972717 308.529114,159.250275 
	C304.189941,157.361023 300.258942,155.436371 296.209290,153.806656 
	C276.374878,145.824600 256.003540,144.157730 235.087326,148.651184 
	C213.228317,153.347183 194.996231,164.358597 179.045197,180.148590 
	C175.137085,179.721497 171.674210,179.018341 168.220245,179.059708 
	C153.834213,179.232010 139.451431,179.834961 125.066345,179.874802 
	C114.308662,179.904602 103.524033,179.668945 92.797295,178.906219 
	C80.633919,178.041290 68.522034,181.003189 56.387115,179.000641 
	C45.881660,177.266983 35.608955,181.602600 24.805920,179.677673 
	C20.135429,178.845490 18.288340,177.772415 16.995033,173.999390 
	C17.312538,172.551376 17.630045,171.103363 17.961578,169.283295 
	C18.887661,166.186417 19.799715,163.461609 21.102530,160.193054 
	C23.292969,155.945374 24.863102,152.107391 26.933430,148.561462 
	C34.502811,135.597183 42.238865,122.730209 49.912132,109.826576 
z"/>
<path fill="#779EE5" opacity="1.000000" stroke="none" 
	d="
M485.126648,144.924606 
	C480.363892,136.317795 475.564484,127.730904 470.864624,119.089897 
	C469.710846,116.968651 468.882080,114.670609 467.978943,112.053589 
	C479.639435,127.793709 488.458252,145.419113 495.975616,163.739120 
	C496.149628,164.163147 495.991394,164.723495 495.906525,165.607178 
	C495.824890,165.994110 495.413635,165.995712 494.995850,165.722229 
	C491.427582,158.607376 488.277130,151.765991 485.126648,144.924606 
z"/>
<path fill="#749FE4" opacity="1.000000" stroke="none" 
	d="
M401.964020,45.596603 
	C400.830170,45.719101 399.351379,45.865860 398.302429,45.263809 
	C387.638092,39.143108 377.043793,32.900368 366.248596,26.416168 
	C371.856201,28.714794 377.826782,30.952299 383.385956,33.952217 
	C389.721619,37.371151 395.690369,41.469975 401.964020,45.596603 
z"/>
<path fill="#7199DE" opacity="1.000000" stroke="none" 
	d="
M458.205414,98.612320 
	C454.575592,95.412285 450.648468,92.024490 447.097900,88.279724 
	C445.616455,86.717255 444.935883,84.395401 443.976440,82.024017 
	C448.727875,87.179611 453.393982,92.730042 458.205414,98.612320 
z"/>
<path fill="#7199DE" opacity="1.000000" stroke="none" 
	d="
M432.166138,69.643990 
	C430.660461,69.151146 428.950256,68.363609 427.132141,67.214828 
	C428.670013,67.685486 430.315796,68.517387 432.166138,69.643990 
z"/>
<path fill="#7199DE" opacity="1.000000" stroke="none" 
	d="
M418.041718,57.572155 
	C417.050781,57.338623 415.915283,56.815941 414.973755,56.066498 
	C416.077545,56.320827 416.987335,56.801914 418.041718,57.572155 
z"/>
<path fill="#749FE4" opacity="1.000000" stroke="none" 
	d="
M360.943542,23.691730 
	C360.171814,23.570719 359.242798,23.167215 358.190613,22.471001 
	C358.973694,22.588604 359.879974,22.998922 360.943542,23.691730 
z"/>
<path fill="#749FE4" opacity="1.000000" stroke="none" 
	d="
M362.941162,24.711790 
	C362.557770,24.744150 362.005890,24.506384 361.201630,24.096691 
	C361.557068,24.097063 362.164886,24.269363 362.941162,24.711790 
z"/>
<path fill="#749FE4" opacity="1.000000" stroke="none" 
	d="
M355.941010,21.725649 
	C355.569763,21.822250 355.048645,21.661333 354.310608,21.335079 
	C354.659485,21.269203 355.225311,21.368666 355.941010,21.725649 
z"/>
<path fill="#7199DE" opacity="1.000000" stroke="none" 
	d="
M461.938080,102.664642 
	C461.641113,102.810074 461.283691,102.608543 460.770416,102.124535 
	C461.035583,102.000595 461.456604,102.159142 461.938080,102.664642 
z"/>
<path fill="#7199DE" opacity="1.000000" stroke="none" 
	d="
M463.195190,104.684799 
	C463.038910,104.687424 462.701080,104.430634 462.205719,103.892899 
	C462.370026,103.883102 462.691833,104.154243 463.195190,104.684799 
z"/>
<path fill="#7199DE" opacity="1.000000" stroke="none" 
	d="
M466.966431,109.718811 
	C466.823212,110.122040 466.672333,110.226944 466.256714,110.409058 
	C465.967957,110.177032 465.943970,109.867798 465.993195,109.098907 
	C466.363892,108.899658 466.661316,109.160072 466.966431,109.718811 
z"/>
<path fill="#7199DE" opacity="1.000000" stroke="none" 
	d="
M425.198853,63.696960 
	C425.004150,63.778374 424.637848,63.614460 424.141479,63.178204 
	C424.350037,63.087780 424.688629,63.269707 425.198853,63.696960 
z"/>
<path fill="#7199DE" opacity="1.000000" stroke="none" 
	d="
M424.035370,62.696590 
	C423.785583,62.794708 423.476807,62.617783 423.098206,62.173134 
	C423.344421,62.077457 423.660370,62.249504 424.035370,62.696590 
z"/>
<path fill="#7199DE" opacity="1.000000" stroke="none" 
	d="
M423.027557,61.692173 
	C422.811584,61.721020 422.528900,61.454590 422.147888,60.896729 
	C422.353333,60.869160 422.657104,61.133030 423.027557,61.692173 
z"/>
<path fill="#7199DE" opacity="1.000000" stroke="none" 
	d="
M419.202393,58.698051 
	C419.006470,58.780285 418.637817,58.617439 418.141052,58.179943 
	C418.351868,58.087852 418.690735,58.270409 419.202393,58.698051 
z"/>
<path fill="#7199DE" opacity="1.000000" stroke="none" 
	d="
M413.201569,53.697159 
	C413.005859,53.779556 412.637543,53.616920 412.140839,53.179947 
	C412.351288,53.087780 412.690125,53.269951 413.201569,53.697159 
z"/>
<path fill="#7199DE" opacity="1.000000" stroke="none" 
	d="
M412.029907,52.683151 
	C411.760101,52.824226 411.427460,52.690102 411.041992,52.281212 
	C411.315155,52.140285 411.641083,52.274120 412.029907,52.683151 
z"/>
<path fill="#7199DE" opacity="1.000000" stroke="none" 
	d="
M410.187195,51.683537 
	C410.031006,51.686165 409.697144,51.428177 409.205353,50.891376 
	C409.368134,50.882683 409.688843,51.152802 410.187195,51.683537 
z"/>
<path fill="#7199DF" opacity="1.000000" stroke="none" 
	d="
M403.169739,46.694527 
	C402.968079,46.779713 402.612091,46.613049 402.134186,46.176178 
	C402.346649,46.084873 402.681030,46.263775 403.169739,46.694527 
z"/>
<path fill="#729BE1" opacity="1.000000" stroke="none" 
	d="
M137.587341,30.918385 
	C136.665512,32.018833 135.525253,33.474823 134.035568,34.299831 
	C103.656990,51.123878 77.913315,73.353653 55.978493,100.669357 
	C55.288002,100.435753 55.054871,100.120338 54.821739,99.804932 
	C63.941143,87.521889 73.881325,75.995239 86.008980,66.547478 
	C97.385651,57.684761 108.673111,48.689522 120.359413,40.250553 
	C125.516991,36.526131 131.563354,34.032509 137.587341,30.918385 
z"/>
<path fill="#779EE5" opacity="1.000000" stroke="none" 
	d="
M49.986649,109.517151 
	C42.238865,122.730209 34.502811,135.597183 26.933430,148.561462 
	C24.863102,152.107391 23.292969,155.945374 21.207962,159.851624 
	C20.876669,159.257523 20.560743,158.355972 20.824017,157.679993 
	C28.456932,138.081650 39.141815,120.222946 51.816151,103.502869 
	C52.098026,103.131020 52.151669,102.586166 52.711308,102.340714 
	C53.088455,103.372688 53.066071,104.185966 53.043682,104.999245 
	C52.049507,106.402069 51.055332,107.804893 49.986649,109.517151 
z"/>
<path fill="#586AB2" opacity="1.000000" stroke="none" 
	d="
M53.376610,104.924698 
	C53.066071,104.185966 53.088455,103.372688 53.017105,102.159805 
	C52.923367,101.760208 53.019657,101.884575 53.231644,101.806358 
	C53.612152,101.366592 53.780678,101.005043 53.949203,100.643494 
	C53.939735,100.306236 54.087315,100.065147 54.606842,99.862579 
	C55.054871,100.120338 55.288002,100.435753 55.762360,100.927032 
	C55.238899,102.351990 54.474220,103.601074 53.376610,104.924698 
z"/>
<path fill="#6E95D9" opacity="1.000000" stroke="none" 
	d="
M218.587067,4.051154 
	C217.402725,4.716511 215.823868,5.335815 213.826447,5.941288 
	C215.002777,5.286672 216.597656,4.645887 218.587067,4.051154 
z"/>
<path fill="#779EE5" opacity="1.000000" stroke="none" 
	d="
M53.703606,100.813293 
	C53.780678,101.005043 53.612152,101.366592 53.175045,101.860970 
	C53.090313,101.656898 53.274158,101.319992 53.703606,100.813293 
z"/>
<path fill="#729BE1" opacity="1.000000" stroke="none" 
	d="
M138.670746,30.192493 
	C138.727982,30.410883 138.497940,30.588505 138.079803,30.877293 
	C137.970520,30.687229 138.134430,30.408318 138.670746,30.192493 
z"/>
<path fill="#6E70CA" opacity="1.000000" stroke="none" 
	d="
M3.084691,288.402466 
	C3.170938,287.970184 3.634262,288.004150 4.160222,288.247498 
	C5.122431,289.700897 5.718864,290.878906 5.968382,292.126343 
	C7.368695,299.126984 8.586977,306.165192 10.065235,313.148682 
	C11.049362,317.797821 13.822233,320.286041 18.915777,320.039459 
	C28.326239,319.583923 37.890541,318.195587 47.134361,319.314331 
	C63.422836,321.285706 79.623688,319.188721 95.848717,319.927368 
	C104.768913,320.333496 113.723427,319.938385 122.661057,320.034607 
	C125.793892,320.068298 128.923737,320.709320 132.052856,320.692169 
	C139.625000,320.650696 147.195511,320.364532 154.767441,320.215759 
	C161.977859,320.074066 169.189255,319.981445 176.676605,320.044769 
	C185.385376,329.974976 195.248489,337.919098 206.473984,344.301361 
	C219.734879,351.840881 234.231476,355.320007 249.049210,357.668304 
	C260.063080,359.413818 271.136719,361.158661 282.247406,361.799347 
	C291.446686,362.329803 300.755890,361.481934 309.986298,360.823242 
	C324.635590,359.777802 338.764801,356.584167 351.843994,348.955322 
	C353.499329,347.694519 355.066986,346.125977 356.634338,346.126312 
	C364.295776,346.127838 371.958649,346.799133 379.618134,346.753326 
	C388.362488,346.701080 397.101410,346.036346 405.847229,345.837158 
	C412.698456,345.681091 419.556763,345.807892 426.411682,345.846832 
	C435.113953,345.896240 443.848724,345.544617 452.508026,346.190399 
	C459.778503,346.732605 466.933075,345.316101 474.346558,346.614136 
	C482.064362,347.965424 490.803406,348.459320 495.364227,339.093658 
	C495.807190,338.184052 497.098694,337.687683 497.996277,336.999481 
	C498.229492,337.252625 498.462738,337.505798 498.906433,337.910034 
	C499.075073,338.510132 499.033203,338.959137 498.592773,339.867920 
	C495.832794,345.564789 493.471375,350.801849 490.771301,356.118835 
	C489.671356,357.036835 488.692413,357.761871 488.187714,358.733307 
	C486.354919,362.261108 484.585541,364.570160 479.578583,364.506409 
	C475.252045,364.451294 470.934937,364.579620 466.529297,364.403015 
	C455.624420,363.965881 444.666534,364.596832 433.739990,365.043854 
	C426.325256,365.347198 419.103821,363.654388 411.401855,365.401642 
	C404.245636,367.025116 396.324188,365.109070 388.736877,365.035339 
	C375.614990,364.907837 362.490570,365.067444 349.368042,364.981262 
	C335.934662,364.893066 322.501984,364.495972 309.069489,364.518127 
	C288.163605,364.552612 267.258270,364.873199 246.352234,364.971527 
	C240.215668,365.000366 234.073166,364.465698 227.941101,364.585144 
	C219.639847,364.746826 211.346634,365.585815 203.048889,365.602325 
	C189.613449,365.629059 176.177872,365.134399 162.740997,365.024719 
	C149.044510,364.912903 135.345673,365.088531 121.649178,364.977295 
	C105.004158,364.842133 88.360909,364.406525 71.716125,364.356201 
	C61.406063,364.325012 51.091953,365.013336 40.784737,364.903320 
	C34.951019,364.841003 28.236338,365.983154 25.208490,358.552246 
	C25.086248,358.252228 24.313866,358.217133 23.613535,357.802795 
	C20.610966,350.333038 17.894831,343.096863 15.027371,335.921204 
	C14.334485,334.187286 13.141478,332.653198 12.178451,331.027222 
	C9.118447,316.963074 6.058446,302.898926 3.084691,288.402466 
z"/>
<path fill="#8F9EEE" opacity="1.000000" stroke="none" 
	d="
M12.132763,331.426025 
	C13.141478,332.653198 14.334485,334.187286 15.027371,335.921204 
	C17.894831,343.096863 20.610966,350.333038 23.701786,358.161011 
	C26.311388,363.530060 28.601887,368.285065 30.973368,373.390564 
	C35.734447,381.826111 40.414539,389.911194 45.246567,398.291138 
	C48.940231,404.050629 52.481964,409.515259 55.996300,415.005981 
	C55.968899,415.032074 55.914253,415.084381 55.914253,415.084381 
	C50.644253,407.940369 45.130486,400.961578 40.153404,393.619019 
	C28.676497,376.687439 20.625731,358.064850 13.941655,338.818512 
	C13.152640,336.546631 12.697165,334.158905 12.132763,331.426025 
z"/>
<path fill="#8F9EEE" opacity="1.000000" stroke="none" 
	d="
M93.935379,454.065308 
	C90.923347,451.907043 87.569801,450.079285 85.024391,447.464783 
	C76.517479,438.726959 68.299713,429.707642 59.967430,420.415710 
	C59.963650,420.035309 60.022118,419.980804 60.356232,420.025970 
	C62.477280,421.712494 64.264214,423.353821 66.209747,425.285034 
	C74.092033,433.114624 81.857780,440.612091 89.507088,448.226501 
	C91.221062,449.932648 92.527367,452.048309 94.021355,453.975433 
	C94.021362,453.975433 93.964096,454.035431 93.935379,454.065308 
z"/>
<path fill="#8F9EEE" opacity="1.000000" stroke="none" 
	d="
M59.934498,420.062653 
	C58.598793,418.647797 57.292236,417.205597 55.949966,415.423889 
	C55.914253,415.084381 55.968899,415.032074 56.339874,415.064758 
	C57.814606,416.725250 58.918365,418.353027 60.022121,419.980804 
	C60.022118,419.980804 59.963650,420.035309 59.934498,420.062653 
z"/>
<path fill="#7973D5" opacity="1.000000" stroke="none" 
	d="
M94.383347,453.973816 
	C92.527367,452.048309 91.221062,449.932648 89.507088,448.226501 
	C81.857780,440.612091 74.092033,433.114624 66.565552,425.305450 
	C68.163246,425.846313 69.520393,426.746094 70.972588,427.449738 
	C74.890320,429.348022 78.809082,431.253876 82.802200,432.984192 
	C86.524994,434.597351 90.247963,433.571899 94.143143,433.238586 
	C104.826942,432.324432 115.600937,432.200500 126.337845,432.232391 
	C142.673599,432.280975 159.007263,432.848724 175.343460,432.967560 
	C194.433258,433.106445 213.524826,432.998840 232.615631,433.000519 
	C240.322693,433.001221 248.029770,433.011261 255.736832,433.011353 
	C264.597473,433.011475 273.458649,432.949188 282.318481,433.033447 
	C285.281219,433.061615 288.250610,433.734985 291.199280,433.627777 
	C297.722992,433.390686 304.236938,432.500244 310.752075,432.528229 
	C316.655273,432.553558 322.862976,434.828644 328.377899,433.601562 
	C335.287750,432.064117 341.866852,433.006836 348.593048,433.003479 
	C368.298004,432.993652 388.003235,433.061340 407.707703,432.961884 
	C413.467712,432.932800 419.260101,431.919525 424.975800,432.296173 
	C432.973755,432.823181 440.176880,432.151978 445.469238,425.203461 
	C445.981750,424.530548 447.229370,424.417511 448.110229,424.436096 
	C448.088165,425.610016 448.091675,426.392456 448.095154,427.174896 
	C448.095154,427.174896 448.094299,427.078857 447.786011,427.086456 
	C446.044189,428.187134 444.430695,429.108978 443.203552,430.398499 
	C416.168182,458.807892 384.662811,480.553162 347.960510,494.642853 
	C346.708588,495.123474 345.920258,496.811859 344.915863,497.937286 
	C344.915863,497.937286 344.619843,498.078888 344.122009,498.048401 
	C343.061127,498.323669 342.498138,498.629425 341.935150,498.935181 
	C341.935150,498.935211 341.633118,499.078003 341.199768,499.154419 
	C340.483185,499.466766 340.199921,499.702759 339.916656,499.938721 
	C339.557831,499.991394 339.199005,500.044067 338.164032,499.995911 
	C336.672089,499.875336 335.856293,499.855530 334.820862,499.719513 
	C333.963257,500.014526 333.325317,500.425751 332.404846,500.842712 
	C331.747253,500.882874 331.372162,500.917297 330.997070,500.951721 
	C321.981323,502.899933 313.020050,505.170959 303.934326,506.704742 
	C294.995636,508.213684 285.927582,508.950287 276.924774,510.092438 
	C275.674133,510.251038 274.471954,510.791504 273.022583,511.462830 
	C269.829437,511.814697 266.861053,511.858978 263.439728,511.903900 
	C259.224121,511.766235 255.461441,511.627960 251.356964,511.695557 
	C248.034271,511.870636 245.053391,511.839874 241.638184,511.789459 
	C239.908905,511.203339 238.639130,510.212158 237.315201,510.133545 
	C213.383423,508.712952 190.287415,503.435730 167.858841,495.135162 
	C143.976471,486.296539 121.880783,474.210663 101.817062,458.460999 
	C99.631805,456.745636 97.110672,455.458130 94.383347,453.973816 
z"/>
<path fill="#8F9FEF" opacity="1.000000" stroke="none" 
	d="
M345.291931,497.901123 
	C345.920258,496.811859 346.708588,495.123474 347.960510,494.642853 
	C384.662811,480.553162 416.168182,458.807892 443.203552,430.398499 
	C444.430695,429.108978 446.044189,428.187134 447.833984,427.089355 
	C447.767242,427.934631 447.519897,428.950806 446.895752,429.610504 
	C428.614014,448.932770 408.535889,466.118042 385.112335,478.882477 
	C372.316132,485.855682 358.838409,491.578339 345.291931,497.901123 
z"/>
<path fill="#8F9FEF" opacity="1.000000" stroke="none" 
	d="
M491.109924,356.038879 
	C493.471375,350.801849 495.832794,345.564789 498.500336,340.193481 
	C497.214844,344.885559 496.099060,349.937469 493.938293,354.493866 
	C488.455322,366.055756 482.503998,377.395569 476.384277,388.927246 
	C476.028351,389.030212 475.976746,388.981781 475.968964,388.607788 
	C478.345367,383.169067 480.729553,378.104340 483.350037,372.794617 
	C486.094208,367.046051 488.602051,361.542480 491.109924,356.038879 
z"/>
<path fill="#8F9FEF" opacity="1.000000" stroke="none" 
	d="
M476.054016,389.054565 
	C471.633240,395.995605 467.186798,402.912323 462.392151,409.936035 
	C462.043945,410.043060 461.981781,409.983643 461.972809,409.618561 
	C464.277924,405.501007 466.592010,401.748535 469.088318,397.702026 
	C471.505951,394.599274 473.741333,391.790527 475.976746,388.981781 
	C475.976746,388.981781 476.028351,389.030212 476.054016,389.054565 
z"/>
<path fill="#8F9FEF" opacity="1.000000" stroke="none" 
	d="
M448.397675,427.022705 
	C448.091675,426.392456 448.088165,425.610016 448.380798,424.262024 
	C450.444031,422.458008 452.211182,421.219482 454.007935,420.007568 
	C454.037506,420.034149 454.096527,420.087463 454.096527,420.087463 
	C452.297760,422.348480 450.498962,424.609497 448.397675,427.022705 
z"/>
<path fill="#8F9FEF" opacity="1.000000" stroke="none" 
	d="
M458.087219,415.078827 
	C456.965515,416.667877 455.843811,418.256927 454.409302,419.966736 
	C454.096527,420.087463 454.037506,420.034149 454.001068,419.649658 
	C455.301849,417.836731 456.639099,416.408325 458.004089,415.004578 
	C458.031860,415.029266 458.087219,415.078827 458.087219,415.078827 
z"/>
<path fill="#8F9FEF" opacity="1.000000" stroke="none" 
	d="
M462.074890,410.072906 
	C460.975861,411.684204 459.845917,413.265625 458.401611,414.962952 
	C458.087219,415.078827 458.031860,415.029266 457.998199,414.645752 
	C459.303619,412.835999 460.642700,411.409821 461.981781,409.983643 
	C461.981781,409.983643 462.043945,410.043060 462.074890,410.072906 
z"/>
<path fill="#8F9FEF" opacity="1.000000" stroke="none" 
	d="
M331.008240,501.242920 
	C331.372162,500.917297 331.747253,500.882874 332.777222,500.877747 
	C333.924377,500.905548 334.416626,500.904053 334.960358,500.956970 
	C335.011841,501.011383 335.115082,501.119995 335.115082,501.119995 
	C334.007629,501.426056 332.900146,501.732086 331.418274,502.077271 
	C331.035736,501.922272 331.027557,501.728180 331.008240,501.242920 
z"/>
<path fill="#8F9FEF" opacity="1.000000" stroke="none" 
	d="
M335.040497,499.835754 
	C335.856293,499.855530 336.672089,499.875336 337.891602,499.965271 
	C337.474304,500.373260 336.653320,500.711090 335.473694,501.084473 
	C335.115082,501.119995 335.011841,501.011383 334.996155,500.690857 
	C335.000488,500.192108 335.020508,500.013947 335.040497,499.835754 
z"/>
<path fill="#8F9FEF" opacity="1.000000" stroke="none" 
	d="
M342.281982,498.979675 
	C342.498138,498.629425 343.061127,498.323669 343.959259,498.027496 
	C343.739197,498.366119 343.184021,498.695129 342.281982,498.979675 
z"/>
<path fill="#8F9FEF" opacity="1.000000" stroke="none" 
	d="
M340.223633,499.953918 
	C340.199921,499.702759 340.483185,499.466766 341.034180,499.132446 
	C341.044800,499.345764 340.787720,499.657440 340.223633,499.953918 
z"/>
<path fill="#696FC5" opacity="1.000000" stroke="none" 
	d="
M509.024109,286.001221 
	C506.721466,297.475647 504.418793,308.950073 501.576477,320.711121 
	C486.153168,320.998505 471.269562,321.000977 456.385925,320.999268 
	C450.288330,320.998535 444.189453,321.057983 438.093933,320.943237 
	C436.121307,320.906128 434.153351,320.125336 432.190308,320.154633 
	C417.788239,320.369385 403.379303,321.155731 388.989288,320.882141 
	C372.136993,320.561676 355.221008,322.732239 338.598297,319.484863 
	C344.164764,310.454468 349.561584,301.733673 355.165314,292.792603 
	C355.554688,292.003815 355.737152,291.435272 355.924957,290.905212 
	C355.930298,290.943695 355.852814,290.949554 355.980896,290.871521 
	C356.329803,290.541412 356.324799,290.282135 356.083740,289.795654 
	C356.111450,289.263245 356.260803,289.019073 356.953735,288.856659 
	C358.529419,288.674744 359.672699,288.312164 360.816711,288.309814 
	C371.356842,288.288300 381.897491,288.280731 392.437195,288.367676 
	C400.220734,288.431885 408.004120,288.799133 415.785675,288.747040 
	C424.419220,288.689240 433.049500,288.224854 441.683472,288.114136 
	C444.641846,288.076202 447.609772,288.814423 450.568573,288.780762 
	C463.044220,288.638947 475.518066,288.339172 487.992645,288.101013 
	C488.156799,288.097870 488.326019,288.128296 488.485931,288.169830 
	C495.603882,290.018158 502.527863,290.037537 509.024109,286.001221 
z"/>
<path fill="#676EC2" opacity="1.000000" stroke="none" 
	d="
M509.128845,285.675720 
	C502.527863,290.037537 495.603882,290.018158 488.485931,288.169830 
	C488.326019,288.128296 488.156799,288.097870 487.992645,288.101013 
	C475.518066,288.339172 463.044220,288.638947 450.568573,288.780762 
	C447.609772,288.814423 444.641846,288.076202 441.683472,288.114136 
	C433.049500,288.224854 424.419220,288.689240 415.785675,288.747040 
	C408.004120,288.799133 400.220734,288.431885 392.437195,288.367676 
	C381.897491,288.280731 371.356842,288.288300 360.816711,288.309814 
	C359.672699,288.312164 358.529419,288.674744 357.045105,288.477966 
	C358.805664,279.057465 360.906891,270.029266 363.434387,260.992981 
	C377.177551,260.399841 390.491760,259.449463 403.812256,259.351288 
	C413.576599,259.279266 423.346039,260.696106 433.118866,260.779266 
	C445.193970,260.882050 457.275879,260.323517 469.352966,259.983002 
	C473.971924,259.852783 478.614960,259.091461 483.195587,259.394836 
	C492.950806,260.040924 502.779053,262.115265 511.694977,255.997803 
	C511.704224,261.643829 511.713470,267.289825 511.665588,273.388672 
	C510.816803,277.677765 510.025177,281.514008 509.128845,285.675720 
z"/>
<path fill="#6D70C9" opacity="1.000000" stroke="none" 
	d="
M338.428680,319.794464 
	C355.221008,322.732239 372.136993,320.561676 388.989288,320.882141 
	C403.379303,321.155731 417.788239,320.369385 432.190308,320.154633 
	C434.153351,320.125336 436.121307,320.906128 438.093933,320.943237 
	C444.189453,321.057983 450.288330,320.998535 456.385925,320.999268 
	C471.269562,321.000977 486.153168,320.998505 501.501343,320.996002 
	C500.686066,326.111755 499.406219,331.229218 498.061340,336.673096 
	C497.098694,337.687683 495.807190,338.184052 495.364227,339.093658 
	C490.803406,348.459320 482.064362,347.965424 474.346558,346.614136 
	C466.933075,345.316101 459.778503,346.732605 452.508026,346.190399 
	C443.848724,345.544617 435.113953,345.896240 426.411682,345.846832 
	C419.556763,345.807892 412.698456,345.681091 405.847229,345.837158 
	C397.101410,346.036346 388.362488,346.701080 379.618134,346.753326 
	C371.958649,346.799133 364.295776,346.127838 356.634338,346.126312 
	C355.066986,346.125977 353.499329,347.694519 351.503510,348.851196 
	C347.910187,347.424042 344.463440,346.051941 341.634430,343.876495 
	C334.002838,338.008087 327.724121,328.223358 338.428680,319.794464 
z"/>
<path fill="#5F6DBA" opacity="1.000000" stroke="none" 
	d="
M499.176941,181.885544 
	C501.428619,189.605286 503.981903,197.253433 505.836700,205.067368 
	C507.322540,211.326859 507.960144,217.787689 508.605347,224.611206 
	C506.199036,226.031418 504.209167,227.703415 502.115784,227.845016 
	C493.376251,228.436218 484.607452,228.734558 475.845978,228.830383 
	C460.650299,228.996567 445.452057,228.934357 430.254913,228.963745 
	C428.925018,228.966309 427.594543,228.958023 426.265259,228.920761 
	C415.648895,228.623215 405.034210,228.237961 394.416016,228.042557 
	C387.518829,227.915604 380.602631,227.804398 373.721588,228.177460 
	C369.249268,228.419937 363.699829,226.725830 361.287811,232.588058 
	C358.235321,215.435928 350.865509,200.665680 341.422363,186.916214 
	C348.663513,186.425827 355.503723,185.862534 362.355042,185.636536 
	C370.911774,185.354248 379.686188,189.404160 388.002563,184.277695 
	C388.390137,184.038773 388.981720,184.044266 389.471252,184.070007 
	C398.319672,184.535324 407.163391,185.300140 416.015717,185.415161 
	C423.172699,185.508133 430.339111,184.808578 437.503021,184.499603 
	C438.618500,184.451492 440.000244,184.211212 440.822754,184.739197 
	C447.640625,189.115753 455.315643,187.685730 462.099548,186.287415 
	C468.109650,185.048584 473.448975,185.981628 479.141663,186.429596 
	C486.199524,186.984985 493.886047,189.447510 499.176941,181.885544 
z"/>
<path fill="#5B6CB5" opacity="1.000000" stroke="none" 
	d="
M499.144562,181.484863 
	C493.886047,189.447510 486.199524,186.984985 479.141663,186.429596 
	C473.448975,185.981628 468.109650,185.048584 462.099548,186.287415 
	C455.315643,187.685730 447.640625,189.115753 440.822754,184.739197 
	C440.000244,184.211212 438.618500,184.451492 437.503021,184.499603 
	C430.339111,184.808578 423.172699,185.508133 416.015717,185.415161 
	C407.163391,185.300140 398.319672,184.535324 389.471252,184.070007 
	C388.981720,184.044266 388.390137,184.038773 388.002563,184.277695 
	C379.686188,189.404160 370.911774,185.354248 362.355042,185.636536 
	C355.503723,185.862534 348.663513,186.425827 341.152283,186.720413 
	C331.764648,175.415314 320.891479,166.724487 308.882599,159.350830 
	C310.843658,157.972717 312.742676,155.538742 314.777618,155.419220 
	C320.348816,155.091995 325.976440,155.942444 331.583130,155.964203 
	C353.951477,156.051056 376.320312,156.005508 398.688995,155.998123 
	C414.392303,155.992935 430.095642,155.960846 445.798950,155.958466 
	C456.784485,155.956802 467.770020,155.997772 478.755554,155.995483 
	C486.328339,155.993912 486.776337,155.358704 484.835999,147.866104 
	C484.638794,147.104553 484.746948,146.263947 484.920044,145.192322 
	C488.277130,151.765991 491.427582,158.607376 494.790222,165.726395 
	C496.372345,171.030746 497.742249,176.057465 499.144562,181.484863 
z"/>
<path fill="#636EBE" opacity="1.000000" stroke="none" 
	d="
M361.455902,232.976288 
	C363.699829,226.725830 369.249268,228.419937 373.721588,228.177460 
	C380.602631,227.804398 387.518829,227.915604 394.416016,228.042557 
	C405.034210,228.237961 415.648895,228.623215 426.265259,228.920761 
	C427.594543,228.958023 428.925018,228.966309 430.254913,228.963745 
	C445.452057,228.934357 460.650299,228.996567 475.845978,228.830383 
	C484.607452,228.734558 493.376251,228.436218 502.115784,227.845016 
	C504.209167,227.703415 506.199036,226.031418 508.609192,225.030914 
	C509.648529,229.238251 510.315216,233.477921 511.258270,237.950470 
	C511.640991,243.812439 511.747345,249.441528 511.774323,255.534210 
	C502.779053,262.115265 492.950806,260.040924 483.195587,259.394836 
	C478.614960,259.091461 473.971924,259.852783 469.352966,259.983002 
	C457.275879,260.323517 445.193970,260.882050 433.118866,260.779266 
	C423.346039,260.696106 413.576599,259.279266 403.812256,259.351288 
	C390.491760,259.449463 377.177551,260.399841 363.368896,260.528198 
	C362.403442,251.039780 361.929688,242.008041 361.455902,232.976288 
z"/>
<path fill="#606DBB" opacity="1.000000" stroke="none" 
	d="
M16.765974,174.279190 
	C18.288340,177.772415 20.135429,178.845490 24.805920,179.677673 
	C35.608955,181.602600 45.881660,177.266983 56.387115,179.000641 
	C68.522034,181.003189 80.633919,178.041290 92.797295,178.906219 
	C103.524033,179.668945 114.308662,179.904602 125.066345,179.874802 
	C139.451431,179.834961 153.834213,179.232010 168.220245,179.059708 
	C171.674210,179.018341 175.137085,179.721497 178.814728,180.413422 
	C160.670013,202.087280 151.209595,226.694458 151.432251,254.986053 
	C147.944366,254.031738 144.449860,251.669006 141.794922,252.391495 
	C133.082153,254.762543 124.523605,252.063904 115.882439,252.548981 
	C107.898010,252.997192 99.795120,250.919907 91.809067,253.690475 
	C90.182495,254.254776 87.756523,254.486298 86.458221,253.667496 
	C81.993935,250.852005 77.671799,252.312057 73.073723,252.839584 
	C68.797272,253.330154 64.369873,252.326950 60.008842,252.325760 
	C57.434402,252.325058 54.860432,252.998230 52.285023,253.359558 
	C50.240444,253.646439 48.120815,254.407181 46.161385,254.112869 
	C38.740631,252.998245 31.385590,251.368225 23.850058,253.250412 
	C22.585011,253.566376 21.246248,253.669464 19.936539,253.710312 
	C13.793564,253.901871 7.493919,254.756958 2.417084,249.954742 
	C2.845117,243.934586 3.273150,237.914429 3.743767,231.516342 
	C5.183327,222.657379 6.159913,214.079620 8.083558,205.719788 
	C10.495163,195.239380 13.683705,184.937775 16.765974,174.279190 
z"/>
<path fill="#686FC3" opacity="1.000000" stroke="none" 
	d="
M2.313900,250.419281 
	C7.493919,254.756958 13.793564,253.901871 19.936539,253.710312 
	C21.246248,253.669464 22.585011,253.566376 23.850058,253.250412 
	C31.385590,251.368225 38.740631,252.998245 46.161385,254.112869 
	C48.120815,254.407181 50.240444,253.646439 52.285023,253.359558 
	C54.860432,252.998230 57.434402,252.325058 60.008842,252.325760 
	C64.369873,252.326950 68.797272,253.330154 73.073723,252.839584 
	C77.671799,252.312057 81.993935,250.852005 86.458221,253.667496 
	C87.756523,254.486298 90.182495,254.254776 91.809067,253.690475 
	C99.795120,250.919907 107.898010,252.997192 115.882439,252.548981 
	C124.523605,252.063904 133.082153,254.762543 141.794922,252.391495 
	C144.449860,251.669006 147.944366,254.031738 151.512161,255.435181 
	C152.346878,260.009460 152.489883,264.167389 153.140518,268.244293 
	C156.219864,287.539551 163.877228,304.808777 176.400223,319.867279 
	C169.189255,319.981445 161.977859,320.074066 154.767441,320.215759 
	C147.195511,320.364532 139.625000,320.650696 132.052856,320.692169 
	C128.923737,320.709320 125.793892,320.068298 122.661057,320.034607 
	C113.723427,319.938385 104.768913,320.333496 95.848717,319.927368 
	C79.623688,319.188721 63.422836,321.285706 47.134361,319.314331 
	C37.890541,318.195587 28.326239,319.583923 18.915777,320.039459 
	C13.822233,320.286041 11.049362,317.797821 10.065235,313.148682 
	C8.586977,306.165192 7.368695,299.126984 5.968382,292.126343 
	C5.718864,290.878906 5.122431,289.700897 4.391085,288.273132 
	C3.467563,275.664886 2.839139,263.274353 2.313900,250.419281 
z"/>
<path fill="#FEFEFF" opacity="1.000000" stroke="none" 
	d="
M176.676605,320.044769 
	C163.877228,304.808777 156.219864,287.539551 153.140518,268.244293 
	C152.489883,264.167389 152.346878,260.009460 151.890045,255.439758 
	C151.209595,226.694458 160.670013,202.087280 179.264053,180.479767 
	C194.996231,164.358597 213.228317,153.347183 235.087326,148.651184 
	C256.003540,144.157730 276.374878,145.824600 296.209290,153.806656 
	C300.258942,155.436371 304.189941,157.361023 308.529114,159.250259 
	C320.891479,166.724487 331.764648,175.415314 340.756287,186.797211 
	C350.865509,200.665680 358.235321,215.435928 361.287811,232.588058 
	C361.929688,242.008041 362.403442,251.039780 362.942657,260.536316 
	C360.906891,270.029266 358.805664,279.057465 356.613037,288.464355 
	C356.260803,289.019073 356.111450,289.263245 355.972107,290.015869 
	C355.870667,290.456085 355.852814,290.949554 355.852814,290.949554 
	C355.852814,290.949554 355.930298,290.943695 355.697876,291.112213 
	C355.296417,291.858124 355.127411,292.435516 354.958435,293.012878 
	C349.561584,301.733673 344.164764,310.454468 338.598297,319.484863 
	C327.724121,328.223358 334.002838,338.008087 341.634430,343.876495 
	C344.463440,346.051941 347.910187,347.424042 351.415710,349.266602 
	C338.764801,356.584167 324.635590,359.777802 309.986298,360.823242 
	C300.755890,361.481934 291.446686,362.329803 282.247406,361.799347 
	C271.136719,361.158661 260.063080,359.413818 249.049210,357.668304 
	C234.231476,355.320007 219.734879,351.840881 206.473984,344.301361 
	C195.248489,337.919098 185.385376,329.974976 176.676605,320.044769 
M216.727280,226.576187 
	C215.989166,224.930069 215.251053,223.283951 214.512177,221.636139 
	C206.918884,225.322983 203.414551,234.372223 206.232620,242.852448 
	C209.088196,251.445526 218.150421,256.653870 227.282837,254.950684 
	C235.826935,253.357208 242.040924,245.703461 241.574570,237.347595 
	C227.193893,237.643753 223.086426,235.947937 216.727280,226.576187 
M279.520233,237.242188 
	C275.973907,237.242188 272.427582,237.242188 268.887848,237.242188 
	C268.998260,246.177200 274.859253,253.290344 283.145691,254.933182 
	C292.014343,256.691467 300.858734,251.860809 304.058319,243.511078 
	C307.287201,235.084961 304.324890,226.515793 296.180725,221.395798 
	C293.346741,229.102493 288.703583,235.045639 279.520233,237.242188 
z"/>
<path fill="#7171CD" opacity="1.000000" stroke="none" 
	d="
M490.771301,356.118805 
	C488.602051,361.542480 486.094208,367.046051 483.013855,372.870117 
	C480.329651,375.706268 477.988831,378.067078 476.160065,380.773834 
	C473.438263,384.802338 470.140686,386.673584 465.158997,385.633484 
	C462.972931,385.177063 460.586517,385.549286 458.304321,385.721069 
	C455.999878,385.894531 453.696228,386.624908 451.419403,386.520294 
	C443.367432,386.150269 435.328766,385.129669 427.281921,385.095947 
	C416.040955,385.048798 404.798706,385.828094 393.554047,385.933258 
	C387.755737,385.987518 381.948181,385.037811 376.149689,385.089355 
	C364.761047,385.190491 353.375824,385.924469 341.989075,385.927795 
	C331.188049,385.930908 320.387207,385.094574 309.585510,385.074768 
	C300.227692,385.057556 290.870880,385.838715 281.509705,385.958466 
	C268.572144,386.123993 255.629669,386.112549 242.691528,385.972137 
	C225.692780,385.787659 208.696991,385.258118 191.698349,385.163025 
	C182.124069,385.109467 172.544983,385.585541 162.971313,385.916626 
	C159.360138,386.041473 155.755737,386.684021 152.152359,386.650452 
	C142.068756,386.556549 131.986237,386.270325 121.905334,385.987640 
	C114.492279,385.779755 107.081078,385.203766 99.671448,385.243256 
	C86.759956,385.312012 73.851204,385.806702 60.939377,385.953125 
	C56.978401,385.998047 52.892628,384.770905 49.074551,385.401367 
	C43.356323,386.345581 39.986057,384.327362 37.153484,379.610687 
	C35.633610,377.079865 33.015114,375.208832 30.892376,373.040070 
	C28.601887,368.285065 26.311388,363.530060 23.932640,358.416809 
	C24.313866,358.217133 25.086248,358.252228 25.208490,358.552246 
	C28.236338,365.983154 34.951019,364.841003 40.784737,364.903320 
	C51.091953,365.013336 61.406063,364.325012 71.716125,364.356201 
	C88.360909,364.406525 105.004158,364.842133 121.649178,364.977295 
	C135.345673,365.088531 149.044510,364.912903 162.740997,365.024719 
	C176.177872,365.134399 189.613449,365.629059 203.048889,365.602325 
	C211.346634,365.585815 219.639847,364.746826 227.941101,364.585144 
	C234.073166,364.465698 240.215668,365.000366 246.352234,364.971527 
	C267.258270,364.873199 288.163605,364.552612 309.069489,364.518127 
	C322.501984,364.495972 335.934662,364.893066 349.368042,364.981262 
	C362.490570,365.067444 375.614990,364.907837 388.736877,365.035339 
	C396.324188,365.109070 404.245636,367.025116 411.401855,365.401642 
	C419.103821,363.654388 426.325256,365.347198 433.739990,365.043854 
	C444.666534,364.596832 455.624420,363.965881 466.529297,364.403015 
	C470.934937,364.579620 475.252045,364.451294 479.578583,364.506409 
	C484.585541,364.570160 486.354919,362.261108 488.187714,358.733307 
	C488.692413,357.761871 489.671356,357.036835 490.771301,356.118805 
z"/>
<path fill="#7471D1" opacity="1.000000" stroke="none" 
	d="
M461.972809,409.618561 
	C460.642700,411.409821 459.303619,412.835999 457.970459,414.621063 
	C456.639099,416.408325 455.301849,417.836731 453.971497,419.623047 
	C452.211182,421.219482 450.444031,422.458008 448.406311,423.870544 
	C447.229370,424.417511 445.981750,424.530548 445.469238,425.203461 
	C440.176880,432.151978 432.973755,432.823181 424.975800,432.296173 
	C419.260101,431.919525 413.467712,432.932800 407.707703,432.961884 
	C388.003235,433.061340 368.298004,432.993652 348.593048,433.003479 
	C341.866852,433.006836 335.287750,432.064117 328.377899,433.601562 
	C322.862976,434.828644 316.655273,432.553558 310.752075,432.528229 
	C304.236938,432.500244 297.722992,433.390686 291.199280,433.627777 
	C288.250610,433.734985 285.281219,433.061615 282.318481,433.033447 
	C273.458649,432.949188 264.597473,433.011475 255.736832,433.011353 
	C248.029770,433.011261 240.322693,433.001221 232.615631,433.000519 
	C213.524826,432.998840 194.433258,433.106445 175.343460,432.967560 
	C159.007263,432.848724 142.673599,432.280975 126.337845,432.232391 
	C115.600937,432.200500 104.826942,432.324432 94.143143,433.238586 
	C90.247963,433.571899 86.524994,434.597351 82.802200,432.984192 
	C78.809082,431.253876 74.890320,429.348022 70.972588,427.449738 
	C69.520393,426.746094 68.163246,425.846313 66.406952,425.015564 
	C64.264214,423.353821 62.477280,421.712494 60.356232,420.025970 
	C58.918365,418.353027 57.814606,416.725250 56.367271,415.038696 
	C52.481964,409.515259 48.940231,404.050629 45.628834,398.316895 
	C55.014904,398.925171 64.154839,400.194977 73.331032,400.564362 
	C81.718559,400.902039 90.144737,400.221985 98.555473,400.111755 
	C99.638374,400.097534 100.706314,400.949219 101.825905,401.148438 
	C102.897530,401.339172 104.027420,401.207611 105.131714,401.208740 
	C111.258835,401.215088 117.386177,401.192719 123.512863,401.246674 
	C124.645126,401.256653 125.790245,401.789215 126.903008,401.709869 
	C134.094299,401.197235 141.273743,400.156067 148.465439,400.080109 
	C169.704346,399.855835 190.947342,399.954498 212.188263,400.042206 
	C215.988251,400.057892 219.789719,400.927032 223.584045,400.880066 
	C234.816971,400.740967 246.046509,400.114349 257.277649,400.106476 
	C268.414032,400.098633 279.550934,400.841187 290.687256,400.831635 
	C302.094299,400.821808 313.499664,400.146179 324.908173,400.050110 
	C333.739105,399.975739 342.574249,400.507782 351.406738,400.482422 
	C367.044189,400.437531 382.680939,400.085236 398.318146,400.075134 
	C401.520447,400.073059 404.734528,401.498596 407.924011,401.425781 
	C418.859955,401.176147 429.783875,400.440430 440.719025,400.106445 
	C450.151917,399.818359 459.728760,401.657593 468.906097,397.996063 
	C466.592010,401.748535 464.277924,405.501007 461.972809,409.618561 
z"/>
<path fill="#7271CE" opacity="1.000000" stroke="none" 
	d="
M469.088318,397.702026 
	C459.728760,401.657593 450.151917,399.818359 440.719025,400.106445 
	C429.783875,400.440430 418.859955,401.176147 407.924011,401.425781 
	C404.734528,401.498596 401.520447,400.073059 398.318146,400.075134 
	C382.680939,400.085236 367.044189,400.437531 351.406738,400.482422 
	C342.574249,400.507782 333.739105,399.975739 324.908173,400.050110 
	C313.499664,400.146179 302.094299,400.821808 290.687256,400.831635 
	C279.550934,400.841187 268.414032,400.098633 257.277649,400.106476 
	C246.046509,400.114349 234.816971,400.740967 223.584045,400.880066 
	C219.789719,400.927032 215.988251,400.057892 212.188263,400.042206 
	C190.947342,399.954498 169.704346,399.855835 148.465439,400.080109 
	C141.273743,400.156067 134.094299,401.197235 126.903008,401.709869 
	C125.790245,401.789215 124.645126,401.256653 123.512863,401.246674 
	C117.386177,401.192719 111.258835,401.215088 105.131714,401.208740 
	C104.027420,401.207611 102.897530,401.339172 101.825905,401.148438 
	C100.706314,400.949219 99.638374,400.097534 98.555473,400.111755 
	C90.144737,400.221985 81.718559,400.902039 73.331032,400.564362 
	C64.154839,400.194977 55.014904,398.925171 45.476902,398.022034 
	C40.414539,389.911194 35.734447,381.826111 30.973360,373.390564 
	C33.015114,375.208832 35.633610,377.079865 37.153484,379.610687 
	C39.986057,384.327362 43.356323,386.345581 49.074551,385.401367 
	C52.892628,384.770905 56.978401,385.998047 60.939377,385.953125 
	C73.851204,385.806702 86.759956,385.312012 99.671448,385.243256 
	C107.081078,385.203766 114.492279,385.779755 121.905334,385.987640 
	C131.986237,386.270325 142.068756,386.556549 152.152359,386.650452 
	C155.755737,386.684021 159.360138,386.041473 162.971313,385.916626 
	C172.544983,385.585541 182.124069,385.109467 191.698349,385.163025 
	C208.696991,385.258118 225.692780,385.787659 242.691528,385.972137 
	C255.629669,386.112549 268.572144,386.123993 281.509705,385.958466 
	C290.870880,385.838715 300.227692,385.057556 309.585510,385.074768 
	C320.387207,385.094574 331.188049,385.930908 341.989075,385.927795 
	C353.375824,385.924469 364.761047,385.190491 376.149689,385.089355 
	C381.948181,385.037811 387.755737,385.987518 393.554047,385.933258 
	C404.798706,385.828094 416.040955,385.048798 427.281921,385.095947 
	C435.328766,385.129669 443.367432,386.150269 451.419403,386.520294 
	C453.696228,386.624908 455.999878,385.894531 458.304321,385.721069 
	C460.586517,385.549286 462.972931,385.177063 465.158997,385.633484 
	C470.140686,386.673584 473.438263,384.802338 476.160065,380.773834 
	C477.988831,378.067078 480.329651,375.706268 482.777527,373.115112 
	C480.729553,378.104340 478.345367,383.169067 475.968964,388.607788 
	C473.741333,391.790527 471.505951,394.599274 469.088318,397.702026 
z"/>
<path fill="#8F9EEE" opacity="1.000000" stroke="none" 
	d="
M334.820862,499.719543 
	C335.020508,500.013947 335.000488,500.192108 334.944702,500.636414 
	C334.416626,500.904053 333.924377,500.905548 333.059753,500.872009 
	C333.325317,500.425751 333.963257,500.014526 334.820862,499.719543 
z"/>
<path fill="#676EC2" opacity="1.000000" stroke="none" 
	d="
M355.165344,292.792603 
	C355.127411,292.435516 355.296417,291.858124 355.692505,291.073730 
	C355.737152,291.435272 355.554688,292.003815 355.165344,292.792603 
z"/>
<path fill="#676EC2" opacity="1.000000" stroke="none" 
	d="
M355.980896,290.871521 
	C355.852814,290.949554 355.870667,290.456085 355.982300,290.235901 
	C356.324799,290.282135 356.329803,290.541412 355.980896,290.871521 
z"/>
<path fill="#636FBF" opacity="1.000000" stroke="none" 
	d="
M216.904007,226.905579 
	C223.086426,235.947937 227.193893,237.643753 241.574570,237.347595 
	C242.040924,245.703461 235.826935,253.357208 227.282837,254.950684 
	C218.150421,256.653870 209.088196,251.445526 206.232620,242.852448 
	C203.414551,234.372223 206.918884,225.322983 214.512177,221.636139 
	C215.251053,223.283951 215.989166,224.930069 216.904007,226.905579 
z"/>
<path fill="#636EBE" opacity="1.000000" stroke="none" 
	d="
M279.917419,237.162476 
	C288.703583,235.045639 293.346741,229.102493 296.180725,221.395798 
	C304.324890,226.515793 307.287201,235.084961 304.058319,243.511078 
	C300.858734,251.860809 292.014343,256.691467 283.145691,254.933182 
	C274.859253,253.290344 268.998260,246.177200 268.887848,237.242188 
	C272.427582,237.242188 275.973907,237.242188 279.917419,237.162476 
z"/>
</svg>